<?xml version="1.0" encoding="utf-8"?>
<!-- Generator: Adobe Illustrator 24.2.3, SVG Export Plug-In . SVG Version: 6.00 Build 0)  -->
<svg version="1.1" id="Capa_1" xmlns="http://www.w3.org/2000/svg" xmlns:xlink="http://www.w3.org/1999/xlink" x="0px" y="0px"
	 viewBox="0 0 126.15 170.19" style="enable-background:new 0 0 126.15 170.19;" xml:space="preserve">
<style type="text/css">
	.st0{fill:#FFFFFF;}
</style>
<g id="Grupo_214_2_" transform="translate(28.101 9.693)">
	<g id="Grupo_213_2_">
		<path id="Trazado_336_2_" class="st0" d="M84.64,83.54L62.38,48.63c4.84-2.53,6.72-8.51,4.19-13.36c-1.1-2.1-2.91-3.74-5.11-4.61
			L68.2,7.08c0.29-1.02,0.01-2.11-0.74-2.86c-4.5-4.48-11.77-4.48-16.27,0c-2.22,2.22-5.82,2.22-8.04,0.01c0,0,0,0-0.01-0.01
			L43.13,4.2c-4.49-4.47-11.74-4.48-16.25-0.03L26.8,4.26c-2.22,2.2-5.81,2.19-8.02-0.01l-0.02-0.02c-4.5-4.48-11.77-4.48-16.27,0
			C1.74,4.97,1.46,6.07,1.75,7.08l6.76,23.57c-5.08,2.01-7.57,7.77-5.55,12.85c0.87,2.21,2.51,4.02,4.62,5.12l-22.27,34.91
			c-12.83,20.11-6.93,46.82,13.19,59.65c6.94,4.43,15,6.78,23.23,6.78h26.5c23.86,0,43.2-19.34,43.2-43.2
			C91.43,98.54,89.07,90.48,84.64,83.54L84.64,83.54z M14.63,8.34l0.02,0.02c4.49,4.47,11.75,4.48,16.25,0.03l0.08-0.08
			c2.23-2.2,5.81-2.19,8.03,0.02l0.01,0.01c4.5,4.48,11.77,4.48,16.27,0c1.79-1.78,4.54-2.18,6.75-0.96l-6.46,22.58H14.36L7.89,7.38
			C10.1,6.17,12.85,6.56,14.63,8.34L14.63,8.34z M80.99,124.73c-6.48,12.04-19.09,19.51-32.77,19.41H21.71
			c-20.64,0-37.37-16.73-37.37-37.37c0-7.12,2.03-14.1,5.87-20.1l23.54-36.91h8.11c1.61-0.04,2.88-1.37,2.84-2.98
			c-0.04-1.55-1.29-2.81-2.84-2.84h-9.71c-2.25,0.01-4.08-1.82-4.09-4.07c-0.01-2.25,1.82-4.08,4.07-4.09c0.01,0,0.01,0,0.02,0
			h45.63c2.25,0.01,4.07,1.83,4.07,4.09c-0.01,2.24-1.82,4.06-4.07,4.07h-9.71c-1.61-0.04-2.94,1.23-2.98,2.84
			c-0.04,1.61,1.23,2.94,2.84,2.98c0.05,0,0.09,0,0.14,0h8.11l23.54,36.91C87.18,98.14,87.66,112.79,80.99,124.73L80.99,124.73z"/>
		<path id="Trazado_337_2_" class="st0" d="M40.1,95.97c-0.73-0.26-1.48-0.53-2.22-0.81v-13.2c1.19,0.35,2.32,0.87,3.35,1.57
			c1.32,0.92,3.14,0.59,4.05-0.73c0.87-1.25,0.63-2.95-0.55-3.92c-2.06-1.44-4.39-2.43-6.85-2.9v-2.9c0-1.61-1.3-2.91-2.91-2.91
			c-1.61,0-2.91,1.3-2.91,2.91v2.88c-0.5,0.1-1,0.22-1.49,0.37c-4.17,1.31-7.26,4.84-8,9.15c-0.86,3.74,0.44,7.65,3.37,10.14
			c1.89,1.42,3.95,2.59,6.13,3.49v16.89c-2.31-0.13-4.54-0.94-6.39-2.34c-1.36-0.86-3.16-0.45-4.02,0.91
			c-0.84,1.33-0.47,3.08,0.83,3.96c2.79,2.03,6.13,3.18,9.58,3.3v3.01c0,1.61,1.3,2.91,2.91,2.91c1.61,0,2.91-1.3,2.91-2.91v-3.32
			c5.56-1.28,9.79-5.81,10.7-11.44C49.78,103.9,46.12,97.82,40.1,95.97L40.1,95.97z M29.52,91.02c-1.2-1.15-1.68-2.87-1.24-4.48
			c0.35-2.1,1.78-3.85,3.77-4.59v10.67C31.17,92.16,30.32,91.62,29.52,91.02L29.52,91.02z M42.84,109.1
			c-0.47,2.81-2.34,5.19-4.96,6.31v-14.05l0.28,0.1C41.48,102.39,43.52,105.72,42.84,109.1L42.84,109.1z"/>
		<path id="Trazado_338_2_" class="st0" d="M34.97,49.77c1.61,0,2.91-1.3,2.92-2.91c0-1.61-1.3-2.91-2.91-2.92
			c-1.61,0-2.91,1.3-2.92,2.91c0,0.77,0.31,1.51,0.85,2.06C33.46,49.46,34.2,49.76,34.97,49.77z"/>
	</g>
</g>
</svg>
