<?xml version="1.0" encoding="utf-8"?>
<!-- Generator: Adobe Illustrator 24.2.3, SVG Export Plug-In . SVG Version: 6.00 Build 0)  -->
<svg version="1.1" id="Capa_1" xmlns="http://www.w3.org/2000/svg" xmlns:xlink="http://www.w3.org/1999/xlink" x="0px" y="0px"
	 viewBox="0 0 51.06 51.13" style="enable-background:new 0 0 51.06 51.13;" xml:space="preserve">
<style type="text/css">
	.st0{fill:#FFFFFF;}
</style>
<g id="Grupo_426_2_" transform="translate(16.666 12.294)">
	<g id="Grupo_276_2_">
		<path id="Trazado_388_2_" class="st0" d="M-9.03,6.36L8.8-6.6L26.63,6.36h5.58L8.8-10.66L-14.61,6.36H-9.03z"/>
		<g id="Grupo_274_2_" transform="translate(0.91 37.317)">
			<rect id="Rectángulo_82_2_" x="-9.61" y="-10.66" class="st0" width="35" height="3.56"/>
			<rect id="Rectángulo_83_2_" x="-14.61" y="-5.09" class="st0" width="45.01" height="3.56"/>
		</g>
		<g id="Grupo_275_2_" transform="translate(11.186 11.683)">
			<path id="Trazado_389_2_" class="st0" d="M0.03,2.81C-0.56,2.46-1.2,2.2-1.87,2.05v5.59C0.65,7.9,2.1,4.3,0.03,2.81z"/>
			<path id="Trazado_390_2_" class="st0" d="M-4.88-4.29c-1.45,1.71-0.09,4,2,4.14v-5C-3.64-5.18-4.38-4.87-4.88-4.29z"/>
			<path id="Trazado_391_2_" class="st0" d="M-2.38-10.65c-15.99,0.07-15.98,24.38,0,24.45C13.61,13.72,13.6-10.59-2.38-10.65z
				 M1.08,8.34c-0.9,0.51-1.91,0.8-2.94,0.87v2.06h-1.01V9.21c-3.31-0.12-4.93-2.22-4.81-5.09h1.88c-0.1,1.74,1.03,3.56,2.93,3.48
				v-5.8c-5.84-0.08-5.86-8.68,0-8.52v-1.41h1.01v1.39c2.29-0.03,4.53,1.75,4.44,4.15H0.71c-0.05-1.36-1.17-2.6-2.57-2.52v5.18
				C2.52,0.32,4.85,5.52,1.08,8.34L1.08,8.34z"/>
		</g>
	</g>
</g>
</svg>
