<?xml version="1.0" encoding="utf-8"?>
<!-- Generator: Adobe Illustrator 24.2.3, SVG Export Plug-In . SVG Version: 6.00 Build 0)  -->
<svg version="1.1" id="Capa_1" xmlns="http://www.w3.org/2000/svg" xmlns:xlink="http://www.w3.org/1999/xlink" x="0px" y="0px"
	 viewBox="0 0 816 110" style="enable-background:new 0 0 816 110;" xml:space="preserve">
<style type="text/css">
	.st0{fill:#86BE58;}
</style>
<path class="st0" d="M5.03,103.63c14.85-8.82,30.39-16.47,46.15-23.58c15.77-7.11,31.83-13.57,48.08-19.55
	c16.26-5.93,32.74-11.29,49.35-16.2c4.14-1.27,8.32-2.42,12.49-3.57l6.26-1.73l6.29-1.63c4.2-1.06,8.38-2.2,12.6-3.19l12.65-3
	C266.51,15.73,336,8.37,405.4,8.86c34.7,0.38,69.37,2.53,103.82,6.54c17.22,2.06,34.38,4.54,51.47,7.45
	c8.54,1.46,17.07,3,25.57,4.69c8.5,1.71,16.97,3.52,25.42,5.44c16.89,3.85,33.7,8.05,50.35,12.81c16.65,4.76,33.18,9.93,49.53,15.59
	c16.33,5.73,32.52,11.84,48.43,18.64c7.95,3.41,15.84,6.95,23.62,10.72c3.88,1.9,7.74,3.86,11.54,5.91c1.9,1.03,3.79,2.08,5.65,3.18
	c0.93,0.55,1.85,1.12,2.76,1.71c0.45,0.3,0.9,0.6,1.33,0.93c0.22,0.16,0.43,0.33,0.63,0.51c0.18,0.18,0.45,0.36,0.45,0.64
	c-0.02-0.28-0.3-0.43-0.49-0.6c-0.21-0.17-0.43-0.32-0.66-0.46c-0.45-0.29-0.91-0.57-1.38-0.83c-0.94-0.53-1.89-1.03-2.85-1.52
	c-1.92-0.98-3.86-1.9-5.82-2.8c-3.91-1.8-7.87-3.5-11.85-5.14c-7.95-3.32-15.98-6.43-24.06-9.4c-16.17-5.93-32.5-11.39-48.98-16.34
	c-16.46-5.02-33.04-9.61-49.72-13.76c-16.69-4.15-33.44-8.01-50.29-11.38c-8.42-1.69-16.87-3.28-25.33-4.76
	c-8.46-1.5-16.92-2.94-25.41-4.25c-16.97-2.63-34-4.83-51.08-6.61c-34.13-3.66-68.44-5.71-102.75-5.9
	c-8.58-0.13-17.15,0.05-25.73,0.1c-4.29-0.01-8.57,0.19-12.86,0.32l-12.86,0.42l-12.85,0.71c-4.28,0.23-8.57,0.45-12.84,0.82
	l-12.83,0.99c-4.28,0.32-8.54,0.78-12.81,1.17c-17.09,1.53-34.12,3.73-51.1,6.23l-12.72,2c-4.24,0.67-8.45,1.49-12.69,2.19
	l-6.35,1.09l-6.32,1.2c-4.21,0.82-8.44,1.59-12.64,2.45c-16.83,3.41-33.54,7.41-50.19,11.68C133.89,55.5,117.37,60.3,101,65.58
	c-16.4,5.2-32.6,11.02-48.65,17.27c-8.03,3.12-16,6.39-23.89,9.85C20.56,96.12,12.7,99.68,5.03,103.63z"/>
</svg>
