<?xml version="1.0" encoding="utf-8"?>
<!-- Generator: Adobe Illustrator 24.2.3, SVG Export Plug-In . SVG Version: 6.00 Build 0)  -->
<svg version="1.1" id="Capa_1" xmlns="http://www.w3.org/2000/svg" xmlns:xlink="http://www.w3.org/1999/xlink" x="0px" y="0px"
	 viewBox="0 0 239.78 53.06" style="enable-background:new 0 0 239.78 53.06;" xml:space="preserve">
<style type="text/css">
	.st0{fill:#86BE58;}
	.st1{fill:#BDD57C;}
	.st2{fill:#2A8A4A;}
	.st3{fill:#A4C962;}
	.st4{fill:#7BBA5B;}
	.st5{fill:#FFFFFF;}
</style>
<g id="Componente_41_1_2_" transform="translate(1415.145 1087.87)">
	<path id="Rectángulo_99_2_" class="st0" d="M-1404.24-1085.94h199.49c5.23,0,9.47,4.24,9.47,9.47v30.17
		c0,5.23-4.24,9.47-9.47,9.47h-199.49c-5.23,0-9.47-4.24-9.47-9.47v-30.17C-1413.71-1081.7-1409.47-1085.94-1404.24-1085.94z"/>
	<g id="Grupo_425_2_" transform="translate(1284.863 -488.91)">
		<path id="Trazado_956_2_" class="st1" d="M-2470.29-578.14l-26.82,18.87l-9.21-19.1C-2478.19-598-2487.12-604.82-2470.29-578.14z"
			/>
		<path id="Trazado_957_2_" class="st2" d="M-2497.52-557.69l-10.12-20.98c29.13-20.39,20.75-28.14,38.77,0.82L-2497.52-557.69z
			 M-2505.01-578.06l8.31,17.22l24.99-17.58C-2487.3-602.44-2477.57-597.33-2505.01-578.06z"/>
		<path id="Trazado_958_2_" class="st3" d="M-2467.75-570.81l-32.18,11.6l-6.38-19.15C-2470.2-591.25-2478.21-599.71-2467.75-570.81
			z"/>
		<path id="Trazado_959_2_" class="st2" d="M-2500.59-557.86l-7.03-21.1c37.12-13.19,30.1-22.83,41.22,8.79L-2500.59-557.86z
			 M-2505.01-577.77l5.73,17.2l30.18-10.88C-2478.9-597.42-2469.74-590.5-2505.01-577.77z"/>
		<path id="Trazado_960_2_" class="st0" d="M-2472.86-548.72h-29.73c-2.99,0-5.41-2.42-5.41-5.41v-20.8c0-2.99,2.42-5.41,5.41-5.41
			h29.73c2.99,0,5.41,2.42,5.41,5.41v20.8C-2467.45-551.14-2469.87-548.72-2472.86-548.72"/>
		<path id="Trazado_961_2_" class="st2" d="M-2472.86-547.67h-29.73c-3.57,0-6.46-2.9-6.46-6.46v-20.8c0-3.57,2.89-6.46,6.46-6.46
			h29.73c3.57,0,6.46,2.89,6.46,6.46v20.8C-2466.4-550.56-2469.29-547.67-2472.86-547.67z M-2502.59-579.29
			c-2.41,0-4.36,1.95-4.36,4.36v20.8c0,2.41,1.95,4.36,4.36,4.36h29.73c2.41,0,4.36-1.95,4.36-4.36v-20.8
			c0-2.41-1.95-4.36-4.36-4.36H-2502.59z"/>
		<path id="Trazado_962_2_" class="st4" d="M-2466.44-557.02c-2.7,0.28-6.49-0.18-6.43-3.69c0.06-2.97-0.94-9.01,3.69-8.92
			c2.7-0.28,6.49,0.18,6.44,3.69l0,0C-2462.82-562.96-2461.82-556.93-2466.44-557.02"/>
		<path id="Trazado_963_2_" class="st2" d="M-2466.44-555.96c-3.33,0.43-7.54-0.66-7.49-4.74c-0.13-3.68-0.61-10.06,4.74-9.97
			c3.33-0.43,7.54,0.66,7.49,4.74C-2461.58-562.26-2461.1-555.88-2466.44-555.96z M-2469.19-568.57c-3.78-0.09-2.4,5.65-2.64,7.87
			c-0.04,2.89,3.36,2.74,5.38,2.64c3.78,0.09,2.4-5.65,2.64-7.87C-2463.76-568.83-2467.16-568.67-2469.19-568.57z"/>
		<path id="Trazado_964_2_" class="st5" d="M-2474.98-567.21c-7.99,6.85-17.89,8.95-28.13,0.13
			C-2499.49-555.59-2478.15-555.1-2474.98-567.21"/>
		<path id="Trazado_965_2_" class="st2" d="M-2468.38-563.14c0.03,1.81-2.81,1.81-2.79,0
			C-2471.19-564.94-2468.35-564.94-2468.38-563.14"/>
	</g>
</g>
</svg>
