<?xml version="1.0" encoding="utf-8"?>
<!-- Generator: Adobe Illustrator 24.2.3, SVG Export Plug-In . SVG Version: 6.00 Build 0)  -->
<svg version="1.1" id="Capa_1" xmlns="http://www.w3.org/2000/svg" xmlns:xlink="http://www.w3.org/1999/xlink" x="0px" y="0px"
	 viewBox="0 0 194.97 46.45" style="enable-background:new 0 0 194.97 46.45;" xml:space="preserve">
<style type="text/css">
	.st0{fill:#86BE58;}
	.st1{fill:#BDD57C;}
	.st2{fill:#2A8A4A;}
	.st3{fill:#A4C962;}
	.st4{fill:#7BBA5B;}
	.st5{fill:#EDF5F7;}
</style>
<g>
	<path id="Rectángulo_81_9_" class="st0" d="M12.66,0.95h153.08c6.39,0,11.56,5.18,11.56,11.56v21.08
		c0,6.39-5.18,11.56-11.56,11.56H12.66c-6.39,0-11.56-5.18-11.56-11.56V12.51C1.1,6.13,6.28,0.95,12.66,0.95z"/>
	<g id="Grupo_378_9_">
		<path id="Trazado_826_9_" class="st1" d="M186.18,17.96l-24.14,16.99l-8.29-17.2L173.33,2.4c1.05-0.78,2.54-0.55,3.31,0.5
			L186.18,17.96z"/>
		<path id="Trazado_827_9_" class="st2" d="M161.67,36.36l-9.11-18.89l20.19-15.82c1.47-1.1,3.56-0.8,4.65,0.68c0,0,0,0,0,0
			l0.04,0.06l10.02,15.82L161.67,36.36z M154.92,18.03l7.48,15.51l22.5-15.83l-9.04-14.26c-0.47-0.61-1.35-0.73-1.97-0.28
			L154.92,18.03z"/>
		<path id="Trazado_828_9_" class="st3" d="M188.46,24.56l-28.97,10.44l-5.75-17.24l25.88-10.72c1.23-0.44,2.59,0.19,3.03,1.42
			L188.46,24.56z"/>
		<path id="Trazado_829_9_" class="st2" d="M158.9,36.21l-6.33-19L179.3,6.14c1.72-0.62,3.62,0.27,4.24,1.99l6.13,16.99L158.9,36.21
			z M154.92,18.29l5.16,15.49l27.17-9.79l-5.5-15.21c-0.27-0.73-1.07-1.11-1.8-0.85L154.92,18.29z"/>
		<path id="Trazado_830_9_" class="st0" d="M183.86,44.44H157.1c-2.69,0-4.87-2.18-4.87-4.87c0,0,0,0,0,0V20.84
			c0-2.69,2.18-4.87,4.87-4.87h26.77c2.69,0,4.87,2.18,4.87,4.87c0,0,0,0,0,0v18.73C188.73,42.26,186.55,44.44,183.86,44.44"/>
		<path id="Trazado_831_9_" class="st2" d="M183.86,45.39H157.1c-3.21,0-5.81-2.61-5.82-5.82V20.84c0-3.21,2.61-5.81,5.82-5.82
			h26.77c3.21,0,5.81,2.61,5.82,5.82v18.73C189.68,42.78,187.07,45.38,183.86,45.39z M157.1,16.92c-2.17,0-3.92,1.76-3.92,3.92
			v18.73c0,2.17,1.76,3.92,3.92,3.92h26.77c2.17,0,3.92-1.76,3.92-3.92V20.84c0-2.17-1.76-3.92-3.92-3.92H157.1z"/>
		<path id="Trazado_832_9_" class="st4" d="M189.64,36.97h-2.47c-1.83,0-3.32-1.48-3.32-3.32c0,0,0,0,0,0v-4.71
			c0-1.83,1.48-3.32,3.32-3.32c0,0,0,0,0,0h2.47c1.83,0,3.32,1.49,3.32,3.32v4.71C192.96,35.48,191.47,36.97,189.64,36.97
			C189.64,36.97,189.64,36.97,189.64,36.97"/>
		<path id="Trazado_833_9_" class="st2" d="M189.64,37.92h-2.47c-2.35-0.01-4.26-1.91-4.27-4.27v-4.71
			c0.01-2.35,1.91-4.26,4.27-4.27h2.47c2.35,0.01,4.26,1.91,4.27,4.27v4.71C193.9,36,191.99,37.91,189.64,37.92z M187.17,26.57
			c-1.31,0-2.37,1.06-2.37,2.37v4.71c0,1.31,1.06,2.37,2.37,2.37h2.47c1.31,0,2.37-1.06,2.37-2.37v-4.71c0-1.31-1.06-2.37-2.37-2.37
			H187.17z"/>
		<path id="Trazado_835_9_" class="st2" d="M187.9,31.46c0,0.69-0.56,1.25-1.25,1.25c-0.69,0-1.25-0.56-1.25-1.25
			c0-0.69,0.56-1.25,1.25-1.25C187.34,30.21,187.9,30.77,187.9,31.46"/>
		<g>
			<path class="st5" d="M177.96,36.8c0,1.88-1.53,3.42-3.42,3.42h-9.26c-1.88,0-3.42-1.53-3.42-3.42c0-0.78,0.63-1.41,1.41-1.41
				s1.41,0.63,1.41,1.41c0,0.33,0.27,0.6,0.6,0.6h9.26c0.33,0,0.6-0.27,0.6-0.6c0-0.78,0.63-1.41,1.41-1.41
				S177.96,36.03,177.96,36.8z M168.92,33.98c0.26,0.26,0.62,0.41,0.99,0.41s0.73-0.15,0.99-0.41l4.15-4.15
				c0.55-0.55,0.55-1.44,0-1.99c-0.55-0.55-1.44-0.55-1.99,0l-1.75,1.75V21.6c0-0.78-0.63-1.41-1.41-1.41s-1.41,0.63-1.41,1.41v7.99
				l-1.75-1.75c-0.55-0.55-1.44-0.55-1.99,0c-0.55,0.55-0.55,1.44,0,1.99L168.92,33.98z"/>
		</g>
	</g>
</g>
</svg>
