<?xml version="1.0" encoding="utf-8"?>
<!-- Generator: Adobe Illustrator 24.2.3, SVG Export Plug-In . SVG Version: 6.00 Build 0)  -->
<svg version="1.1" id="Capa_1" xmlns="http://www.w3.org/2000/svg" xmlns:xlink="http://www.w3.org/1999/xlink" x="0px" y="0px"
	 viewBox="0 0 22.59 22.93" style="enable-background:new 0 0 22.59 22.93;" xml:space="preserve">
<style type="text/css">
	.st0{fill:#23525A;}
</style>
<g>
	<path class="st0" d="M16.86,4.99c0.86,0,1.56-0.7,1.56-1.56V1.79c0-0.87-0.7-1.56-1.56-1.56c-0.86,0-1.56,0.7-1.56,1.56v1.63
		C15.3,4.29,16,4.99,16.86,4.99z"/>
	<path class="st0" d="M22.42,2.93h-3.15v0.79c0,1.31-1.07,2.38-2.38,2.38c-1.32,0-2.38-1.07-2.38-2.38V2.93H8.16v0.79
		c0,1.31-1.07,2.38-2.38,2.38S3.4,5.04,3.4,3.73V2.93L0.22,2.89v19.88h1.59h19.05l1.59,0L22.42,2.93z M20.85,21.19H1.81V8.49h19.05
		L20.85,21.19L20.85,21.19z"/>
	<path class="st0" d="M5.75,4.99c0.86,0,1.56-0.7,1.56-1.56V1.79c0-0.87-0.7-1.56-1.56-1.56s-1.56,0.7-1.56,1.56v1.63
		C4.19,4.29,4.89,4.99,5.75,4.99z"/>
	<rect x="8.16" y="10.19" class="st0" width="2.5" height="2.21"/>
	<rect x="12.21" y="10.19" class="st0" width="2.5" height="2.21"/>
	<rect x="15.96" y="10.19" class="st0" width="2.5" height="2.21"/>
	<rect x="8.16" y="13.86" class="st0" width="2.5" height="2.21"/>
	<rect x="12.21" y="13.86" class="st0" width="2.5" height="2.21"/>
	<rect x="15.96" y="13.86" class="st0" width="2.5" height="2.21"/>
	<rect x="8.16" y="17.6" class="st0" width="2.5" height="2.21"/>
	<rect x="4.19" y="13.86" class="st0" width="2.5" height="2.21"/>
	<rect x="4.19" y="17.6" class="st0" width="2.5" height="2.21"/>
	<rect x="12.21" y="17.6" class="st0" width="2.5" height="2.21"/>
	<rect x="15.96" y="17.6" class="st0" width="2.5" height="2.21"/>
</g>
</svg>
