<svg xmlns="http://www.w3.org/2000/svg" viewBox="0 0 81.76 84.19"><defs><style>.cls-1{fill:#fff;}</style></defs><g id="Capa_2" data-name="Capa 2"><g id="Capa_1-2" data-name="Capa 1"><g id="Grupo_101" data-name="Grupo 101"><g id="Grupo_100" data-name="Grupo 100"><g id="Grupo_99" data-name="Grupo 99"><path id="Trazado_133" data-name="Trazado 133" class="cls-1" d="M20.64,12.25H9.53c-2.36,0-2.36,3.7,0,3.72H20.64C23,16,23,12.26,20.64,12.25Z"/><path id="Trazado_134" data-name="Trazado 134" class="cls-1" d="M20.64,19.69H9.53c-2.36,0-2.36,3.71,0,3.72H20.64C23,23.4,23,19.71,20.64,19.69Z"/><path id="Trazado_135" data-name="Trazado 135" class="cls-1" d="M20.64,27.14H9.53c-2.41,0-2.42,3.76,0,3.72H20.64c2.41,0,2.42-3.76,0-3.72Z"/><path id="Trazado_136" data-name="Trazado 136" class="cls-1" d="M17.86,34.88H9.13a1.74,1.74,0,0,0,0,3.43h8.73A1.74,1.74,0,0,0,17.86,34.88Z"/><path id="Trazado_137" data-name="Trazado 137" class="cls-1" d="M17.86,42.15H9.13a1.93,1.93,0,0,0,0,3.73h8.73A1.93,1.93,0,0,0,17.86,42.15Z"/><path id="Trazado_138" data-name="Trazado 138" class="cls-1" d="M26.89,16H38a1.86,1.86,0,1,0,0-3.72H26.89C24.54,12.26,24.53,16,26.89,16Z"/><path id="Trazado_139" data-name="Trazado 139" class="cls-1" d="M26.89,22.7H38c2.41,0,2.42-3.75,0-3.72H26.89C24.48,19,24.47,22.74,26.89,22.7Z"/><g id="Grupo_97" data-name="Grupo 97"><path id="Trazado_140" data-name="Trazado 140" class="cls-1" d="M80,74.07l-18-18C76.09,30.4,38.2,8.83,23.27,34.05,11.74,52.92,34.89,75.91,53.68,64.46l17.95,18C77,87.91,85.47,79.4,80,74.07ZM56.34,58.72C38,76.55,11.57,49.43,29.09,31.16,47.49,13.32,73.86,40.45,56.34,58.72Zm1.13-13.29A13.12,13.12,0,0,0,47.26,33.91V32.25c2.48-.55,2-4.42-.53-4.36H42a2.22,2.22,0,0,0-.53,4.36v1.66A13.16,13.16,0,0,0,34,38.69c-.05,0-4.63,0-4.68,0a.65.65,0,0,0-.08,1.3h3.88A12.89,12.89,0,0,0,32,42.49H24.87c-3.27,2.1,6.37,1.09,6.71,1.3a14,14,0,0,0-.32,2.5c-.6.19-3.58-.52-3.56.62s3,.49,3.58.68a13.18,13.18,0,0,0,.41,2.5c-.58.08-7-.52-4.22,1.3H32.1c2.15,7.56,15,11.9,19.63,5.45-6.12,2.06-12.92,3.08-17.27-3.66C25.9,40.42,46.14,27.26,54.33,40.27c3.44,4.55,1.2,9.47.17,13.8,2.8-.68,3.06-6,3-8.64ZM41.13,30.11c-.15-1.71,4.78-.63,5.6-.91a.91.91,0,0,1,.91.91c.14,1.7-4.79.62-5.6.91a.91.91,0,0,1-.91-.91Zm1.68,3.58V32.32H46v1.37a12.77,12.77,0,0,0-3.15,0ZM53.23,54.92a.65.65,0,0,0,0,1.3.65.65,0,0,0,0-1.3ZM44.39,36.64c-13.1-.19-13.1,20.39,0,20.2,13.11.19,13.1-20.39,0-20.2Zm-.64,3.13c.7-1.92,2.23,1,.69,1.29C43.72,41.1,43.71,40.29,43.75,39.77ZM38,47.37c-1,.34-1.82-1-.6-1.3C38.44,45.73,39.26,47.1,38,47.37Zm7,6.32c-.62,2.12-2.32-1-.62-1.22C45.06,52.49,45.07,53.22,45,53.69Zm4.39-11.08-3.22,3.23c1.52,3.72-5.15,3.72-3.63,0-.31-.5-2.25-1.64-1.4-2.36S43,44.61,43.5,44.92a2,2,0,0,1,1.79,0c.48-.32,4.8-5.64,4.14-2.31Zm1.92,4.78c-1,.32-2-.94-.67-1.3S52.76,47.09,51.35,47.39ZM44.4,46c-1.87.33.39,2.59.72.72h0a.73.73,0,0,0-.73-.72ZM24.87,50.1a.65.65,0,0,0,0,1.3.65.65,0,0,0,0-1.3Z"/></g><g id="Grupo_98" data-name="Grupo 98"><path id="Trazado_141" data-name="Trazado 141" class="cls-1" d="M19.22,54.39c-3.36-.72-15.71,2.43-15.49-3.77V7.5A3.77,3.77,0,0,1,7.5,3.73H40A3.77,3.77,0,0,1,43.8,7.5l.39,13.17a6.37,6.37,0,0,1,3.56.71C47.05,15.1,50.42-.24,40,0H7.28A7.5,7.5,0,0,0,0,7.5H0V50.62a7.5,7.5,0,0,0,7.5,7.5H20.43C21.83,57.45,19.3,55.54,19.22,54.39Z"/></g></g></g></g></g></g></svg>