<?xml version="1.0" encoding="utf-8"?>
<!-- Generator: Adobe Illustrator 24.2.3, SVG Export Plug-In . SVG Version: 6.00 Build 0)  -->
<svg version="1.1" id="Capa_1" xmlns="http://www.w3.org/2000/svg" xmlns:xlink="http://www.w3.org/1999/xlink" x="0px" y="0px"
	 viewBox="0 0 86.5 91.24" style="enable-background:new 0 0 86.5 91.24;" xml:space="preserve">
<style type="text/css">
	.st0{fill:#85BE57;}
	.st1{fill:#FFFFFF;}
</style>
<g id="boton_perfil_19_" transform="translate(1861.107 41.946)">
	<g>
		<g>
			<path class="st0" d="M-1789.18,31.84c-4.57,0-8.29-3.72-8.29-8.29v-9.16c0-4.57,3.72-8.29,8.29-8.29h4.81c0.03,0,0.05,0,0.08,0
				v-7.45c0-4.61-2.78-8.58-6.75-10.34l-5.19-14.37c-1.21-3.34-4.91-5.08-8.25-3.87l-0.81,0.33l-4.64-7.61l-0.07-0.11
				c-2.03-2.85-5.92-3.46-8.71-1.32l-32.73,26.66c-4.37,1.57-7.51,5.73-7.51,10.63v36.4c0,6.23,5.07,11.31,11.31,11.31h52.03
				c6.23,0,11.31-5.07,11.31-11.31v-3.22c-0.03,0-0.05,0-0.08,0H-1789.18z M-1803.19-26.48c1.43-0.49,2.99,0.25,3.5,1.67l4.39,12.17
				c-0.1,0-0.2-0.02-0.3-0.02h-40.96L-1803.19-26.48z M-1816.56-35.71c1.17-0.89,2.81-0.65,3.69,0.54l4.25,6.97l-34.89,14.45
				L-1816.56-35.71z"/>
			<path class="st0" d="M-1783.79,8.56h-4.45c-3.3,0-5.97,2.67-5.97,5.97v8.48c0,3.3,2.67,5.97,5.97,5.97h4.45
				c3.3,0,5.97-2.67,5.97-5.97v-8.48C-1777.81,11.23-1780.49,8.56-1783.79,8.56z M-1789.18,21.33c-1.25,0-2.26-1.01-2.26-2.26
				c0-1.25,1.01-2.26,2.26-2.26s2.26,1.01,2.26,2.26C-1786.92,20.32-1787.93,21.33-1789.18,21.33z"/>
		</g>
	</g>
	<g id="Grupo_11_3_" transform="translate(5.779 6.562)">
		<g id="Grupo_10_3_">
			<path id="Trazado_25_3_" class="st1" d="M-1811.06,21.88l-2.08-0.98c0.51-1.99,0.61-4.06,0.28-6.09l2.16-0.78
				c0.81-0.29,1.24-1.19,0.94-2c0,0,0,0,0,0l-0.83-2.27c-0.3-0.81-1.2-1.23-2.01-0.94l-2.16,0.78c-1.05-1.77-2.45-3.3-4.12-4.49
				l0.98-2.08c0.36-0.78,0.03-1.71-0.75-2.08l-2.2-1.02c-0.78-0.36-1.71-0.03-2.08,0.75l-0.98,2.1c-1.46-0.37-2.97-0.51-4.48-0.43
				l-0.03,0.61c-0.04,0.85-0.41,1.65-1.04,2.22c-0.56,0.52-1.3,0.82-2.06,0.84c-0.13,0.33-0.28,0.65-0.45,0.96
				c0.2,0.26,0.36,0.55,0.48,0.85c0.86-0.35,1.77-0.59,2.7-0.7c5.57-0.65,10.62,3.34,11.27,8.91s-3.34,10.62-8.91,11.27
				c-5.57,0.65-10.62-3.34-11.27-8.91c-0.22-1.86,0.08-3.75,0.87-5.45c-0.36-0.15-0.69-0.37-0.98-0.64c-0.33,0.13-0.65,0.25-1,0.36
				c-0.2,1.66-1.65,2.89-3.32,2.82h-0.21c-0.16,1.36-0.13,2.75,0.09,4.1l-2.25,0.82c-0.81,0.3-1.23,1.2-0.94,2.01l0.83,2.27
				c0.29,0.81,1.19,1.24,2,0.94c0,0,0,0,0,0l2.25-0.82c1.04,1.75,2.42,3.26,4.06,4.46l-1.01,2.16c-0.36,0.78-0.02,1.71,0.75,2.08
				l2.19,1.02c0.78,0.36,1.71,0.03,2.08-0.75l1.01-2.15c1.97,0.51,4.03,0.61,6.04,0.29l0.8,2.21c0.3,0.81,1.19,1.23,2.01,0.94
				l2.27-0.83c0.81-0.3,1.23-1.2,0.94-2.01l-0.8-2.19c1.76-1.04,3.29-2.43,4.49-4.08l2.1,0.98c0.78,0.36,1.71,0.03,2.08-0.75
				l1.02-2.2c0.37-0.78,0.03-1.71-0.75-2.08C-1811.05,21.88-1811.06,21.88-1811.06,21.88z"/>
			<path id="Trazado_26_3_" class="st1" d="M-1844.48,12.16v0.05c0,0.53,0.41,0.96,0.94,0.98l1.53,0.07
				c0.54,0.03,1.01-0.39,1.03-0.94l0.06-1.45c1.28-0.18,2.51-0.62,3.61-1.3l0.98,1.07c0.37,0.4,0.99,0.43,1.39,0.07l1.13-1.03
				c0.2-0.19,0.32-0.45,0.32-0.73c0-0.25-0.09-0.49-0.26-0.67l-0.98-1.07c0.78-1.04,1.33-2.22,1.62-3.48l1.45,0.07
				c0.54,0.03,1.01-0.39,1.03-0.94l0.07-1.52V1.28c0-0.53-0.42-0.96-0.94-0.99l-1.46-0.07c-0.19-1.27-0.64-2.5-1.32-3.59l1.09-1
				c0.2-0.19,0.31-0.45,0.31-0.72c0-0.25-0.09-0.49-0.26-0.67l-1.03-1.13c-0.37-0.4-0.99-0.43-1.39-0.07l-1.1,1
				c-1.03-0.76-2.21-1.31-3.45-1.6l0.07-1.49v-0.05c0-0.53-0.42-0.96-0.94-0.99l-1.52-0.07c-0.54-0.02-1.01,0.4-1.03,0.94
				l-0.07,1.51c-1.27,0.18-2.48,0.62-3.57,1.3l-1-1.12c-0.37-0.4-0.99-0.43-1.39-0.07l-1.13,1.03c-0.2,0.19-0.32,0.45-0.32,0.72
				c0,0.25,0.09,0.49,0.26,0.67l1.02,1.12c-0.77,1.02-1.32,2.19-1.61,3.44l-1.51-0.07c-0.54-0.03-1.01,0.39-1.03,0.94l-0.07,1.52
				v0.03c0,0.53,0.41,0.96,0.94,0.99l1.49,0.07c0.18,1.27,0.62,2.49,1.29,3.58l-1.1,1.01c-0.4,0.37-0.42,0.99-0.06,1.39l1.03,1.13
				c0.37,0.4,0.99,0.43,1.4,0.07l1.09-1c1.03,0.78,2.21,1.33,3.46,1.63L-1844.48,12.16z M-1846.01,4.99
				c-1.9-2.07-1.76-5.29,0.31-7.19c2.07-1.9,5.29-1.76,7.19,0.31s1.76,5.29-0.31,7.19c0,0,0,0,0,0c-2.06,1.9-5.26,1.77-7.16-0.29
				C-1846,5.01-1846,5-1846.01,4.99L-1846.01,4.99z"/>
			<path id="Trazado_27_3_" class="st1" d="M-1827.6,9.66c-4.16,0-7.54,3.37-7.54,7.54c0,4.16,3.37,7.54,7.54,7.54
				c4.16,0,7.54-3.37,7.54-7.54C-1820.07,13.03-1823.44,9.66-1827.6,9.66C-1827.6,9.66-1827.6,9.66-1827.6,9.66z M-1827.6,14.74
				c-1.35,0-2.45,1.09-2.46,2.45c0,0,0,0,0,0.01c0,0.62-0.5,1.13-1.13,1.13c-0.62,0-1.13-0.5-1.13-1.13c0-2.6,2.11-4.7,4.71-4.71
				c0.62,0.03,1.1,0.55,1.08,1.18C-1826.55,14.24-1827.02,14.71-1827.6,14.74z"/>
		</g>
	</g>
</g>
</svg>
