<svg xmlns="http://www.w3.org/2000/svg" viewBox="0 0 27.01 27.59"><defs><style>.cls-1{fill:none;}.cls-2{fill:#fff;}</style></defs><g id="Capa_2" data-name="Capa 2"><g id="Menu_navegacion" data-name="Menu navegacion"><path class="cls-1" d="M18.36,3.84l-13,5.4H21.26L19.5,4.38A.9.9,0,0,0,18.36,3.84Z"/><path class="cls-2" d="M18.36,3.84a.9.9,0,0,1,1.14.54l1.76,4.86h1.27L20.63,4a2.11,2.11,0,0,0-2.69-1.27L2.18,9.24H5.32Z"/><path class="cls-1" d="M20.65,9.55h-17A2.48,2.48,0,0,0,1.2,12V23.9a2.49,2.49,0,0,0,2.49,2.49h17a2.5,2.5,0,0,0,2.49-2.49V22.25h-.4a2.1,2.1,0,0,1-2.1-2.1v-3a2.1,2.1,0,0,1,2.1-2.1h.4V12A2.49,2.49,0,0,0,20.65,9.55Z"/><path class="cls-2" d="M23.14,22.25V23.9a2.5,2.5,0,0,1-2.49,2.49h-17A2.49,2.49,0,0,1,1.2,23.9V12A2.48,2.48,0,0,1,3.69,9.55h17A2.49,2.49,0,0,1,23.14,12v3h1.2V12a3.69,3.69,0,0,0-3.69-3.68h-17A3.69,3.69,0,0,0,0,12V23.9a3.69,3.69,0,0,0,3.69,3.69h17a3.7,3.7,0,0,0,3.69-3.69V22.25h-1.2Z"/><path class="cls-2" d="M24.31,22.85H22.74a2.7,2.7,0,0,1-2.7-2.7v-3a2.7,2.7,0,0,1,2.7-2.7h1.57a2.7,2.7,0,0,1,2.7,2.7v3A2.7,2.7,0,0,1,24.31,22.85Zm-1.57-7.19a1.5,1.5,0,0,0-1.5,1.5v3a1.5,1.5,0,0,0,1.5,1.5h1.57a1.5,1.5,0,0,0,1.5-1.5v-3a1.5,1.5,0,0,0-1.5-1.5Z"/><path class="cls-2" d="M23.21,18.76a.8.8,0,0,1-.8.8.79.79,0,0,1-.79-.8.79.79,0,0,1,.79-.79.79.79,0,0,1,.8.79"/><path class="cls-1" d="M14.14,1.34,4.87,8.53h15l-4.5-7A.9.9,0,0,0,14.14,1.34Z"/><path class="cls-2" d="M18,3.4,16.36.86l0,0A2.1,2.1,0,0,0,13.42.41L3,8.53H4.87l9.27-7.19a.9.9,0,0,1,1.23.17L16.91,3.9"/><path class="cls-2" d="M13.56,19.83a1.2,1.2,0,0,0-.86-.4,1.24,1.24,0,0,0-.88.4l-.81.8-.19-.1-.26-.13a9.13,9.13,0,0,1-2.1-1.92,5.65,5.65,0,0,1-.69-1.09c.21-.19.4-.39.59-.58l.22-.22a1.18,1.18,0,0,0,0-1.77l-.7-.7-.24-.24-.48-.48A1.22,1.22,0,0,0,6.31,13a1.25,1.25,0,0,0-.87.37h0l-.87.88A1.81,1.81,0,0,0,4,15.47a4.64,4.64,0,0,0,.32,1.9,11.18,11.18,0,0,0,2,3.26,12,12,0,0,0,4,3.14,6,6,0,0,0,2.25.66h.16a1.92,1.92,0,0,0,1.47-.63v0c.13-.16.29-.3.45-.46s.22-.21.33-.33a1.29,1.29,0,0,0,.39-.88,1.22,1.22,0,0,0-.4-.88Zm.92,2.69h0c-.1.11-.21.21-.32.31s-.33.33-.49.52a1.25,1.25,0,0,1-1,.4h-.12a5.61,5.61,0,0,1-2-.6A11.37,11.37,0,0,1,6.82,20.2,10.55,10.55,0,0,1,5,17.13a3.73,3.73,0,0,1-.28-1.6,1.15,1.15,0,0,1,.35-.76l.87-.87a.58.58,0,0,1,.39-.18.55.55,0,0,1,.37.18h0c.16.14.31.29.46.45l.24.25.7.7a.49.49,0,0,1,0,.79l-.22.22c-.21.22-.42.43-.64.62,0,0,0,0,0,0a.51.51,0,0,0-.13.58v0a5.67,5.67,0,0,0,.83,1.35h0A9.5,9.5,0,0,0,10.19,21l.32.17.25.13,0,0a.61.61,0,0,0,.25.06.56.56,0,0,0,.39-.17l.87-.88a.63.63,0,0,1,.39-.19.52.52,0,0,1,.37.19h0l1.41,1.41A.5.5,0,0,1,14.48,22.52Z"/><path class="cls-2" d="M10.53,15.21a3.26,3.26,0,0,1,2.68,2.68.34.34,0,0,0,.34.28h.06a.34.34,0,0,0,.28-.4,3.89,3.89,0,0,0-1.1-2.13,4,4,0,0,0-2.14-1.11.35.35,0,0,0-.4.28A.34.34,0,0,0,10.53,15.21Z"/><path class="cls-2" d="M16.09,17.67a6.6,6.6,0,0,0-5.34-5.34.36.36,0,0,0-.4.28.35.35,0,0,0,.29.4,5.83,5.83,0,0,1,3.14,1.63,5.9,5.9,0,0,1,1.63,3.14.34.34,0,0,0,.34.29h.05A.34.34,0,0,0,16.09,17.67Z"/></g></g></svg>