<?xml version="1.0" encoding="utf-8"?>
<!-- Generator: Adobe Illustrator 24.2.3, SVG Export Plug-In . SVG Version: 6.00 Build 0)  -->
<svg version="1.1" id="Capa_1" xmlns="http://www.w3.org/2000/svg" xmlns:xlink="http://www.w3.org/1999/xlink" x="0px" y="0px"
	 viewBox="0 0 87.22 92.83" style="enable-background:new 0 0 87.22 92.83;" xml:space="preserve">
<style type="text/css">
	.st0{fill:#FFFFFF;}
</style>
<g id="Grupo_191_5_">
	<g id="Grupo_190_5_">
		<path id="Trazado_282_5_" class="st0" d="M17.05,25.78c4.1-0.64,7.09-4.21,7-8.36c0.1-3.87-2.95-7.09-6.82-7.19
			c-3.87-0.1-7.09,2.95-7.19,6.82c0,0.12,0,0.25,0,0.37C9.96,21.57,12.95,25.14,17.05,25.78z"/>
		<path id="Trazado_283_5_" class="st0" d="M69.75,25.78c4.1-0.64,7.09-4.21,7.01-8.36c0-3.87-3.14-7.01-7.01-7c-3.87,0-7,3.14-7,7
			C62.66,21.57,65.65,25.14,69.75,25.78z"/>
		<path id="Trazado_284_5_" class="st0" d="M21.89,56.32c-1.04-1.29-1.52-2.94-1.33-4.59l2.73-24.63c-2.05-0.47-4.14-0.72-6.24-0.76
			c-4.04,0.19-8.02,0.97-11.83,2.32L5.09,28.7l-0.07,0.02c-0.05,0.02-0.09,0.06-0.15,0.09c-0.27,0.11-0.51,0.26-0.73,0.44
			c-0.09,0.09-0.18,0.19-0.26,0.3c-0.14,0.16-0.27,0.33-0.38,0.52c-0.08,0.18-0.13,0.36-0.17,0.55c-0.05,0.13-0.09,0.26-0.13,0.4
			L1,50.98c-0.17,1.52,0.92,2.89,2.44,3.06c0.1,0,0.21,0,0.31,0c1.41,0,2.59-1.06,2.75-2.47L8.51,33.4l0.77-0.22v18.92L7.07,79.52
			c-0.15,1.83,1.22,3.43,3.05,3.58c0,0,0,0,0,0c0.09,0,0.18,0,0.27,0c1.73,0,3.17-1.33,3.31-3.06l1.99-24.79
			c0.42,0.19,0.88,0.29,1.34,0.29c0.46,0,0.92-0.1,1.34-0.29l2,24.79c0.14,1.73,1.58,3.06,3.31,3.06h0.27
			c1.83-0.15,3.2-1.75,3.05-3.58c0,0,0,0,0,0l-1.7-21.07C23.96,58.15,22.75,57.4,21.89,56.32z"/>
		<path id="Trazado_285_5_" class="st0" d="M83.61,31.03c0-0.14-0.09-0.25-0.12-0.39c-0.04-0.2-0.1-0.39-0.19-0.57
			c-0.09-0.15-0.19-0.29-0.31-0.42c-0.1-0.14-0.22-0.28-0.34-0.4c-0.16-0.12-0.34-0.23-0.53-0.32c-0.11-0.07-0.22-0.14-0.33-0.2
			c-3.87-1.38-7.92-2.18-12.03-2.38c-2.1,0.04-4.19,0.3-6.24,0.77l2.74,24.62c0.18,1.64-0.3,3.3-1.33,4.59
			c-0.86,1.08-2.07,1.83-3.41,2.14l-1.7,21.07c-0.15,1.83,1.22,3.43,3.05,3.58c0.09,0,0.18,0,0.27,0c1.73,0,3.17-1.34,3.31-3.06
			l1.99-24.79c0.85,0.38,1.83,0.38,2.69,0l1.99,24.79c0.14,1.73,1.58,3.06,3.31,3.06c0.09,0.01,0.18,0.01,0.27,0
			c1.83-0.15,3.2-1.75,3.05-3.58c0,0,0,0,0,0L77.54,52.1V33.19c0.28,0.07,0.54,0.16,0.77,0.22l2.02,18.18
			c0.16,1.4,1.34,2.46,2.75,2.47c0.1,0,0.2,0,0.31,0c1.52-0.18,2.61-1.54,2.44-3.06L83.61,31.03z"/>
		<path id="Trazado_286_5_" class="st0" d="M43.41,20.49c5.13-0.8,8.88-5.27,8.77-10.46c0-4.85-3.94-8.77-8.78-8.77
			c-4.84,0-8.76,3.93-8.77,8.77C34.53,15.22,38.28,19.69,43.41,20.49z"/>
		<path id="Trazado_287_5_" class="st0" d="M60.44,55.86c1.9-0.21,3.27-1.93,3.06-3.83l-2.77-24.97c-0.04-0.17-0.09-0.33-0.16-0.49
			c-0.05-0.25-0.13-0.49-0.23-0.72c-0.11-0.19-0.24-0.37-0.39-0.53c-0.12-0.18-0.27-0.34-0.42-0.49c-0.2-0.16-0.42-0.29-0.65-0.4
			c-0.13-0.09-0.27-0.18-0.41-0.25c-4.43-1.55-9.03-2.53-13.71-2.92l-0.88,1.76h-0.02l2.34,18.2l-2.78,4.84l-2.77-4.84l2.33-18.19
			l0,0l-0.87-1.74c-4.59,0.37-9.12,1.32-13.47,2.83l-0.17,0.06l-0.09,0.03c-0.07,0.02-0.12,0.08-0.19,0.11
			c-0.33,0.14-0.65,0.32-0.92,0.56c-0.11,0.12-0.22,0.25-0.32,0.38c-0.19,0.2-0.35,0.41-0.49,0.64c-0.1,0.22-0.17,0.45-0.21,0.69
			c-0.07,0.16-0.12,0.32-0.16,0.49l-2.77,24.97c-0.21,1.9,1.16,3.61,3.06,3.83c0.13,0.02,0.26,0.03,0.39,0.02
			c1.77-0.01,3.25-1.33,3.45-3.09l2.52-22.74c0.29-0.09,0.62-0.19,0.97-0.28v23.67l-2.76,34.32c-0.18,2.29,1.53,4.3,3.82,4.48
			c0.11,0,0.23,0,0.34,0c2.17,0,3.97-1.67,4.15-3.83l2.5-31.02c1.07,0.47,2.29,0.47,3.35,0l2.5,31.02c0.17,2.16,1.98,3.83,4.14,3.83
			h0.34c2.29-0.18,4-2.19,3.81-4.48c0,0,0,0,0,0l-2.76-34.32V29.79l0.97,0.28l2.49,22.73c0.19,1.76,1.68,3.09,3.45,3.09
			C60.17,55.89,60.31,55.88,60.44,55.86z"/>
	</g>
</g>
</svg>
