<svg xmlns="http://www.w3.org/2000/svg" viewBox="0 0 117.84 64.17"><defs><style>.cls-1{fill:#fff;}</style></defs><g id="Capa_2" data-name="Capa 2"><g id="Capa_1-2" data-name="Capa 1"><g id="Grupo_251" data-name="Grupo 251"><path id="Trazado_360" data-name="Trazado 360" class="cls-1" d="M22,12.74c-13.56-.31-12.17,21.09-.1,21.68C33.86,33.84,35.44,12.69,22,12.74Z"/><path id="Trazado_361" data-name="Trazado 361" class="cls-1" d="M95.94,34.42c12-.58,13.48-21.75,0-21.58C82.46,12.65,83.94,33.84,95.94,34.42Z"/><path id="Trazado_362" data-name="Trazado 362" class="cls-1" d="M27.39,64.16c.87-10.87,3.51-24.85,3.29-27.88C21.87,34.37,5.1,35.17,2.49,41.79L0,64.16H8.14c1-7.67.93-17.25,1.79-19,.34-.09.69-.21,1.08-.32V64.16Z"/><path id="Trazado_363" data-name="Trazado 363" class="cls-1" d="M115.37,41.79c-1.54-6.06-19.38-7.65-28.2-5.51-.61,4.4,2.83,17.2,3.55,27.88h16.1V44.82l1.09.32,2.11,19h7.82C116.94,56,115.37,41.79,115.37,41.79Z"/><path id="Trazado_364" data-name="Trazado 364" class="cls-1" d="M58.92,0c-16.87-.22-15,26.28,0,27C73.92,26.27,75.78-.23,58.92,0Z"/><path id="Trazado_365" data-name="Trazado 365" class="cls-1" d="M83.25,36.23c-2.68-6.59-9.41-5.94-22.43-8.18l-1.24,2.47h0l3.28,25.56-3.9,6.81L55,56.08,58.3,30.54h0l-1.22-2.45c-7.11,1.6-19.22.5-22.45,8.15,0,0-2,17.68-3.09,27.93H41.7c1.25-9.61,1.19-21.56,2.24-23.73.41-.13.87-.26,1.36-.39V64.17H72.56V40l1.36.4,2.63,23.73h9.8Z"/></g></g></g></svg>