<?xml version="1.0" encoding="utf-8"?>
<!-- Generator: Adobe Illustrator 24.2.3, SVG Export Plug-In . SVG Version: 6.00 Build 0)  -->
<svg version="1.1" id="Capa_1" xmlns="http://www.w3.org/2000/svg" xmlns:xlink="http://www.w3.org/1999/xlink" x="0px" y="0px"
	 viewBox="0 0 49.7 59.4" style="enable-background:new 0 0 49.7 59.4;" xml:space="preserve">
<style type="text/css">
	.st0{fill:#FFFFFF;}
</style>
<g id="Capa_2_1_">
	<g id="Capa_1-2">
		<g id="Grupo_225">
			<path id="Trazado_343" class="st0" d="M16.6,50.5c1.4,0.1,2.6-0.8,2.7-2.2V26.4c-0.2-1.3-1.4-2.3-2.7-2.2
				c-1.3-0.1-2.6,0.8-2.7,2.2v21.9C14,49.7,15.2,50.7,16.6,50.5z"/>
			<path id="Trazado_344" class="st0" d="M24.9,50.5c1.4,0.1,2.6-0.8,2.7-2.2V26.4c-0.2-1.3-1.4-2.3-2.7-2.2
				c-1.4-0.1-2.6,0.8-2.7,2.2v21.9C22.3,49.7,23.5,50.7,24.9,50.5z"/>
			<path id="Trazado_345" class="st0" d="M33.2,50.5c1.4,0.1,2.6-0.8,2.7-2.2V26.4c-0.2-1.3-1.4-2.3-2.7-2.2
				c-1.4-0.1-2.6,0.8-2.7,2.2v21.9C30.6,49.7,31.8,50.7,33.2,50.5z"/>
			<path id="Trazado_346" class="st0" d="M47,15.4h-0.2v-3.1c-0.5-3.9-4-6.6-7.8-6.3h-1.5V5.3C37.1,2,34.2-0.3,31,0H18.8
				c-3.2-0.3-6.1,2-6.5,5.2V6h-1.5c-3.9-0.4-7.4,2.4-7.8,6.3v3.1H2.7c-1.4-0.1-2.6,0.8-2.7,2.2c0.2,1.4,1.4,2.3,2.7,2.2h0.2v33.3
				c0.5,3.9,4,6.7,7.8,6.3H39c3.9,0.4,7.4-2.4,7.8-6.3V19.8H47c1.4,0.1,2.6-0.8,2.7-2.2C49.6,16.2,48.4,15.3,47,15.4z M17.7,5.3
				c0.1-0.5,0.6-0.9,1.1-0.9H31c0.5-0.1,1,0.3,1.1,0.9V6H17.7L17.7,5.3z M8.4,12.3c0.1-1.2,1.2-2,2.4-1.9H39
				c1.2-0.1,2.3,0.7,2.4,1.9v3.1h-33L8.4,12.3z M41.4,53.1c-0.2,1.2-1.2,2-2.4,1.9H10.8c-1.2,0.1-2.3-0.7-2.4-1.9V19.8h33V53.1z"/>
		</g>
	</g>
</g>
</svg>
