<?xml version="1.0" encoding="utf-8"?>
<!-- Generator: Adobe Illustrator 24.2.3, SVG Export Plug-In . SVG Version: 6.00 Build 0)  -->
<svg version="1.1" id="Capa_1" xmlns="http://www.w3.org/2000/svg" xmlns:xlink="http://www.w3.org/1999/xlink" x="0px" y="0px"
	 viewBox="0 0 565 309.57" style="enable-background:new 0 0 565 309.57;" xml:space="preserve">
<style type="text/css">
	.st0{fill:none;stroke:#FFFFFF;stroke-width:1.0429;stroke-miterlimit:10;}
	.st1{fill:#FFFFFF;}
	.st2{fill:#FBFDFA;}
	.st3{fill:#3C3618;}
	.st4{fill:#EA5722;}
</style>
<g>
	<g>
		<g>
			<path class="st0" d="M145.37,130.18l4.12-3.73c15.2-13.76,16.37-37.23,2.61-52.43l-0.5-0.56c-13.76-15.2-37.23-16.37-52.43-2.61
				l-4.12,3.73c-15.2,13.76-16.37,37.23-2.61,52.43l0.5,0.56C106.69,142.77,130.17,143.94,145.37,130.18z"/>
		</g>
		<g>
			<path class="st1" d="M142.34,70.77c0.09-0.08,0.16-0.17,0.23-0.27c0.36-0.58,0.17-1.35-0.41-1.7
				c-9.52-5.84-21.36-6.76-31.67-2.47c-0.63,0.26-0.93,0.99-0.67,1.62c0.26,0.63,0.99,0.93,1.62,0.67
				c9.58-3.99,20.58-3.13,29.42,2.29C141.34,71.2,141.94,71.12,142.34,70.77z"/>
		</g>
		<g>
			<g>
				<path class="st1" d="M123.57,80.16l0.06-0.05c1.65-1.5,4.21-1.37,5.71,0.28l2.12,2.34c1.5,1.65,1.37,4.21-0.28,5.71l-0.06,0.05
					c-1.65,1.5-4.21,1.37-5.71-0.28l-2.12-2.34C121.79,84.21,121.91,81.66,123.57,80.16z"/>
			</g>
			<g>
				<path class="st1" d="M101.82,99.85l0.06-0.05c1.65-1.5,4.21-1.37,5.71,0.28l2.12,2.34c1.5,1.65,1.37,4.21-0.28,5.71l-0.06,0.05
					c-1.65,1.5-4.21,1.37-5.71-0.28l-2.12-2.34C100.04,103.9,100.17,101.34,101.82,99.85z"/>
			</g>
		</g>
		<g>
			<path class="st2" d="M121.65,126.61c0.54-0.49,0.76-1.27,0.51-2c-0.14-0.39-3.13-9.42,5.95-17.64
				c9.09-8.23,17.78-4.33,18.14-4.16c0.93,0.43,2.03,0.03,2.47-0.89c0.44-0.93,0.04-2.03-0.88-2.47
				c-0.45-0.22-11.24-5.18-22.23,4.77c-10.99,9.95-7.12,21.17-6.95,21.64c0.35,0.97,1.41,1.47,2.38,1.12
				C121.27,126.89,121.47,126.76,121.65,126.61z"/>
		</g>
	</g>
	<g>
		<g>
			<path class="st0" d="M81.18,257.55l1.21-5.42c4.47-20.01-8.12-39.85-28.12-44.32l-0.73-0.16c-20.01-4.47-39.85,8.12-44.32,28.12
				L8,241.18c-4.47,20.01,8.12,39.85,28.12,44.32l0.73,0.16C56.87,290.14,76.71,277.55,81.18,257.55z"/>
		</g>
		<g>
			<path class="st1" d="M44.43,210.77c0.03-0.11,0.04-0.23,0.03-0.35c-0.04-0.68-0.63-1.2-1.32-1.16
				c-11.14,0.72-21.34,6.8-27.29,16.26c-0.36,0.58-0.19,1.35,0.39,1.71c0.58,0.36,1.35,0.19,1.71-0.39
				c5.53-8.79,15-14.44,25.35-15.11C43.86,211.7,44.31,211.29,44.43,210.77z"/>
		</g>
		<g>
			<path class="st2" d="M59.63,266.25c0.16-0.71-0.11-1.48-0.74-1.92c-0.31-0.22-7-5.17-4.65-15.65
				c2.37-10.6,10.78-12.16,10.87-12.18c1.01-0.17,1.69-1.13,1.52-2.15c-0.17-1.01-1.14-1.69-2.15-1.52
				c-0.45,0.08-10.96,2.03-13.87,15.03c-2.91,13,5.77,19.25,6.14,19.51c0.84,0.59,2,0.38,2.59-0.46
				C59.49,266.71,59.58,266.48,59.63,266.25z"/>
		</g>
		<g>
			<g>
				<path class="st1" d="M48,227.85c0.14-0.63-0.05-1.31-0.56-1.78c-0.76-0.7-1.93-0.65-2.63,0.11l-5.09,5.53l-2.25-7.17
					c-0.31-0.98-1.35-1.53-2.33-1.22s-1.53,1.35-1.22,2.33l3.21,10.24c0.2,0.63,0.72,1.11,1.37,1.26c0.65,0.15,1.32-0.07,1.77-0.56
					l7.27-7.9C47.78,228.45,47.93,228.16,48,227.85z"/>
			</g>
			<g>
				<path class="st1" d="M39.72,264.86c0.07-0.31,0.06-0.64-0.04-0.96l-3.21-10.24c-0.2-0.63-0.72-1.11-1.37-1.26
					c-0.65-0.15-1.32,0.07-1.77,0.56l-7.27,7.9c-0.7,0.76-0.65,1.93,0.11,2.63c0.76,0.7,1.93,0.65,2.63-0.11l5.09-5.53l2.25,7.17
					c0.31,0.98,1.35,1.53,2.33,1.22C39.12,266.02,39.58,265.48,39.72,264.86z"/>
			</g>
		</g>
	</g>
	<g>
		<path class="st0" d="M482.07,252.25l1.38,5.38c5.11,19.85,25.35,31.8,45.2,26.69l0.73-0.19c19.85-5.11,31.8-25.35,26.69-45.2
			l-1.38-5.38c-5.11-19.85-25.35-31.8-45.2-26.69l-0.73,0.19C488.91,212.16,476.96,232.4,482.07,252.25z"/>
		<g>
			<path class="st1" d="M536.08,277.2c0.03,0.11,0.07,0.22,0.14,0.33c0.35,0.59,1.11,0.78,1.7,0.43
				c9.59-5.71,15.92-15.76,16.91-26.89c0.06-0.68-0.44-1.28-1.12-1.35c-0.68-0.06-1.28,0.44-1.35,1.12
				c-0.93,10.34-6.8,19.68-15.71,24.98C536.16,276.12,535.95,276.68,536.08,277.2z"/>
		</g>
		<g>
			<path class="st3" d="M518.04,268.57c0.46,0.06-15.87,2.15-21.47-17.18c-4.43-19.63,10.88-25.69,10.5-25.41
				C507.32,240.84,511.07,255.43,518.04,268.57z"/>
		</g>
		<g>
			<path class="st1" d="M506.7,248.78c-2.06-8.89-1.3-15.39,0.46-20.04c0.59,12.98,3.87,25.71,9.62,37.36
				C512.99,262.88,509.19,257.56,506.7,248.78z"/>
		</g>
		<g>
			<path class="st4" d="M497.12,236.73c2.72,2.93,5.11,7.47,6.5,12.84c1.38,5.38,1.47,10.5,0.51,14.39
				c-3.01-2.57-5.81-6.52-7.56-12.57C495.18,245.24,495.73,240.43,497.12,236.73z"/>
		</g>
		<g>
			<g>
				<g>
					<path class="st1" d="M525.08,254.62c0.26,0.99,1.27,1.59,2.26,1.34l1.05-0.27c1.82-0.47,3.68,0.63,4.15,2.45
						c0.49,1.92-0.6,3.78-2.42,4.25l-1.05,0.27c-0.99,0.26-1.59,1.27-1.34,2.26c0.26,0.99,1.27,1.59,2.26,1.34l1.05-0.27
						c3.8-0.98,6.1-4.87,5.12-8.68c-1.01-3.91-4.9-6.21-8.7-5.23l-1.05,0.27C525.42,252.61,524.82,253.62,525.08,254.62z"/>
				</g>
			</g>
			<g>
				<g>
					<path class="st1" d="M517.32,224.48c0.26,0.99,1.27,1.59,2.26,1.34l1.05-0.27c1.82-0.47,3.68,0.63,4.15,2.45
						c0.49,1.92-0.6,3.78-2.42,4.25l-1.05,0.27c-0.99,0.26-1.59,1.27-1.34,2.26c0.26,0.99,1.27,1.59,2.26,1.34l1.05-0.27
						c3.8-0.98,6.1-4.87,5.12-8.68c-1.01-3.91-4.9-6.21-8.7-5.23l-1.05,0.27C517.66,222.48,517.07,223.49,517.32,224.48z"/>
				</g>
			</g>
		</g>
	</g>
	<g>
		<g>
			<path class="st0" d="M277.75,79.06l5.55-0.03c20.5-0.11,37.03-16.81,36.92-37.31l0-0.75c-0.11-20.5-16.81-37.03-37.31-36.92
				l-5.55,0.03c-20.5,0.11-37.03,16.81-36.92,37.31l0,0.75C240.54,62.64,257.25,79.17,277.75,79.06z"/>
		</g>
		<g>
			<path class="st1" d="M315.13,32.78c0.12,0,0.23-0.02,0.35-0.05c0.66-0.2,1.03-0.89,0.83-1.54c-3.19-10.7-11.4-19.28-21.95-22.97
				c-0.64-0.23-1.35,0.12-1.58,0.76c-0.23,0.65,0.12,1.35,0.76,1.58c9.8,3.42,17.42,11.4,20.39,21.34
				C314.1,32.44,314.59,32.79,315.13,32.78z"/>
		</g>
		<g>
			<path class="st2" d="M263.12,57.52l34.58-0.18c1.03-0.01,1.85-0.84,1.85-1.87s-0.84-1.85-1.87-1.85L263.1,53.8
				c-1.03,0.01-1.85,0.84-1.85,1.87S262.09,57.52,263.12,57.52z"/>
		</g>
		<g>
			<g>
				<g>
					<path class="st1" d="M296.92,31.29l0.02,3.16c0.01,2.23-1.79,4.05-4.02,4.06l-0.08,0c-2.23,0.01-4.05-1.79-4.06-4.02
						l-0.02-3.16L296.92,31.29z"/>
				</g>
				<g>
					<path class="st1" d="M290.61,33.18l8.95-0.05c1.03-0.01,1.85-0.84,1.85-1.87c-0.01-1.03-0.84-1.85-1.87-1.85l-8.95,0.05
						c-1.03,0.01-1.85,0.84-1.85,1.87C288.75,32.36,289.59,33.19,290.61,33.18z"/>
				</g>
			</g>
			<g>
				<g>
					<path class="st1" d="M269.14,31.44l0.02,3.16c0.01,2.23-1.79,4.05-4.02,4.06l-0.08,0c-2.23,0.01-4.05-1.79-4.06-4.02
						l-0.02-3.16L269.14,31.44z"/>
				</g>
				<g>
					<path class="st1" d="M262.83,33.33l8.95-0.05c1.03-0.01,1.85-0.84,1.85-1.87c-0.01-1.03-0.84-1.85-1.87-1.85l-8.95,0.05
						c-1.03,0.01-1.85,0.84-1.85,1.87C260.97,32.51,261.8,33.33,262.83,33.33z"/>
				</g>
			</g>
		</g>
	</g>
	<g>
		<path class="st0" d="M433.13,140.31l3.6,4.23c13.28,15.61,36.71,17.5,52.32,4.22l0.57-0.49c15.61-13.28,17.5-36.71,4.22-52.32
			l-3.6-4.23c-13.28-15.61-36.71-17.5-52.32-4.22l-0.57,0.49C421.73,101.27,419.84,124.7,433.13,140.31z"/>
		<g>
			<path class="st1" d="M492.61,139.11c0.07,0.09,0.16,0.17,0.26,0.23c0.57,0.38,1.34,0.22,1.72-0.36
				c6.13-9.33,7.41-21.14,3.44-31.58c-0.24-0.64-0.96-0.96-1.6-0.72c-0.64,0.24-0.96,0.96-0.72,1.6c3.69,9.7,2.5,20.67-3.19,29.34
				C492.2,138.1,492.26,138.7,492.61,139.11z"/>
		</g>
		<g>
			<g>
				<g>
					<path class="st1" d="M472.83,123.62c0.67,0.78,1.84,0.88,2.62,0.21l0.83-0.7c1.43-1.22,3.59-1.04,4.8,0.39
						c1.29,1.51,1.11,3.67-0.32,4.88l-0.83,0.7c-0.78,0.67-0.88,1.84-0.21,2.62s1.84,0.88,2.62,0.21l0.83-0.7
						c2.99-2.55,3.36-7.05,0.81-10.04c-2.61-3.07-7.12-3.44-10.11-0.89l-0.83,0.7C472.26,121.67,472.17,122.84,472.83,123.62z"/>
				</g>
			</g>
			<g>
				<g>
					<path class="st1" d="M452.67,99.92c0.67,0.78,1.84,0.88,2.62,0.21l0.83-0.7c1.43-1.22,3.59-1.04,4.8,0.39
						c1.29,1.51,1.11,3.67-0.32,4.88l-0.83,0.7c-0.78,0.67-0.88,1.84-0.21,2.62c0.67,0.78,1.84,0.88,2.62,0.21l0.83-0.7
						c2.99-2.55,3.36-7.05,0.81-10.04c-2.61-3.07-7.12-3.44-10.11-0.89l-0.83,0.7C452.1,97.96,452,99.14,452.67,99.92z"/>
				</g>
			</g>
		</g>
		<g>
			<path class="st2" d="M446.02,132.99c10.78,12.67,22.45,9.66,22.94,9.53c0.99-0.27,1.57-1.29,1.3-2.28
				c-0.27-0.99-1.29-1.57-2.28-1.31c-0.43,0.11-9.97,2.43-19.14-8.35c-9.26-10.89-5.22-20.13-5.18-20.22
				c0.42-0.93,0.01-2.04-0.92-2.46c-0.93-0.43-2.04-0.01-2.46,0.92C440.08,109.28,435.24,120.32,446.02,132.99z"/>
		</g>
	</g>
</g>
</svg>
