<?xml version="1.0" encoding="utf-8"?>
<!-- Generator: Adobe Illustrator 24.2.3, SVG Export Plug-In . SVG Version: 6.00 Build 0)  -->
<svg version="1.1" id="Capa_1" xmlns="http://www.w3.org/2000/svg" xmlns:xlink="http://www.w3.org/1999/xlink" x="0px" y="0px"
	 viewBox="0 0 56.94 55.72" style="enable-background:new 0 0 56.94 55.72;" xml:space="preserve">
<style type="text/css">
	.st0{fill:#FFFFFF;}
</style>
<g id="Layer_1_1_" transform="translate(12.233 10.201)">
	<g id="Grupo_268_1_">
		<path id="Trazado_379_1_" class="st0" d="M-1.79,12.96c-2.03,0.37-8.18-1.29-8.07,2.34c0,0,0,25.74,0,25.74
			c-0.11,3.61,6.06,2.01,8.07,2.34c1.29,0,2.34-1.05,2.34-2.34V15.3C0.55,14.01-0.49,12.96-1.79,12.96z"/>
		<path id="Trazado_380_1_" class="st0" d="M11.9,19.98c-2.03,0.36-8.18-1.29-8.07,2.34c0,0,0,18.72,0,18.72
			c-0.12,3.61,6.05,2.01,8.07,2.34c1.29,0,2.34-1.05,2.34-2.34V22.32C14.24,21.03,13.2,19.98,11.9,19.98z"/>
		<path id="Trazado_381_1_" class="st0" d="M25.59,19.98c-2.03,0.36-8.18-1.29-8.07,2.34c0,0,0,18.72,0,18.72
			c-0.12,3.61,6.05,2.01,8.07,2.34c1.29,0,2.34-1.05,2.34-2.34V22.32C27.93,21.03,26.88,19.98,25.59,19.98z"/>
		<path id="Trazado_382_1_" class="st0" d="M39.28,12.96c-2.03,0.37-8.18-1.3-8.07,2.34c0,0,0,25.74,0,25.74
			c0,1.29,1.05,2.34,2.34,2.34c2.02-0.37,8.18,1.3,8.07-2.34c0,0,0-25.74,0-25.74C41.62,14.01,40.58,12.96,39.28,12.96L39.28,12.96z
			"/>
		<path id="Trazado_383_1_" class="st0" d="M16.56,6v4.21C20.06,10.12,19.89,6.22,16.56,6z"/>
		<path id="Trazado_384_1_" class="st0" d="M12.9,0.96c0,1.07,0.79,1.68,2.39,2v-3.81C13.84-0.81,12.9,0.04,12.9,0.96z"/>
		<path id="Trazado_385_1_" class="st0" d="M15.88-8.1C-0.95-8-0.94,17.55,15.88,17.64C32.71,17.55,32.71-8.01,15.88-8.1z
			 M16.56,12.38c0.38,2.73-1.66,2.72-1.28,0c-4.09,0.16-7.42-4.2-4.07-5.26c2.38,0,0.53,2.94,4.07,3.09V5.76
			c-7.07-0.55-6.18-8.86,0-8.79c-0.36-2.48,1.64-2.47,1.28,0c2.13-0.43,7.7,3.17,3.72,4.49c-1.39,0-1.37-2.28-3.72-2.32v4.04
			C23.2,3.35,23.81,12.39,16.56,12.38L16.56,12.38z"/>
	</g>
</g>
</svg>
