<svg xmlns="http://www.w3.org/2000/svg" viewBox="0 0 27.01 27.59"><defs><style>.cls-1{fill:none;}.cls-2{fill:#fff;}</style></defs><g id="Capa_2" data-name="Capa 2"><g id="Menu_navegacion" data-name="Menu navegacion"><path class="cls-1" d="M18.36,3.84l-13,5.4H21.26L19.5,4.38A.9.9,0,0,0,18.36,3.84Z"/><path class="cls-2" d="M18.36,3.84a.9.9,0,0,1,1.14.54l1.76,4.86h1.27L20.63,4a2.11,2.11,0,0,0-2.69-1.27L2.18,9.24H5.32Z"/><path class="cls-1" d="M20.65,9.55h-17A2.48,2.48,0,0,0,1.2,12V23.9a2.49,2.49,0,0,0,2.49,2.49h17a2.5,2.5,0,0,0,2.49-2.49V22.25h-.4a2.1,2.1,0,0,1-2.1-2.1v-3a2.1,2.1,0,0,1,2.1-2.1h.4V12A2.49,2.49,0,0,0,20.65,9.55Z"/><path class="cls-2" d="M23.14,22.25V23.9a2.5,2.5,0,0,1-2.49,2.49h-17A2.49,2.49,0,0,1,1.2,23.9V12A2.48,2.48,0,0,1,3.69,9.55h17A2.49,2.49,0,0,1,23.14,12v3h1.2V12a3.69,3.69,0,0,0-3.69-3.68h-17A3.69,3.69,0,0,0,0,12V23.9a3.69,3.69,0,0,0,3.69,3.69h17a3.7,3.7,0,0,0,3.69-3.69V22.25h-1.2Z"/><path class="cls-2" d="M24.31,22.85H22.74a2.7,2.7,0,0,1-2.7-2.7v-3a2.7,2.7,0,0,1,2.7-2.7h1.57a2.7,2.7,0,0,1,2.7,2.7v3A2.7,2.7,0,0,1,24.31,22.85Zm-1.57-7.19a1.5,1.5,0,0,0-1.5,1.5v3a1.5,1.5,0,0,0,1.5,1.5h1.57a1.5,1.5,0,0,0,1.5-1.5v-3a1.5,1.5,0,0,0-1.5-1.5Z"/><path class="cls-2" d="M23.21,18.76a.8.8,0,0,1-.8.8.79.79,0,0,1-.79-.8.79.79,0,0,1,.79-.79.79.79,0,0,1,.8.79"/><path class="cls-1" d="M14.14,1.34,4.87,8.53h15l-4.5-7A.9.9,0,0,0,14.14,1.34Z"/><path class="cls-2" d="M18,3.4,16.36.86l0,0A2.1,2.1,0,0,0,13.42.41L3,8.53H4.87l9.27-7.19a.9.9,0,0,1,1.23.17L16.91,3.9"/><path class="cls-2" d="M10.7,12.54a5.53,5.53,0,0,0-5.06,3.32L4.46,14A.38.38,0,0,0,4,13.9a.36.36,0,0,0-.11.5l1.58,2.47a.1.1,0,0,0,0,.05v0h0l0,0,.06,0h3a.36.36,0,0,0,0-.72H6.23a4.78,4.78,0,1,1,.87,4.9.36.36,0,1,0-.54.48,5.51,5.51,0,1,0,4.14-9.16Z"/><path class="cls-2" d="M11.46,15.2a.37.37,0,1,0-.73,0v3.34L9.22,19.83a.36.36,0,0,0,0,.51.37.37,0,0,0,.27.13.36.36,0,0,0,.24-.09L11.33,19h0l.05-.06,0-.06s0,0,0-.06a.17.17,0,0,0,0-.07V15.2Z"/></g></g></svg>