<svg xmlns="http://www.w3.org/2000/svg" viewBox="0 0 56.99 60.62"><defs><style>.cls-1{fill:#84bd56;}.cls-2{fill:#fff;}</style></defs><g id="Capa_2" data-name="Capa 2"><g id="Capa_1-2" data-name="Capa 1"><g id="Grupo_198" data-name="Grupo 198"><g id="boton_perfil" data-name="boton perfil"><path class="cls-1" d="M49,50.41a5.83,5.83,0,0,1-5.83-5.82V38.15A5.83,5.83,0,0,1,49,32.33h3.43V27.1a7.94,7.94,0,0,0-4.74-7.26L44.05,9.74A4.52,4.52,0,0,0,38.26,7l-.57.23L34.43,1.91l0-.08A4.25,4.25,0,0,0,28.27.9l-23,18.73A7.94,7.94,0,0,0,0,27.1V52.67a8,8,0,0,0,7.94,7.95H44.49a8,8,0,0,0,7.95-7.95V50.41H49Zm-9.85-41a2,2,0,0,1,2.46,1.18l3.09,8.55h-29ZM29.77,3a1.82,1.82,0,0,1,2.59.37l3,4.9L10.83,18.38Z"/><path class="cls-1" d="M52.79,34.06H49.66a4.19,4.19,0,0,0-4.19,4.19v6a4.2,4.2,0,0,0,4.19,4.2h3.13a4.2,4.2,0,0,0,4.2-4.2v-6A4.19,4.19,0,0,0,52.79,34.06ZM49,43a1.59,1.59,0,1,1,1.58-1.59A1.59,1.59,0,0,1,49,43Z"/></g><g id="Grupo_197" data-name="Grupo 197"><path id="Trazado_290" data-name="Trazado 290" class="cls-2" d="M34.25,45.09,30.48,50a4,4,0,0,1-3.17,1.56h-7a1,1,0,1,1,0-2h6.07a2.37,2.37,0,0,0,2.37-2.35v0A2.33,2.33,0,0,0,26.42,45h-7a5.78,5.78,0,0,0-7.36-.54l-.75.54V56.24H28.67a6,6,0,0,0,5-2.74l3.89-6a2,2,0,0,0-3.34-2.35Z"/><path id="Trazado_291" data-name="Trazado 291" class="cls-2" d="M8.35,43H4.9a1,1,0,0,0-1,1V57.24a1,1,0,0,0,1,1H8.35a1,1,0,0,0,1-1V44a1,1,0,0,0-1-1Z"/><path id="Trazado_292" data-name="Trazado 292" class="cls-2" d="M22.92,29.73a1,1,0,0,0-.35.6.67.67,0,0,0,.17.66l.18.13Z"/><path id="Trazado_293" data-name="Trazado 293" class="cls-2" d="M23.63,40.83a8.31,8.31,0,1,0-8.3-8.3A8.31,8.31,0,0,0,23.63,40.83Zm-2.52-5.59a.67.67,0,0,1,.92-.19,1.93,1.93,0,0,0,.88.38V32.62a4.74,4.74,0,0,1-1-.58,2,2,0,0,1-.66-2,2.23,2.23,0,0,1,1.54-1.75l.12,0v-.41a.67.67,0,0,1,1.33,0v.34a2.33,2.33,0,0,1,1.32.69.66.66,0,1,1-1,.87h0a.94.94,0,0,0-.32-.19v2.14l.35.13a2.38,2.38,0,0,1,1.62,2.69,2.7,2.7,0,0,1-2,2.15v.47a.67.67,0,1,1-1.33,0h0v-.41a3.23,3.23,0,0,1-1.61-.6.67.67,0,0,1-.18-.92Z"/><path id="Trazado_294" data-name="Trazado 294" class="cls-2" d="M24.91,34.33a1,1,0,0,0-.66-1.18v2.13A1.36,1.36,0,0,0,24.91,34.33Z"/></g></g></g></g></svg>