<?xml version="1.0" encoding="utf-8"?>
<!-- Generator: Adobe Illustrator 24.2.3, SVG Export Plug-In . SVG Version: 6.00 Build 0)  -->
<svg version="1.1" id="Capa_1" xmlns="http://www.w3.org/2000/svg" xmlns:xlink="http://www.w3.org/1999/xlink" x="0px" y="0px"
	 viewBox="0 0 33.34 34.83" style="enable-background:new 0 0 33.34 34.83;" xml:space="preserve">
<style type="text/css">
	.st0{fill:#1099D7;}
	.st1{fill:#FFFFFF;}
</style>
<g>
	<g id="boton_perfil_17_" transform="translate(1861.107 41.946)">
		<g>
			<g>
				<g>
					<path class="st0" d="M-1833.13-13.78c-1.75,0-3.18-1.43-3.18-3.18v-3.51c0-1.75,1.43-3.18,3.18-3.18h1.84c0.01,0,0.02,0,0.03,0
						v-2.86c0-1.77-1.07-3.29-2.59-3.97l-1.99-5.51c-0.46-1.28-1.88-1.95-3.16-1.49l-0.31,0.13l-1.78-2.92l-0.03-0.04
						c-0.78-1.1-2.27-1.33-3.34-0.51l-12.56,10.23c-1.68,0.6-2.88,2.2-2.88,4.08v13.97c0,2.39,1.95,4.34,4.34,4.34h19.96
						c2.39,0,4.34-1.95,4.34-4.34v-1.24c-0.01,0-0.02,0-0.03,0H-1833.13z M-1838.51-36.15c0.55-0.19,1.15,0.1,1.34,0.64l1.69,4.67
						c-0.04,0-0.08-0.01-0.12-0.01h-15.72L-1838.51-36.15z M-1843.64-39.7c0.45-0.34,1.08-0.25,1.41,0.21l1.63,2.67l-13.39,5.55
						L-1843.64-39.7z"/>
					<path class="st0" d="M-1831.07-22.71h-1.71c-1.27,0-2.29,1.03-2.29,2.29v3.25c0,1.27,1.03,2.29,2.29,2.29h1.71
						c1.27,0,2.29-1.03,2.29-2.29v-3.25C-1828.77-21.68-1829.8-22.71-1831.07-22.71z M-1833.13-17.81c-0.48,0-0.87-0.39-0.87-0.87
						c0-0.48,0.39-0.87,0.87-0.87s0.87,0.39,0.87,0.87C-1832.27-18.2-1832.65-17.81-1833.13-17.81z"/>
				</g>
			</g>
		</g>
	</g>
	<path id="Trazado_279_3_" class="st1" d="M22.37,20.52l-8.01-6c-0.41-0.31-0.98-0.31-1.39,0l-3.24,2.42v-0.59
		c0-0.64-0.52-1.16-1.16-1.16h0H7.51c-0.64,0-1.16,0.52-1.16,1.16v3.12l-1.47,1.1c-0.51,0.38-0.62,1.11-0.23,1.62
		c0.22,0.29,0.56,0.46,0.93,0.46h0.78v6.13c0,0.64,0.52,1.16,1.15,1.16c0,0,0,0,0,0h12.31c0.64,0,1.16-0.52,1.16-1.15c0,0,0,0,0,0
		v-6.13h0.79c0.64,0,1.16-0.52,1.16-1.16C22.92,21.1,22.71,20.72,22.37,20.52L22.37,20.52z M16.6,24.54
		c0.02,1.25-0.98,2.27-2.22,2.29v0.53c0,0.39-0.32,0.71-0.71,0.71c-0.39,0-0.71-0.32-0.71-0.71v-0.59c-0.69-0.13-1.34-0.4-1.91-0.8
		c-0.2-0.15-0.31-0.38-0.31-0.62c0-0.42,0.34-0.76,0.76-0.76c0,0,0.01,0,0.01,0c0.17,0,0.33,0.05,0.47,0.15
		c0.55,0.43,1.22,0.67,1.92,0.67c0.67,0,1.08-0.27,1.08-0.71v-0.02c0-0.42-0.26-0.63-1.51-0.95c-1.51-0.38-2.48-0.8-2.48-2.29v-0.02
		c0-1.13,0.86-2.07,1.98-2.19v-0.56c0-0.39,0.32-0.71,0.71-0.71c0.39,0,0.71,0.32,0.71,0.71v0.56c0.57,0.09,1.11,0.29,1.59,0.6
		c0.23,0.14,0.37,0.38,0.37,0.65c0,0.42-0.34,0.76-0.76,0.76c0,0-0.01,0-0.01,0c-0.15,0-0.29-0.04-0.42-0.12
		c-0.47-0.31-1.01-0.48-1.58-0.5c-0.63,0-0.96,0.29-0.96,0.65v0.02c0,0.49,0.32,0.65,1.62,0.98c1.52,0.4,2.38,0.94,2.38,2.25
		L16.6,24.54L16.6,24.54z"/>
</g>
</svg>
