<?xml version="1.0" encoding="utf-8"?>
<!-- Generator: Adobe Illustrator 24.2.3, SVG Export Plug-In . SVG Version: 6.00 Build 0)  -->
<svg version="1.1" id="Capa_1" xmlns="http://www.w3.org/2000/svg" xmlns:xlink="http://www.w3.org/1999/xlink" x="0px" y="0px"
	 viewBox="0 0 75.85 77.77" style="enable-background:new 0 0 75.85 77.77;" xml:space="preserve">
<style type="text/css">
	.st0{fill:#FFFFFF;}
</style>
<g id="Grupo_19" transform="translate(33.421 17)">
	<g id="Grupo_18">
		<g id="Grupo_17">
			<path id="Trazado_40" class="st0" d="M21.29-14.23c-16.61,1.27-51.53-7.93-52,18.68c1.44,16.59-8.25,52.39,18.19,53.34
				C4.1,56.51,39.01,65.71,39.49,39.1C38.04,22.51,47.73-13.29,21.29-14.23z M35.47,4.11L35.33,20.2L6.65,19.96L6.9-9.31
				C17.78-9.18,35.27-11.78,35.47,4.11L35.47,4.11z M-13.28-9.48L2.4-9.35L2.15,19.92l-28.69-0.24C-26.37,8.93-29.1-9.29-13.28-9.48
				L-13.28-9.48z M-26.71,40.37l0.13-15.71L2.11,24.9L1.86,53.79C-9.02,53.66-26.51,56.26-26.71,40.37z M21.8,53.96L6.36,53.83
				L6.6,24.93l28.25,0.24C34.7,35.8,37.37,53.65,21.8,53.96z"/>
			
				<rect id="Rectángulo_15" x="-12.08" y="0.87" transform="matrix(7.999744e-03 -1 1 7.999744e-03 -16.9768 -3.8439)" class="st0" width="3.32" height="11.54"/>
			<path id="Trazado_41" class="st0" d="M-9.08,35.68l0.06-6.9l-3.03-0.03l-0.06,6.9l-6.45-0.05l-0.03,2.98l6.45,0.05l-0.06,6.96
				l3.03,0.03l0.06-6.96l6.45,0.05l0.03-2.98L-9.08,35.68z"/>
			<path id="Trazado_42" class="st0" d="M12.37,11.69l2.12,2.21l4.84-4.88l4.52,4.72l2.07-2.09l-4.52-4.72l4.8-4.84l-2.12-2.21
				l-4.8,4.84L14.76,0l-2.07,2.09l4.52,4.72L12.37,11.69z"/>
			
				<rect id="Rectángulo_16" x="17.56" y="28.37" transform="matrix(7.999744e-03 -1 1 7.999744e-03 -15.1853 52.8814)" class="st0" width="3" height="11.46"/>
			
				<rect id="Rectángulo_17" x="17.5" y="35.05" transform="matrix(7.999744e-03 -1 1 7.999744e-03 -21.9206 59.45)" class="st0" width="3" height="11.46"/>
		</g>
	</g>
</g>
</svg>
