<?xml version="1.0" encoding="utf-8"?>
<!-- Generator: Adobe Illustrator 24.2.3, SVG Export Plug-In . SVG Version: 6.00 Build 0)  -->
<svg version="1.1" id="Capa_1" xmlns="http://www.w3.org/2000/svg" xmlns:xlink="http://www.w3.org/1999/xlink" x="0px" y="0px"
	 viewBox="0 0 87.22 92.83" style="enable-background:new 0 0 87.22 92.83;" xml:space="preserve">
<style type="text/css">
	.st0{fill:#139AD7;}
	.st1{fill:#FFFFFF;}
</style>
<g>
	<g id="boton_perfil_30_" transform="translate(1861.107 41.946)">
		<g>
			<g>
				<path class="st0" d="M-1787.12,33.88c-4.75,0-8.62-3.87-8.62-8.62v-9.52c0-4.75,3.87-8.62,8.62-8.62h5c0.03,0,0.05,0,0.08,0
					v-7.74c0-4.79-2.89-8.92-7.01-10.74l-5.39-14.93c-1.25-3.47-5.1-5.28-8.57-4.02l-0.84,0.35l-4.82-7.91l-0.07-0.11
					c-2.11-2.97-6.15-3.6-9.05-1.38l-34.01,27.7c-4.54,1.63-7.8,5.96-7.8,11.05v37.83c0,6.48,5.27,11.75,11.75,11.75h54.07
					c6.48,0,11.75-5.27,11.75-11.75v-3.35c-0.03,0-0.05,0-0.08,0H-1787.12z M-1801.68-26.73c1.48-0.51,3.11,0.26,3.64,1.74
					l4.56,12.64c-0.11,0-0.21-0.02-0.31-0.02h-42.57L-1801.68-26.73z M-1815.57-36.32c1.21-0.93,2.92-0.67,3.83,0.56l4.41,7.24
					l-36.26,15.02L-1815.57-36.32z"/>
				<path class="st0" d="M-1781.52,9.68h-4.63c-3.43,0-6.21,2.78-6.21,6.21v8.81c0,3.43,2.78,6.21,6.21,6.21h4.63
					c3.43,0,6.21-2.78,6.21-6.21v-8.81C-1775.31,12.46-1778.09,9.68-1781.52,9.68z M-1787.12,22.95c-1.3,0-2.35-1.05-2.35-2.35
					c0-1.3,1.05-2.35,2.35-2.35s2.35,1.05,2.35,2.35C-1784.77,21.9-1785.82,22.95-1787.12,22.95z"/>
			</g>
		</g>
	</g>
	<g id="Grupo_191_4_">
		<g id="Grupo_190_4_">
			<path id="Trazado_282_4_" class="st1" d="M21,50.89c2.28-0.36,3.94-2.34,3.89-4.64c0.06-2.15-1.64-3.94-3.79-4
				c-2.15-0.06-3.94,1.64-4,3.79c0,0.07,0,0.14,0,0.21C17.06,48.55,18.73,50.53,21,50.89z"/>
			<path id="Trazado_283_4_" class="st1" d="M50.29,50.89c2.28-0.35,3.94-2.34,3.89-4.64c0-2.15-1.75-3.89-3.9-3.89
				c-2.15,0-3.89,1.74-3.89,3.89C46.35,48.55,48.01,50.53,50.29,50.89z"/>
			<path id="Trazado_284_4_" class="st1" d="M23.69,67.86c-0.58-0.72-0.84-1.63-0.74-2.55l1.52-13.68c-1.14-0.26-2.3-0.4-3.47-0.42
				c-2.24,0.1-4.46,0.54-6.57,1.29l-0.07,0.02l-0.04,0.01c-0.03,0.01-0.05,0.04-0.08,0.05c-0.15,0.06-0.28,0.14-0.41,0.25
				c-0.05,0.05-0.1,0.11-0.14,0.17c-0.08,0.09-0.15,0.18-0.21,0.29c-0.04,0.1-0.07,0.2-0.09,0.3c-0.03,0.07-0.05,0.15-0.07,0.22
				l-1.23,11.09c-0.09,0.84,0.51,1.6,1.35,1.7c0.06,0,0.12,0,0.17,0c0.78,0,1.44-0.59,1.53-1.37l1.12-10.1L16.69,55v10.51
				l-1.23,15.24c-0.08,1.02,0.68,1.91,1.69,1.99c0,0,0,0,0,0c0.05,0,0.1,0,0.15,0c0.96,0,1.76-0.74,1.84-1.7l1.11-13.78
				c0.23,0.1,0.49,0.16,0.74,0.16c0.26,0,0.51-0.05,0.74-0.16l1.11,13.78c0.08,0.96,0.88,1.7,1.84,1.7h0.15
				c1.02-0.08,1.78-0.97,1.7-1.99c0,0,0,0,0,0l-0.94-11.71C24.84,68.88,24.17,68.46,23.69,67.86z"/>
			<path id="Trazado_285_4_" class="st1" d="M57.98,53.81c0-0.08-0.05-0.14-0.07-0.21c-0.02-0.11-0.06-0.22-0.1-0.32
				c-0.05-0.08-0.11-0.16-0.17-0.24c-0.06-0.08-0.12-0.16-0.19-0.22c-0.09-0.07-0.19-0.13-0.29-0.18c-0.06-0.04-0.12-0.08-0.18-0.11
				c-2.15-0.77-4.4-1.21-6.68-1.32c-1.17,0.02-2.33,0.17-3.47,0.43l1.52,13.68c0.1,0.91-0.16,1.83-0.74,2.55
				c-0.48,0.6-1.15,1.02-1.9,1.19l-0.94,11.71c-0.08,1.02,0.68,1.91,1.69,1.99c0.05,0,0.1,0,0.15,0c0.96,0,1.76-0.74,1.84-1.7
				l1.11-13.77c0.47,0.21,1.02,0.21,1.49,0l1.11,13.77c0.08,0.96,0.88,1.7,1.84,1.7c0.05,0,0.1,0,0.15,0
				c1.02-0.08,1.78-0.97,1.7-1.99c0,0,0,0,0,0l-1.23-15.24V55.01c0.15,0.04,0.3,0.09,0.43,0.12l1.12,10.1
				c0.09,0.78,0.74,1.37,1.53,1.37c0.06,0,0.11,0,0.17,0c0.84-0.1,1.45-0.86,1.35-1.7L57.98,53.81z"/>
			<path id="Trazado_286_4_" class="st1" d="M35.65,47.95c2.85-0.45,4.93-2.93,4.87-5.81c0-2.69-2.19-4.87-4.88-4.87
				c-2.69,0-4.87,2.18-4.87,4.87C30.72,45.03,32.8,47.51,35.65,47.95z"/>
			<path id="Trazado_287_4_" class="st1" d="M45.11,67.61c1.06-0.12,1.82-1.07,1.7-2.13L45.27,51.6c-0.02-0.09-0.05-0.18-0.09-0.27
				c-0.03-0.14-0.07-0.27-0.13-0.4c-0.06-0.11-0.13-0.2-0.22-0.3c-0.07-0.1-0.15-0.19-0.24-0.27c-0.11-0.09-0.23-0.16-0.36-0.22
				c-0.07-0.05-0.15-0.1-0.23-0.14c-2.46-0.86-5.02-1.41-7.62-1.62l-0.49,0.98h-0.01l1.3,10.11l-1.54,2.69l-1.54-2.69l1.3-10.11l0,0
				l-0.48-0.97c-2.55,0.21-5.06,0.74-7.48,1.57L27.35,50l-0.05,0.02c-0.04,0.01-0.06,0.05-0.1,0.06c-0.19,0.08-0.36,0.18-0.51,0.31
				c-0.06,0.07-0.12,0.14-0.18,0.21c-0.1,0.11-0.19,0.23-0.27,0.36c-0.05,0.12-0.09,0.25-0.12,0.38c-0.04,0.09-0.07,0.18-0.09,0.27
				l-1.54,13.88c-0.12,1.06,0.64,2.01,1.7,2.13c0.07,0.01,0.14,0.01,0.22,0.01c0.98,0,1.8-0.74,1.91-1.72l1.4-12.63
				c0.16-0.05,0.34-0.1,0.54-0.16v13.15l-1.54,19.07c-0.1,1.27,0.85,2.39,2.12,2.49c0.06,0,0.13,0,0.19,0c1.21,0,2.21-0.93,2.3-2.13
				l1.39-17.24c0.59,0.26,1.27,0.26,1.86,0l1.39,17.24c0.1,1.2,1.1,2.13,2.3,2.13h0.19c1.27-0.1,2.22-1.22,2.12-2.49c0,0,0,0,0,0
				l-1.54-19.07V53.12l0.54,0.16l1.38,12.63c0.11,0.98,0.93,1.72,1.91,1.72C44.96,67.62,45.04,67.62,45.11,67.61z"/>
		</g>
	</g>
</g>
</svg>
