<?xml version="1.0" encoding="utf-8"?>
<!-- Generator: Adobe Illustrator 24.2.3, SVG Export Plug-In . SVG Version: 6.00 Build 0)  -->
<svg version="1.1" id="Capa_1" xmlns="http://www.w3.org/2000/svg" xmlns:xlink="http://www.w3.org/1999/xlink" x="0px" y="0px"
	 viewBox="0 0 130.74 72.66" style="enable-background:new 0 0 130.74 72.66;" xml:space="preserve">
<style type="text/css">
	.st0{fill:#FFFFFF;}
</style>
<g>
	<path id="Trazado_360-2_3_" class="st0" d="M25.58,15.41c-14.52-0.33-13.04,22.58-0.11,23.22C38.26,38,39.95,15.36,25.58,15.41z"/>
	<path id="Trazado_361-2_3_" class="st0" d="M104.74,38.63c12.84-0.63,14.43-23.3,0-23.11C90.31,15.31,91.9,38,104.74,38.63z"/>
	<path id="Trazado_362-2_3_" class="st0" d="M31.34,70.48c0.93-11.64,3.76-26.62,3.52-29.86c-9.44-2.05-27.39-1.19-30.19,5.9
		c0,0-1.69,15.19-2.66,23.96h8.72c1.07-8.22,1-18.48,1.92-20.36c0.36-0.1,0.74-0.22,1.16-0.34v20.7L31.34,70.48z"/>
	<path id="Trazado_363-2_3_" class="st0" d="M125.56,46.52c-1.65-6.49-20.76-8.2-30.2-5.9c-0.66,4.71,3.03,18.41,3.8,29.85h17.24
		V49.77c0.42,0.11,0.8,0.23,1.16,0.34l2.27,20.37h8.37C127.23,61.72,125.56,46.52,125.56,46.52z"/>
	<path id="Trazado_364-2_3_" class="st0" d="M65.1,1.77C47.03,1.52,49.04,29.9,65.11,30.68C81.16,29.9,83.15,1.52,65.1,1.77z"/>
	<path id="Trazado_365-2_3_" class="st0" d="M91.15,40.56c-2.87-7.05-10.08-6.36-24.02-8.76l-1.33,2.65h-0.04l3.51,27.38l-4.18,7.29
		l-4.18-7.28l3.51-27.36H64.4l-1.3-2.62c-7.62,1.71-20.58,0.53-24.04,8.72c0,0-2.1,18.93-3.31,29.91h10.91
		c1.34-10.29,1.28-23.08,2.41-25.41c0.44-0.14,0.93-0.28,1.45-0.42v25.83h29.2V44.64c0.52,0.15,1.01,0.29,1.45,0.42l2.82,25.41
		h10.49L91.15,40.56z"/>
</g>
</svg>
