<svg xmlns="http://www.w3.org/2000/svg" viewBox="0 0 56.99 60.62"><defs><style>.cls-1{fill:#84bd56;}.cls-2{fill:#fff;}</style></defs><g id="Capa_2" data-name="Capa 2"><g id="Capa_1-2" data-name="Capa 1"><g id="boton_perfil" data-name="boton perfil"><path class="cls-1" d="M49,50.41a5.83,5.83,0,0,1-5.83-5.82V38.15A5.83,5.83,0,0,1,49,32.33h3.43V27.1a7.94,7.94,0,0,0-4.74-7.26L44.05,9.74A4.52,4.52,0,0,0,38.26,7l-.57.23L34.43,1.91l0-.08A4.25,4.25,0,0,0,28.27.9l-23,18.73A7.94,7.94,0,0,0,0,27.1V52.67a8,8,0,0,0,7.94,7.95H44.49a8,8,0,0,0,7.95-7.95V50.41H49Zm-9.85-41a2,2,0,0,1,2.46,1.18l3.09,8.55h-29ZM29.77,3a1.82,1.82,0,0,1,2.59.37l3,4.9L10.83,18.38Z"/><path class="cls-1" d="M52.79,34.06H49.66a4.19,4.19,0,0,0-4.19,4.19v6a4.2,4.2,0,0,0,4.19,4.2h3.13a4.2,4.2,0,0,0,4.2-4.2v-6A4.19,4.19,0,0,0,52.79,34.06ZM49,43a1.59,1.59,0,1,1,1.58-1.59A1.59,1.59,0,0,1,49,43Z"/></g><g id="Grupo_204" data-name="Grupo 204"><path id="Trazado_300" data-name="Trazado 300" class="cls-2" d="M15.12,31H10.53a.77.77,0,0,0,0,1.54h4.59a.77.77,0,0,0,.77-.77A.78.78,0,0,0,15.12,31Z"/><path id="Trazado_301" data-name="Trazado 301" class="cls-2" d="M15.12,34.07H10.53a.77.77,0,0,0-.77.76.78.78,0,0,0,.77.78h4.59a.77.77,0,0,0,0-1.54Z"/><path id="Trazado_302" data-name="Trazado 302" class="cls-2" d="M15.12,37.14H10.53a.77.77,0,0,0,0,1.54h4.59a.76.76,0,0,0,.77-.76.77.77,0,0,0-.76-.78Z"/><path id="Trazado_303" data-name="Trazado 303" class="cls-2" d="M15.12,40.22H10.53a.77.77,0,0,0,0,1.54h4.59a.77.77,0,1,0,0-1.54Z"/><path id="Trazado_304" data-name="Trazado 304" class="cls-2" d="M15.12,43.35H10.53a.77.77,0,0,0-.77.76.78.78,0,0,0,.77.78h4.59a.77.77,0,0,0,0-1.54Z"/><path id="Trazado_305" data-name="Trazado 305" class="cls-2" d="M17.7,32.53h4.59a.77.77,0,0,0,.77-.77.78.78,0,0,0-.77-.77H17.7a.77.77,0,0,0,0,1.54Z"/><path id="Trazado_306" data-name="Trazado 306" class="cls-2" d="M17.7,35.61h4.59a.77.77,0,0,0,0-1.54H17.7a.77.77,0,0,0-.77.76.78.78,0,0,0,.77.78Z"/><path id="Trazado_307" data-name="Trazado 307" class="cls-2" d="M25.31,40.44a1.56,1.56,0,0,0-1.56-1.56H19.28a1.56,1.56,0,1,0,0,3.11h4.48a1.55,1.55,0,0,0,1.56-1.55Z"/><path id="Trazado_308" data-name="Trazado 308" class="cls-2" d="M25.31,45a1.55,1.55,0,0,0-1.56-1.55H19.28a1.56,1.56,0,0,0,0,3.11h4.47A1.56,1.56,0,0,0,25.31,45Z"/><path id="Trazado_309" data-name="Trazado 309" class="cls-2" d="M35,53.23l-6.5-6.5a8,8,0,1,0-3,3L32,56.24a2.13,2.13,0,1,0,3-3Zm-9.41-6.39a5.79,5.79,0,1,1,0-8.2h0a5.79,5.79,0,0,1,0,8.19Z"/><g id="Grupo_203" data-name="Grupo 203"><path id="Trazado_310" data-name="Trazado 310" class="cls-2" d="M14.24,48.4H9.7a1.57,1.57,0,0,1-1.56-1.56V29A1.58,1.58,0,0,1,9.7,27.47H23.14A1.56,1.56,0,0,1,24.69,29v5.29a3.81,3.81,0,0,1,1.54.78V29a3.09,3.09,0,0,0-3.09-3.09H9.7A3.09,3.09,0,0,0,6.6,29V46.84a3.11,3.11,0,0,0,3.1,3.1h6.14A7.78,7.78,0,0,1,14.24,48.4Z"/></g></g></g></g></svg>