<svg xmlns="http://www.w3.org/2000/svg" viewBox="0 0 56.99 60.62"><defs><style>.cls-1{fill:#84bd56;}.cls-2{fill:#fff;}</style></defs><g id="Capa_2" data-name="Capa 2"><g id="Capa_1-2" data-name="Capa 1"><g id="boton_perfil" data-name="boton perfil"><path class="cls-1" d="M49,50.41a5.83,5.83,0,0,1-5.83-5.82V38.15A5.83,5.83,0,0,1,49,32.33h3.43V27.1a7.94,7.94,0,0,0-4.74-7.26L44.05,9.74A4.52,4.52,0,0,0,38.26,7l-.57.23L34.43,1.91l0-.08A4.25,4.25,0,0,0,28.27.9l-23,18.73A7.94,7.94,0,0,0,0,27.1V52.67a8,8,0,0,0,7.94,7.95H44.49a8,8,0,0,0,7.95-7.95V50.41H49Zm-9.85-41a2,2,0,0,1,2.46,1.18l3.09,8.55h-29ZM29.77,3a1.82,1.82,0,0,1,2.59.37l3,4.9L10.83,18.38Z"/><path class="cls-1" d="M52.79,34.06H49.66a4.19,4.19,0,0,0-4.19,4.19v6a4.2,4.2,0,0,0,4.19,4.2h3.13a4.2,4.2,0,0,0,4.2-4.2v-6A4.19,4.19,0,0,0,52.79,34.06ZM49,43a1.59,1.59,0,1,1,1.58-1.59A1.59,1.59,0,0,1,49,43Z"/></g><g id="Grupo_191" data-name="Grupo 191"><g id="Grupo_190" data-name="Grupo 190"><path id="Trazado_282" data-name="Trazado 282" class="cls-2" d="M13.19,33.56a3.12,3.12,0,0,0,2.63-3.14,2.64,2.64,0,0,0-5.27-.14v.14A3.13,3.13,0,0,0,13.19,33.56Z"/><path id="Trazado_283" data-name="Trazado 283" class="cls-2" d="M33,33.56a3.13,3.13,0,0,0,2.64-3.14,2.64,2.64,0,0,0-5.27,0A3.12,3.12,0,0,0,33,33.56Z"/><path id="Trazado_284" data-name="Trazado 284" class="cls-2" d="M15,45a2.34,2.34,0,0,1-.5-1.72l1-9.26a11.51,11.51,0,0,0-2.34-.28,15.34,15.34,0,0,0-4.45.87H8.67l-.06,0a1,1,0,0,0-.27.17.52.52,0,0,0-.1.11,1.33,1.33,0,0,0-.14.19.83.83,0,0,0-.06.21.88.88,0,0,0,0,.15L7.16,43a1,1,0,0,0,.91,1.15h.12a1,1,0,0,0,1-.92L10,36.42l.29-.08v7.1l-.83,10.3a1.25,1.25,0,0,0,1.14,1.35h.11a1.24,1.24,0,0,0,1.24-1.15l.75-9.31a1.45,1.45,0,0,0,.5.11,1.26,1.26,0,0,0,.51-.11l.75,9.31a1.24,1.24,0,0,0,1.24,1.15h.1a1.26,1.26,0,0,0,1.15-1.34h0l-.64-7.91A2.31,2.31,0,0,1,15,45Z"/><path id="Trazado_285" data-name="Trazado 285" class="cls-2" d="M38.19,35.53c0-.05,0-.1,0-.15a1.72,1.72,0,0,0-.07-.21A.91.91,0,0,0,38,35l-.13-.15a.82.82,0,0,0-.2-.12l-.12-.08A15.9,15.9,0,0,0,33,33.77a11,11,0,0,0-2.35.29l1,9.25a2.34,2.34,0,0,1-.5,1.72,2.29,2.29,0,0,1-1.28.8l-.64,7.92a1.25,1.25,0,0,0,1.15,1.34h.1a1.24,1.24,0,0,0,1.24-1.15l.75-9.31a1.19,1.19,0,0,0,1,0l.75,9.31a1.24,1.24,0,0,0,1.24,1.15h.1a1.25,1.25,0,0,0,1.15-1.34h0l-.83-10.31v-7.1l.29.09L37,43.25a1,1,0,0,0,1,.93h.12A1,1,0,0,0,39,43Z"/><path id="Trazado_286" data-name="Trazado 286" class="cls-2" d="M23.09,31.57a3.9,3.9,0,0,0,3.29-3.93,3.3,3.3,0,0,0-6.59,0A3.9,3.9,0,0,0,23.09,31.57Z"/><path id="Trazado_287" data-name="Trazado 287" class="cls-2" d="M29.48,44.86a1.3,1.3,0,0,0,1.15-1.44l-1-9.38a.64.64,0,0,0-.06-.18.77.77,0,0,0-.08-.27,1,1,0,0,0-.15-.2,1.46,1.46,0,0,0-.16-.19l-.24-.15L28.74,33a21,21,0,0,0-5.15-1.1l-.33.66h0l.88,6.84-1,1.82L22,39.36l.88-6.84h0l-.32-.65a20.72,20.72,0,0,0-5.06,1.06l-.07,0h0l-.07,0a1.2,1.2,0,0,0-.34.21.53.53,0,0,0-.12.14l-.19.24a2.58,2.58,0,0,0-.08.26l-.06.19-1,9.38a1.3,1.3,0,0,0,1.15,1.43h.15a1.3,1.3,0,0,0,1.29-1.16l.95-8.54.37-.11V44l-1,12.89a1.56,1.56,0,0,0,1.43,1.68H20a1.57,1.57,0,0,0,1.56-1.44l.93-11.65a1.54,1.54,0,0,0,1.26,0l.94,11.65a1.56,1.56,0,0,0,1.56,1.44h.12a1.57,1.57,0,0,0,1.44-1.68h0L26.74,44v-8.9l.36.11L28,43.71a1.3,1.3,0,0,0,1.29,1.16Z"/></g></g></g></g></svg>