<?xml version="1.0" encoding="utf-8"?>
<!-- Generator: Adobe Illustrator 24.2.3, SVG Export Plug-In . SVG Version: 6.00 Build 0)  -->
<svg version="1.1" id="Capa_1" xmlns="http://www.w3.org/2000/svg" xmlns:xlink="http://www.w3.org/1999/xlink" x="0px" y="0px"
	 viewBox="0 0 61.53 57.77" style="enable-background:new 0 0 61.53 57.77;" xml:space="preserve">
<style type="text/css">
	.st0{fill:#FFFFFF;}
</style>
<g id="direccion" transform="translate(9.408 9.615)">
	<g id="Grupo_263">
		<rect id="Rectángulo_81" x="36.1" y="30.35" class="st0" width="3.42" height="8.76"/>
		<path id="Elipse_33" class="st0" d="M37.81,25.29c2.6-0.04,2.6,4.05,0,4.01C35.2,29.34,35.2,25.25,37.81,25.29z"/>
		<path id="Trazado_374" class="st0" d="M37.7,19.4c-3.62,0-7.08,1.51-9.54,4.16c-0.48-0.02-3.34-2.59-3.75-2.91l-5.3,5.27
			l-5.31-5.27l-3.08,2.6c-1.91,1.13-7.74,2.83-8.77,4.97c0,0-10.64,15.27-10.64,15.27l39.34,0.02C50.31,54.41,60.13,20.85,37.7,19.4
			z M37.7,41.7c-11.95,0.16-11.95-18.59,0-18.43C49.65,23.12,49.65,41.87,37.7,41.7z"/>
		<path id="Trazado_375" class="st0" d="M19.08,21.28L19.08,21.28h0.07c13.65,1.67,18.39-30.41,0.01-29.2h-0.09
			C0.69-9.13,5.42,22.96,19.08,21.28z"/>
	</g>
</g>
</svg>
