<svg xmlns="http://www.w3.org/2000/svg" viewBox="0 0 443.83 96.67"><defs><style>.cls-1{fill:#233976;}.cls-2{fill:#119ad7;}.cls-3{fill:#268849;}.cls-4{fill:#bdd57b;}.cls-5{fill:#298949;}.cls-6{fill:#a4c961;}.cls-7{fill:#84bd56;}.cls-8{fill:#7aba5b;}.cls-9{fill:#fff;}</style></defs><g id="Capa_2" data-name="Capa 2"><g id="Menu_navegacion" data-name="Menu navegacion"><path class="cls-1" d="M143.54,32.26A4.23,4.23,0,0,0,139.29,28H112.15a4.25,4.25,0,1,0,0,8.5h9.36V77.35a4.25,4.25,0,1,0,8.5,0V36.51h9.28a4.23,4.23,0,0,0,4.25-4.25"/><path class="cls-1" d="M171.34,41.28a4.25,4.25,0,0,0-7.26,3V66.06a7.18,7.18,0,0,1-.65,2.67A7.47,7.47,0,0,1,161.86,71a7.7,7.7,0,0,1-2.31,1.51,7,7,0,0,1-2.8.55,7.35,7.35,0,0,1-5.2-2.12,7.75,7.75,0,0,1-1.61-2.38,6.71,6.71,0,0,1-.59-2.81V44.29a4.25,4.25,0,1,0-8.5,0V65.71a15.75,15.75,0,0,0,1.24,6.18,15.75,15.75,0,0,0,8.48,8.47,15.75,15.75,0,0,0,6.18,1.24,15.27,15.27,0,0,0,5.69-1.07,17.72,17.72,0,0,0,2.19-1.06,3.87,3.87,0,0,0,.69.89,4.25,4.25,0,0,0,7.26-3V44.29a4.19,4.19,0,0,0-1.24-3"/><path class="cls-2" d="M220.38,51.05a15.77,15.77,0,0,0,2-3A13.16,13.16,0,0,0,223.87,42a13.52,13.52,0,0,0-1.13-5.46,14.39,14.39,0,0,0-3-4.43,14,14,0,0,0-4.41-3A13.65,13.65,0,0,0,209.92,28H196a4.22,4.22,0,0,0-4.24,4.25V77.35A4.22,4.22,0,0,0,196,81.6h13.92a16.57,16.57,0,0,0,6.64-1.36A17.61,17.61,0,0,0,222,76.57a17,17,0,0,0,3.63-5.42,17,17,0,0,0-5.22-20.1M214.88,44a5.41,5.41,0,0,1-1.15,1.77A5.81,5.81,0,0,1,212,47a4.72,4.72,0,0,1-2,.45h-9.67v-11h9.67a5.07,5.07,0,0,1,2.08.43,5.42,5.42,0,0,1,1.73,1.2,5.68,5.68,0,0,1,1.16,1.75,5.39,5.39,0,0,1,0,4.1m-5,29.11h-9.67V56h9.67a8.12,8.12,0,0,1,3.26.66,9.08,9.08,0,0,1,2.73,1.85,9,9,0,0,1,1.84,2.75,8.29,8.29,0,0,1,.67,3.3,8,8,0,0,1-.67,3.26,8.83,8.83,0,0,1-1.84,2.72,9.56,9.56,0,0,1-2.76,1.9,7.53,7.53,0,0,1-3.23.69"/><path class="cls-2" d="M235.67,40a4.23,4.23,0,0,0-4.25,4.25V77.35a4.25,4.25,0,1,0,8.5,0V44.22A4.23,4.23,0,0,0,235.67,40"/><path class="cls-2" d="M249.71,28a4.23,4.23,0,0,0-4.25,4.25V77.35a4.25,4.25,0,1,0,8.5,0V32.26A4.23,4.23,0,0,0,249.71,28"/><path class="cls-2" d="M263.84,28a4.23,4.23,0,0,0-4.25,4.25V77.35a4.25,4.25,0,1,0,8.5,0V32.26A4.23,4.23,0,0,0,263.84,28"/><path class="cls-2" d="M307.27,46.21a21.48,21.48,0,0,0-6.54-4.45,19.57,19.57,0,0,0-7.81-1.64h-.07A22.54,22.54,0,0,0,284.64,42a21.44,21.44,0,0,0-6.58,4.44,20.72,20.72,0,0,0-4.38,6.52,21.25,21.25,0,0,0,.05,16.25,20.09,20.09,0,0,0,4.47,6.52,20.63,20.63,0,0,0,14.56,5.83,23.19,23.19,0,0,0,8.11-1.32,16.59,16.59,0,0,0,6.52-4.57,4.26,4.26,0,0,0-6.05-6,12.79,12.79,0,0,1-3.89,2.55,12.39,12.39,0,0,1-9,.14,12.36,12.36,0,0,1-6.35-5.39,11.37,11.37,0,0,1-.88-1.91h28A4.34,4.34,0,0,0,312,64a4,4,0,0,0,1.47-3.23,19.18,19.18,0,0,0-1.73-8.07,22.46,22.46,0,0,0-4.51-6.5m-3.09,10.33H281.41a12.36,12.36,0,0,1,.85-1.8,11.44,11.44,0,0,1,2.64-3.14,13.3,13.3,0,0,1,3.64-2.13,12,12,0,0,1,8.45,0,13.45,13.45,0,0,1,3.64,2.13,12,12,0,0,1,2.68,3.16,11.72,11.72,0,0,1,.87,1.78"/><path class="cls-2" d="M334.47,41.2a4.18,4.18,0,0,0-3-1.23h-3.39V32.26a4.25,4.25,0,1,0-8.5,0V40h-3.33a4.25,4.25,0,1,0,0,8.49h3.39V77.35a4.17,4.17,0,0,0,1.22,3,4.21,4.21,0,0,0,6,0,4.2,4.2,0,0,0,1.21-3V48.46h3.39a4.24,4.24,0,0,0,3-7.26"/><path class="cls-2" d="M370,46.21a21.4,21.4,0,0,0-6.55-4.45,19.49,19.49,0,0,0-7.8-1.64h-.07A22.49,22.49,0,0,0,347.34,42a21.44,21.44,0,0,0-6.58,4.44,20.55,20.55,0,0,0-4.38,6.52,20.28,20.28,0,0,0-1.59,8,20.7,20.7,0,0,0,1.63,8.23,20.12,20.12,0,0,0,4.48,6.52,20.63,20.63,0,0,0,14.56,5.83,23.22,23.22,0,0,0,8.11-1.32,16.49,16.49,0,0,0,6.51-4.57,4.25,4.25,0,0,0-6-6,13,13,0,0,1-3.89,2.55,12.39,12.39,0,0,1-9,.14,12.25,12.25,0,0,1-6.35-5.39A11.42,11.42,0,0,1,344,65h28a4.36,4.36,0,0,0,2.78-1,4,4,0,0,0,1.47-3.23,19.18,19.18,0,0,0-1.73-8.07,22.46,22.46,0,0,0-4.51-6.5m-3.09,10.33H344.11a12.36,12.36,0,0,1,.85-1.8,11.58,11.58,0,0,1,2.63-3.14,13.6,13.6,0,0,1,3.64-2.13,12,12,0,0,1,8.45,0,13.51,13.51,0,0,1,3.65,2.13A12.22,12.22,0,0,1,366,54.76a11.72,11.72,0,0,1,.87,1.78"/><path class="cls-2" d="M404.12,44.22a4.11,4.11,0,0,0-1.31-3,4.57,4.57,0,0,0-3.25-1.2,18.74,18.74,0,0,0-8.48,2A23.44,23.44,0,0,0,387.7,44a4.25,4.25,0,0,0-8.5.24V77.35a4.25,4.25,0,1,0,8.5,0V60.11a11.06,11.06,0,0,1,1-4.33,13.66,13.66,0,0,1,2.63-3.8,12,12,0,0,1,3.7-2.58,10.81,10.81,0,0,1,4.49-.93,4.57,4.57,0,0,0,3.25-1.21,4.09,4.09,0,0,0,1.31-3"/><path class="cls-2" d="M442.15,52.85a21.54,21.54,0,0,0-11-11,19.14,19.14,0,0,0-7.9-1.69A20.82,20.82,0,0,0,415,41.76a20.5,20.5,0,0,0-6.61,4.46,21,21,0,0,0-6,14.72,20.53,20.53,0,0,0,1.64,8.23,20.09,20.09,0,0,0,4.47,6.52,20.63,20.63,0,0,0,14.56,5.83,17.55,17.55,0,0,0,8.77-2.31,28.57,28.57,0,0,0,3.48-2.34v.56a4.25,4.25,0,1,0,8.5,0V60.94a19.77,19.77,0,0,0-1.68-8.09M423.08,73.1a11.79,11.79,0,0,1-4.71-.94,12.55,12.55,0,0,1-3.89-2.63,12.19,12.19,0,0,1-2.62-3.88,11.76,11.76,0,0,1-.95-4.71,12.15,12.15,0,0,1,.95-4.76,12.26,12.26,0,0,1,6.51-6.54,12.3,12.3,0,0,1,13.39,2.63,12.1,12.1,0,0,1,2.62,3.91,11.9,11.9,0,0,1,.95,4.71,13.7,13.7,0,0,1-1.13,4.89,12.24,12.24,0,0,1-6.51,6.41,11.67,11.67,0,0,1-4.61.91"/><path class="cls-3" d="M240.82,33.06a5.15,5.15,0,1,1-5.14-5.14,5.14,5.14,0,0,1,5.14,5.14"/><path class="cls-4" d="M76,36.93l-52.58,37L5.36,36.48,48,3.06a5.16,5.16,0,0,1,7.21,1.08Z"/><path class="cls-5" d="M22.62,77,2.78,35.88l44-34.44A7.24,7.24,0,0,1,56.89,2.92L57,3,78.8,37.49ZM7.94,37.08,24.22,70.85l49-34.47L53.53,5.32a3.1,3.1,0,0,0-4.29-.6Z"/><path class="cls-6" d="M81,51.3,17.88,74,5.36,36.48,61.71,13.13a5.17,5.17,0,0,1,6.6,3.1Z"/><path class="cls-5" d="M16.59,76.69,2.8,35.31,61,11.2a7.22,7.22,0,0,1,9.24,4.33l13.36,37Zm-8.67-39L19.16,71.38,78.33,50.06l-12-33.13a3.11,3.11,0,0,0-3.93-1.87Z"/><path class="cls-7" d="M71,94.61H12.67A10.61,10.61,0,0,1,2.06,84V43.22A10.61,10.61,0,0,1,12.67,32.61H71A10.61,10.61,0,0,1,81.57,43.22V84A10.61,10.61,0,0,1,71,94.61"/><path class="cls-5" d="M71,96.67H12.67A12.69,12.69,0,0,1,0,84V43.22A12.68,12.68,0,0,1,12.67,30.55H71A12.69,12.69,0,0,1,83.63,43.22V84A12.69,12.69,0,0,1,71,96.67Zm-58.29-62a8.56,8.56,0,0,0-8.55,8.55V84a8.57,8.57,0,0,0,8.55,8.55H71A8.56,8.56,0,0,0,79.5,84V43.22A8.55,8.55,0,0,0,71,34.67Z"/><path class="cls-8" d="M83.54,78.33H78.15a7.23,7.23,0,0,1-7.23-7.22V60.85a7.23,7.23,0,0,1,7.23-7.23h5.39a7.23,7.23,0,0,1,7.23,7.23V71.11a7.23,7.23,0,0,1-7.23,7.22"/><path class="cls-5" d="M83.54,80.39H78.15a9.3,9.3,0,0,1-9.29-9.28V60.85a9.3,9.3,0,0,1,9.29-9.29h5.39a9.3,9.3,0,0,1,9.29,9.29V71.11A9.3,9.3,0,0,1,83.54,80.39ZM78.15,55.68A5.18,5.18,0,0,0,73,60.85V71.11a5.17,5.17,0,0,0,5.17,5.16h5.39a5.17,5.17,0,0,0,5.17-5.16V60.85a5.18,5.18,0,0,0-5.17-5.17Z"/><path class="cls-9" d="M66.8,58.35a.9.9,0,0,0-1.16.08c-3.07,3-12.44,12.06-26.52,11.8A36.84,36.84,0,0,1,12.84,58.71a.9.9,0,0,0-1.42,1.08A32.28,32.28,0,0,0,39.11,76h1a29.28,29.28,0,0,0,18.34-5.91,31.25,31.25,0,0,0,8.66-10.61.89.89,0,0,0-.27-1.13"/><path class="cls-5" d="M79.75,66.34A2.73,2.73,0,1,1,77,63.61a2.73,2.73,0,0,1,2.73,2.73"/></g></g></svg>