<?xml version="1.0" encoding="utf-8"?>
<!-- Generator: Adobe Illustrator 24.2.3, SVG Export Plug-In . SVG Version: 6.00 Build 0)  -->
<svg version="1.1" id="Capa_1" xmlns="http://www.w3.org/2000/svg" xmlns:xlink="http://www.w3.org/1999/xlink" x="0px" y="0px"
	 viewBox="0 0 51.84 53.88" style="enable-background:new 0 0 51.84 53.88;" xml:space="preserve">
<style type="text/css">
	.st0{fill:#BDD57B;}
	.st1{fill:#288949;}
	.st2{fill:#A4C961;}
	.st3{fill:#85BE57;}
	.st4{fill:#7ABA5B;}
	.st5{fill:#FFFFFF;}
</style>
<g>
	<path id="Trazado_13_1_" class="st0" d="M42.1,20.73L13.56,40.82L3.75,20.49L26.91,2.34c1.24-0.92,3-0.66,3.92,0.59c0,0,0,0,0,0
		L42.1,20.73z"/>
	<path id="Trazado_14_1_" class="st1" d="M13.12,42.49L2.35,20.16l23.86-18.7c1.74-1.3,4.2-0.94,5.5,0.8c0,0,0,0,0,0.01l0.04,0.07
		l11.85,18.7L13.12,42.49z M5.15,20.81l8.84,18.33l26.59-18.71L29.9,3.57c-0.56-0.72-1.59-0.87-2.33-0.33L5.15,20.81z"/>
	<path id="Trazado_15_1_" class="st2" d="M44.8,28.53L10.55,40.87L3.75,20.49L34.34,7.81c1.45-0.52,3.06,0.23,3.58,1.68L44.8,28.53z
		"/>
	<path id="Trazado_16_1_" class="st1" d="M9.85,42.31L2.36,19.85l31.6-13.09c2.04-0.73,4.28,0.32,5.02,2.35l7.25,20.09L9.85,42.31z
		 M5.14,21.12l6.1,18.31l32.12-11.57L36.87,9.87c-0.31-0.86-1.26-1.32-2.13-1.02L5.14,21.12z"/>
	<path id="Trazado_17_1_" class="st3" d="M39.36,52.04H7.72c-3.18,0-5.76-2.58-5.76-5.76c0,0,0,0,0,0V24.14
		c0-3.18,2.58-5.76,5.76-5.76h31.64c3.18,0,5.76,2.58,5.76,5.76l0,0v22.14C45.12,49.46,42.54,52.04,39.36,52.04"/>
	<path id="Trazado_18_1_" class="st1" d="M39.36,53.16H7.72c-3.8,0-6.87-3.08-6.88-6.88V24.14c0-3.8,3.08-6.88,6.88-6.88h31.64
		c3.8,0,6.87,3.08,6.88,6.88v22.14C46.24,50.08,43.16,53.16,39.36,53.16z M7.72,19.5c-2.56,0-4.64,2.08-4.64,4.64v22.14
		c0,2.56,2.08,4.64,4.64,4.64h31.64c2.56,0,4.64-2.08,4.64-4.64V24.14c0-2.56-2.08-4.64-4.64-4.64H7.72z"/>
	<path id="Trazado_19_1_" class="st4" d="M46.19,43.21h-2.92c-2.17,0-3.92-1.76-3.92-3.92v-5.57c0-2.17,1.76-3.92,3.92-3.92h2.92
		c2.17,0,3.92,1.76,3.92,3.92c0,0,0,0,0,0v5.57C50.11,41.45,48.36,43.21,46.19,43.21C46.19,43.21,46.19,43.21,46.19,43.21"/>
	<path id="Trazado_20_1_" class="st1" d="M46.19,44.33h-2.92c-2.78,0-5.04-2.26-5.04-5.04v-5.57c0-2.79,2.26-5.04,5.04-5.05h2.92
		c2.78,0,5.04,2.26,5.04,5.04v5.57C51.23,42.07,48.98,44.32,46.19,44.33z M43.27,30.91c-1.55,0-2.8,1.26-2.81,2.81v5.57
		c0,1.55,1.26,2.8,2.81,2.81h2.92c1.55,0,2.8-1.26,2.81-2.81v-5.57c0-1.55-1.26-2.8-2.81-2.81H43.27z"/>
	<path id="Trazado_21_1_" class="st5" d="M37.1,32.36c-0.19-0.14-0.46-0.13-0.63,0.04c-1.67,1.62-6.75,6.55-14.4,6.4
		c-5.4-0.07-10.55-2.32-14.26-6.25c-0.18-0.2-0.49-0.21-0.69-0.03c-0.17,0.16-0.2,0.41-0.08,0.61c3.1,5.39,8.82,8.74,15.03,8.8
		c0.18,0,0.35,0.01,0.52,0.01c3.59,0.08,7.09-1.05,9.96-3.21c1.97-1.55,3.58-3.52,4.7-5.76C37.36,32.76,37.3,32.5,37.1,32.36"/>
	<path id="Trazado_22_1_" class="st1" d="M44.14,36.69c0,0.82-0.66,1.48-1.48,1.48s-1.48-0.66-1.48-1.48c0-0.82,0.66-1.48,1.48-1.48
		C43.47,35.21,44.14,35.87,44.14,36.69C44.14,36.69,44.14,36.69,44.14,36.69"/>
</g>
</svg>
