<?xml version="1.0" encoding="utf-8"?>
<!-- Generator: Adobe Illustrator 24.2.3, SVG Export Plug-In . SVG Version: 6.00 Build 0)  -->
<svg version="1.1" id="Capa_1" xmlns="http://www.w3.org/2000/svg" xmlns:xlink="http://www.w3.org/1999/xlink" x="0px" y="0px"
	 viewBox="0 0 272 83" style="enable-background:new 0 0 272 83;" xml:space="preserve">
<style type="text/css">
	.st0{fill:#FFFFFF;}
	.st1{fill:none;}
</style>
<g>
	<path class="st0" d="M92.8,33.61c0-0.62-0.23-1.19-0.67-1.62c-0.44-0.44-1-0.67-1.62-0.67H75.89c-0.62,0-1.19,0.23-1.62,0.67
		c-0.44,0.44-0.67,1-0.67,1.62c0,0.62,0.23,1.19,0.67,1.62c0.44,0.44,1,0.67,1.62,0.67h5.04v22.01c0,0.63,0.23,1.19,0.67,1.62
		c0.44,0.44,1,0.67,1.62,0.67c0.62,0,1.19-0.23,1.62-0.67c0.44-0.44,0.67-1,0.67-1.62V35.89h5c0.62,0,1.19-0.23,1.62-0.67
		C92.57,34.79,92.8,34.23,92.8,33.61"/>
	<path class="st0" d="M107.79,38.47c-0.44-0.44-1-0.67-1.62-0.67c-0.62,0-1.19,0.23-1.62,0.67c-0.44,0.44-0.67,1-0.67,1.62v11.73
		c-0.03,0.51-0.14,0.99-0.35,1.44c-0.21,0.46-0.5,0.87-0.84,1.2c-0.35,0.34-0.77,0.61-1.24,0.81c-0.47,0.2-0.96,0.3-1.51,0.3
		c-0.54,0-1.06-0.1-1.54-0.3c-0.49-0.2-0.9-0.48-1.26-0.84c-0.36-0.36-0.65-0.79-0.87-1.28c-0.21-0.48-0.32-0.98-0.32-1.52V40.09
		c0-0.62-0.23-1.19-0.67-1.62c-0.44-0.44-1-0.67-1.62-0.67c-0.63,0-1.19,0.23-1.62,0.67c-0.44,0.44-0.67,1-0.67,1.62v11.54
		c0,1.17,0.23,2.29,0.67,3.33c0.44,1.04,1.06,1.96,1.83,2.73c0.77,0.77,1.69,1.39,2.73,1.83c1.04,0.44,2.17,0.67,3.33,0.67
		c1.08,0,2.11-0.19,3.06-0.58c0.41-0.16,0.81-0.36,1.18-0.57c0.1,0.17,0.22,0.33,0.37,0.48c0.44,0.44,1,0.67,1.62,0.67
		c0.63,0,1.19-0.23,1.62-0.67c0.44-0.44,0.67-1,0.67-1.62V40.09C108.46,39.47,108.23,38.91,107.79,38.47"/>
	<path class="st0" d="M134.22,43.73c0.42-0.49,0.79-1.04,1.1-1.63c0.52-1.01,0.78-2.11,0.78-3.27c0-1.03-0.21-2.02-0.61-2.94
		c-0.4-0.91-0.94-1.71-1.62-2.38c-0.68-0.68-1.47-1.21-2.37-1.6c-0.91-0.39-1.89-0.58-2.92-0.58h-7.5c-0.62,0-1.19,0.23-1.62,0.67
		c-0.44,0.44-0.67,1-0.67,1.62v24.3c0,0.62,0.23,1.19,0.67,1.62c0.44,0.44,1,0.67,1.62,0.67h7.5c1.26,0,2.46-0.25,3.58-0.73
		c1.11-0.48,2.09-1.15,2.92-1.97c0.83-0.83,1.49-1.81,1.96-2.92c0.47-1.11,0.71-2.31,0.71-3.56c0-1.72-0.42-3.3-1.26-4.69
		C135.88,45.29,135.12,44.43,134.22,43.73 M131.26,39.93c-0.15,0.37-0.35,0.68-0.62,0.96c-0.27,0.28-0.58,0.5-0.95,0.68
		c-0.35,0.16-0.71,0.24-1.1,0.24h-5.21v-5.91h5.21c0.4,0,0.77,0.08,1.12,0.23c0.36,0.16,0.67,0.37,0.93,0.65
		c0.27,0.28,0.47,0.59,0.63,0.94c0.15,0.34,0.22,0.71,0.22,1.11C131.48,39.21,131.41,39.57,131.26,39.93 M128.59,55.62h-5.21v-9.24
		h5.21c0.62,0,1.21,0.12,1.76,0.36c0.56,0.24,1.05,0.58,1.47,1c0.41,0.41,0.75,0.91,0.99,1.48c0.24,0.57,0.36,1.15,0.36,1.78
		c0,0.63-0.12,1.2-0.36,1.75c-0.24,0.56-0.58,1.05-1,1.47c-0.42,0.42-0.92,0.76-1.48,1.02C129.78,55.5,129.21,55.62,128.59,55.62"/>
	<path class="st0" d="M142.46,37.76c-0.62,0-1.19,0.23-1.62,0.67c-0.44,0.44-0.67,1-0.67,1.62v17.86c0,0.62,0.23,1.19,0.67,1.62
		c0.44,0.44,1,0.67,1.62,0.67c0.62,0,1.19-0.23,1.62-0.67c0.44-0.44,0.67-1,0.67-1.62V40.05c0-0.63-0.23-1.19-0.67-1.62
		C143.65,37.99,143.09,37.76,142.46,37.76"/>
	<path class="st0" d="M150.03,31.32c-0.63,0-1.19,0.23-1.62,0.67c-0.44,0.44-0.67,1-0.67,1.62v24.3c0,0.62,0.23,1.19,0.67,1.62
		c0.44,0.44,1,0.67,1.62,0.67s1.19-0.23,1.62-0.67c0.44-0.44,0.67-1,0.67-1.62v-24.3c0-0.63-0.23-1.19-0.67-1.62
		C151.21,31.55,150.65,31.32,150.03,31.32"/>
	<path class="st0" d="M157.64,31.32c-0.62,0-1.19,0.23-1.62,0.67c-0.44,0.44-0.67,1-0.67,1.62v24.3c0,0.62,0.23,1.19,0.67,1.62
		c0.44,0.44,1,0.67,1.62,0.67s1.19-0.23,1.62-0.67c0.44-0.44,0.67-1,0.67-1.62v-24.3c0-0.63-0.23-1.19-0.67-1.62
		C158.83,31.55,158.27,31.32,157.64,31.32"/>
	<path class="st0" d="M181.05,41.12c-1.01-1.01-2.2-1.82-3.53-2.4c-1.34-0.59-2.76-0.88-4.21-0.88l-0.04,0
		c-1.58,0.06-3.07,0.39-4.42,0.99c-1.36,0.59-2.55,1.4-3.55,2.4c-1,1-1.79,2.18-2.36,3.51c-0.57,1.34-0.86,2.79-0.86,4.32
		c0,1.59,0.3,3.08,0.88,4.43c0.58,1.35,1.39,2.53,2.41,3.52c1.01,0.98,2.2,1.76,3.53,2.31c1.34,0.55,2.79,0.83,4.32,0.83
		c1.63,0,3.1-0.24,4.37-0.71c1.3-0.49,2.49-1.31,3.51-2.46c0.42-0.43,0.65-0.99,0.65-1.6c0-0.62-0.23-1.19-0.67-1.62
		c-0.44-0.44-1-0.67-1.62-0.67c-0.62,0-1.18,0.23-1.61,0.66c-0.61,0.58-1.32,1.05-2.1,1.38c-0.77,0.33-1.62,0.49-2.53,0.49
		c-0.8,0-1.58-0.14-2.3-0.42c-0.74-0.28-1.4-0.67-1.97-1.16c-0.57-0.49-1.06-1.07-1.45-1.75c-0.19-0.33-0.35-0.67-0.48-1.03h15.09
		c0.54,0,1.04-0.19,1.5-0.55c0.36-0.29,0.79-0.82,0.79-1.74c0-1.54-0.31-3-0.93-4.35C182.87,43.31,182.06,42.13,181.05,41.12
		 M179.39,46.69h-12.27c0.13-0.33,0.28-0.66,0.46-0.97c0.37-0.65,0.85-1.22,1.42-1.69c0.57-0.48,1.23-0.86,1.96-1.15
		c0.71-0.28,1.48-0.42,2.28-0.42c0.8,0,1.57,0.14,2.28,0.42c0.73,0.28,1.39,0.67,1.96,1.15c0.57,0.47,1.06,1.05,1.45,1.7
		C179.1,46.04,179.26,46.36,179.39,46.69"/>
	<path class="st0" d="M195.71,38.42c-0.44-0.43-1-0.66-1.63-0.66h-1.83v-4.15c0-0.63-0.23-1.19-0.67-1.62
		c-0.44-0.44-1-0.67-1.62-0.67c-0.62,0-1.19,0.23-1.62,0.67c-0.44,0.44-0.67,1-0.67,1.62v4.15h-1.8c-0.63,0-1.19,0.23-1.62,0.67
		c-0.44,0.44-0.67,1-0.67,1.62c0,0.63,0.23,1.19,0.68,1.63c0.44,0.43,1,0.66,1.63,0.66h1.83v15.57c0,0.62,0.23,1.18,0.66,1.62
		c0.43,0.44,0.99,0.67,1.61,0.67c0.62,0,1.18-0.23,1.61-0.67c0.43-0.44,0.66-0.99,0.66-1.62V42.34h1.83c0.63,0,1.19-0.23,1.63-0.66
		c0.44-0.44,0.68-1,0.68-1.63C196.39,39.42,196.15,38.86,195.71,38.42"/>
	<path class="st0" d="M214.84,41.12c-1.01-1.01-2.2-1.82-3.53-2.4c-1.34-0.59-2.76-0.88-4.21-0.88l-0.04,0
		c-1.58,0.06-3.07,0.39-4.42,0.99c-1.36,0.59-2.55,1.4-3.55,2.4c-1,1-1.79,2.18-2.36,3.51c-0.57,1.34-0.86,2.79-0.86,4.32
		c0,1.59,0.3,3.08,0.88,4.43c0.58,1.35,1.39,2.53,2.41,3.52c1.01,0.98,2.2,1.76,3.53,2.31c1.34,0.55,2.79,0.83,4.32,0.83
		c1.63,0,3.1-0.24,4.37-0.71c1.3-0.49,2.49-1.31,3.51-2.46c0.42-0.43,0.65-0.99,0.65-1.6c0-0.62-0.23-1.19-0.67-1.62
		c-0.44-0.44-1-0.67-1.62-0.67c-0.62,0-1.18,0.23-1.61,0.66c-0.61,0.58-1.32,1.05-2.1,1.38c-0.77,0.33-1.62,0.49-2.53,0.49
		c-0.8,0-1.58-0.14-2.3-0.42c-0.74-0.28-1.4-0.67-1.97-1.16c-0.57-0.49-1.06-1.07-1.45-1.75c-0.19-0.33-0.35-0.67-0.48-1.03h15.09
		c0.54,0,1.04-0.19,1.5-0.55c0.36-0.29,0.79-0.82,0.79-1.74c0-1.54-0.31-3-0.93-4.35C216.66,43.31,215.85,42.13,214.84,41.12
		 M213.18,46.69h-12.27c0.13-0.33,0.28-0.66,0.46-0.97c0.37-0.65,0.85-1.22,1.42-1.69c0.57-0.48,1.23-0.86,1.96-1.15
		c0.71-0.28,1.48-0.42,2.28-0.42c0.8,0,1.57,0.14,2.28,0.42c0.73,0.28,1.39,0.67,1.96,1.15c0.57,0.47,1.06,1.05,1.45,1.7
		C212.89,46.04,213.05,46.36,213.18,46.69"/>
	<path class="st0" d="M233.25,40.05c0-0.63-0.24-1.2-0.71-1.64c-0.31-0.3-0.87-0.65-1.75-0.65c-1.64,0-3.17,0.35-4.57,1.05
		c-0.65,0.32-1.26,0.7-1.82,1.11c-0.03-0.57-0.26-1.09-0.66-1.49c-0.44-0.44-1-0.67-1.62-0.67c-0.62,0-1.19,0.23-1.62,0.67
		c-0.44,0.44-0.67,1-0.67,1.62v17.86c0,0.63,0.23,1.19,0.67,1.62c0.44,0.44,1,0.67,1.62,0.67c0.63,0,1.19-0.23,1.62-0.67
		c0.44-0.44,0.67-1,0.67-1.62v-9.29c0.03-0.81,0.21-1.59,0.56-2.34c0.36-0.77,0.83-1.45,1.41-2.05c0.57-0.58,1.24-1.05,2-1.39
		c0.74-0.33,1.55-0.5,2.42-0.5c0.88,0,1.44-0.35,1.75-0.65C233.01,41.25,233.25,40.68,233.25,40.05"/>
	<path class="st0" d="M253.75,44.7c-0.59-1.34-1.41-2.53-2.42-3.54c-1.01-1.01-2.19-1.82-3.52-2.41c-1.34-0.6-2.78-0.91-4.26-0.91
		c-1.59,0-3.08,0.3-4.45,0.88c-1.36,0.58-2.56,1.39-3.56,2.4s-1.79,2.22-2.36,3.58c-0.57,1.36-0.86,2.83-0.86,4.36
		c0,1.59,0.3,3.08,0.88,4.43c0.58,1.35,1.39,2.53,2.41,3.52c1.01,0.98,2.2,1.76,3.53,2.31c1.34,0.55,2.79,0.83,4.32,0.83
		c1.68,0,3.27-0.42,4.72-1.25c0.67-0.38,1.3-0.8,1.88-1.26v0.3c0,0.62,0.23,1.19,0.67,1.62c0.44,0.44,1,0.67,1.62,0.67
		c0.62,0,1.19-0.23,1.62-0.67c0.44-0.44,0.67-1,0.67-1.62v-8.89C254.65,47.53,254.35,46.06,253.75,44.7 M243.47,55.62
		c-0.9,0-1.76-0.17-2.54-0.51c-0.79-0.34-1.5-0.82-2.1-1.41c-0.6-0.6-1.07-1.3-1.41-2.09c-0.34-0.78-0.51-1.64-0.51-2.54
		c0-0.9,0.17-1.76,0.51-2.56c0.34-0.8,0.82-1.51,1.41-2.11c0.6-0.6,1.3-1.07,2.1-1.41c0.79-0.34,1.64-0.51,2.54-0.51
		c0.9,0,1.77,0.17,2.57,0.51c0.81,0.34,1.52,0.82,2.11,1.41c0.6,0.6,1.07,1.31,1.41,2.11c0.34,0.79,0.51,1.65,0.51,2.54
		c-0.05,0.96-0.26,1.85-0.61,2.64c-0.36,0.79-0.84,1.49-1.43,2.08c-0.6,0.58-1.3,1.05-2.08,1.38
		C245.18,55.45,244.34,55.62,243.47,55.62"/>
	<path class="st0" d="M145.24,34.04c0,1.53-1.24,2.77-2.77,2.77s-2.77-1.24-2.77-2.77c0-1.53,1.24-2.77,2.77-2.77
		S145.24,32.51,145.24,34.04"/>
	<g>
		<path class="st1" d="M49.45,24.33L25.29,34.34h29.52l-3.25-9C51.25,24.49,50.31,24.04,49.45,24.33z"/>
		<path class="st0" d="M49.45,24.33c0.86-0.3,1.81,0.15,2.12,1.01l3.25,9h2.36l-3.52-9.75c-0.73-2.02-2.96-3.07-4.98-2.34
			L19.49,34.34h5.8L49.45,24.33z"/>
	</g>
	<g>
		<path class="st1" d="M53.69,34.9H22.27c-2.54,0-4.61,2.07-4.61,4.61v21.98c0,2.54,2.07,4.61,4.61,4.61h31.42
			c2.54,0,4.61-2.07,4.61-4.61v-3.05h-0.73c-2.15,0-3.9-1.74-3.9-3.9v-5.53c0-2.15,1.74-3.9,3.9-3.9h0.73v-5.61
			C58.29,36.97,56.23,34.9,53.69,34.9z"/>
		<path class="st0" d="M58.29,58.44v3.05c0,2.54-2.07,4.61-4.61,4.61H22.27c-2.54,0-4.61-2.07-4.61-4.61V39.51
			c0-2.54,2.07-4.61,4.61-4.61h31.42c2.54,0,4.61,2.07,4.61,4.61v5.61h2.17c0.02,0,0.03,0,0.05,0v-5.61c0-3.76-3.06-6.83-6.83-6.83
			H22.27c-3.76,0-6.83,3.06-6.83,6.83v21.98c0,3.76,3.06,6.83,6.83,6.83h31.42c3.76,0,6.83-3.06,6.83-6.83v-3.06
			c-0.02,0-0.03,0-0.05,0H58.29z"/>
	</g>
	<path class="st0" d="M60.47,59.55h-2.9c-2.76,0-5.01-2.25-5.01-5.01v-5.53c0-2.76,2.25-5.01,5.01-5.01h2.9
		c2.76,0,5.01,2.25,5.01,5.01v5.53C65.47,57.3,63.23,59.55,60.47,59.55z M57.57,46.23c-1.54,0-2.79,1.25-2.79,2.79v5.53
		c0,1.54,1.25,2.79,2.79,2.79h2.9c1.54,0,2.79-1.25,2.79-2.79v-5.53c0-1.54-1.25-2.79-2.79-2.79H57.57z"/>
	<path class="st0" d="M51.45,47.67c-0.19-0.14-0.45-0.13-0.62,0.04c-1.66,1.61-6.71,6.5-14.3,6.36c-7.33-0.13-12.02-3.95-14.16-6.21
		c-0.17-0.18-0.44-0.21-0.64-0.05c-0.2,0.15-0.25,0.41-0.12,0.63c1.89,3.17,6.34,8.52,14.92,8.73c0.17,0,0.35,0.01,0.52,0.01
		c3.81,0,7.13-1.07,9.88-3.19c2.41-1.86,3.87-4.13,4.67-5.72C51.7,48.06,51.64,47.81,51.45,47.67"/>
	<path class="st0" d="M58.43,51.97c0,0.81-0.66,1.47-1.47,1.47s-1.47-0.66-1.47-1.47c0-0.81,0.66-1.47,1.47-1.47
		S58.43,51.16,58.43,51.97"/>
	<g>
		<path class="st1" d="M41.63,19.7L24.45,33.03h27.79l-8.33-13.01C43.37,19.32,42.35,19.18,41.63,19.7z"/>
		<path class="st0" d="M48.75,23.53l-3.01-4.7l-0.04-0.06c-1.26-1.68-3.66-2.04-5.39-0.78L20.9,33.03h3.55L41.63,19.7
			c0.72-0.53,1.74-0.38,2.28,0.32l2.84,4.44"/>
	</g>
</g>
</svg>
