<?xml version="1.0" encoding="utf-8"?>
<!-- Generator: Adobe Illustrator 24.2.3, SVG Export Plug-In . SVG Version: 6.00 Build 0)  -->
<svg version="1.1" id="Capa_1" xmlns="http://www.w3.org/2000/svg" xmlns:xlink="http://www.w3.org/1999/xlink" x="0px" y="0px"
	 viewBox="0 0 86.24 87.48" style="enable-background:new 0 0 86.24 87.48;" xml:space="preserve">
<style type="text/css">
	.st0{fill:#86BE58;}
	.st1{fill:#FFFFFF;}
</style>
<g>
	<g id="Grupo_265_1_" transform="translate(3244.428 -552.214)">
		<path id="Elipse_32_1_" class="st0" d="M-3201.31,553.51c55.8,0.95,55.79,83.95,0,84.89
			C-3257.1,637.45-3257.09,554.45-3201.31,553.51z"/>
	</g>
	<g id="Grupo_191_7_">
		<g id="Grupo_190_7_">
			<path id="Trazado_282_7_" class="st1" d="M28.28,31.92c2.31-0.36,3.99-2.37,3.94-4.71c0.06-2.18-1.66-3.99-3.84-4.05
				c-2.18-0.06-3.99,1.66-4.05,3.84c0,0.07,0,0.14,0,0.21C24.28,29.55,25.97,31.56,28.28,31.92z"/>
			<path id="Trazado_283_7_" class="st1" d="M57.95,31.92c2.31-0.36,4-2.37,3.95-4.71c0-2.18-1.77-3.95-3.95-3.94
				c-2.18,0-3.94,1.77-3.94,3.94C53.96,29.55,55.65,31.56,57.95,31.92z"/>
			<path id="Trazado_284_7_" class="st1" d="M31,49.12c-0.58-0.73-0.85-1.66-0.75-2.58l1.54-13.87c-1.15-0.26-2.33-0.41-3.51-0.43
				c-2.27,0.11-4.52,0.55-6.66,1.3l-0.07,0.02l-0.04,0.01c-0.03,0.01-0.05,0.04-0.08,0.05c-0.15,0.06-0.29,0.14-0.41,0.25
				c-0.05,0.05-0.1,0.11-0.15,0.17c-0.08,0.09-0.15,0.19-0.21,0.29c-0.04,0.1-0.08,0.2-0.1,0.31c-0.03,0.07-0.05,0.15-0.07,0.23
				l-1.25,11.24c-0.09,0.85,0.52,1.62,1.37,1.72c0.06,0,0.12,0,0.18,0c0.79,0,1.46-0.6,1.55-1.39l1.14-10.24l0.43-0.13v10.65
				l-1.24,15.45c-0.08,1.03,0.69,1.93,1.72,2.01c0,0,0,0,0,0c0.05,0,0.1,0,0.15,0c0.98,0,1.79-0.75,1.87-1.72l1.12-13.96
				c0.24,0.11,0.49,0.16,0.75,0.16c0.26,0,0.52-0.05,0.75-0.16l1.13,13.96c0.08,0.97,0.89,1.72,1.86,1.72h0.15
				c1.03-0.08,1.8-0.98,1.72-2.01c0,0,0,0,0,0l-0.96-11.87C32.17,50.15,31.49,49.73,31,49.12z"/>
			<path id="Trazado_285_7_" class="st1" d="M65.75,34.88c0-0.08-0.05-0.14-0.07-0.22c-0.02-0.11-0.06-0.22-0.1-0.32
				c-0.05-0.09-0.11-0.17-0.17-0.24c-0.06-0.08-0.12-0.16-0.19-0.23c-0.09-0.07-0.19-0.13-0.3-0.18c-0.06-0.04-0.12-0.08-0.19-0.11
				c-2.18-0.78-4.46-1.23-6.77-1.34c-1.18,0.02-2.36,0.17-3.52,0.43l1.54,13.87c0.1,0.93-0.17,1.86-0.75,2.58
				c-0.49,0.61-1.16,1.03-1.92,1.21l-0.96,11.87c-0.08,1.03,0.69,1.93,1.72,2.01c0.05,0,0.1,0,0.15,0c0.97,0,1.79-0.75,1.86-1.72
				l1.12-13.96c0.48,0.22,1.03,0.22,1.51,0l1.12,13.96c0.08,0.97,0.89,1.72,1.86,1.72c0.05,0,0.1,0,0.15,0
				c1.03-0.08,1.8-0.98,1.72-2.01c0,0,0,0,0,0l-1.24-15.45V36.1c0.16,0.04,0.3,0.09,0.43,0.13l1.14,10.24
				c0.09,0.79,0.75,1.39,1.55,1.39c0.06,0,0.12,0,0.17,0c0.85-0.1,1.47-0.87,1.37-1.72L65.75,34.88z"/>
			<path id="Trazado_286_7_" class="st1" d="M43.12,28.95c2.89-0.45,5-2.97,4.94-5.89c0-2.73-2.22-4.94-4.94-4.94
				c-2.73,0-4.93,2.21-4.94,4.94C38.12,25.98,40.23,28.49,43.12,28.95z"/>
			<path id="Trazado_287_7_" class="st1" d="M52.71,48.86c1.07-0.12,1.84-1.09,1.72-2.16l-1.56-14.06
				c-0.02-0.09-0.05-0.19-0.09-0.27c-0.03-0.14-0.07-0.27-0.13-0.4c-0.06-0.11-0.14-0.21-0.22-0.3c-0.07-0.1-0.15-0.19-0.24-0.27
				c-0.11-0.09-0.24-0.16-0.37-0.23c-0.07-0.05-0.15-0.1-0.23-0.14c-2.49-0.87-5.09-1.43-7.72-1.65l-0.5,0.99h-0.01l1.32,10.25
				l-1.56,2.73l-1.56-2.73l1.31-10.25l0,0l-0.49-0.98c-2.59,0.21-5.13,0.75-7.58,1.59l-0.09,0.03l-0.05,0.02
				c-0.04,0.01-0.07,0.05-0.1,0.06c-0.19,0.08-0.36,0.18-0.52,0.31c-0.06,0.07-0.12,0.14-0.18,0.21c-0.1,0.11-0.2,0.23-0.27,0.36
				c-0.05,0.12-0.09,0.25-0.12,0.39c-0.04,0.09-0.07,0.18-0.09,0.27l-1.56,14.06c-0.12,1.07,0.65,2.04,1.72,2.15
				c0.07,0.01,0.15,0.01,0.22,0.01c0.99,0,1.83-0.75,1.94-1.74l1.42-12.8c0.16-0.05,0.35-0.1,0.55-0.16v13.33L36.1,66.84
				c-0.1,1.29,0.86,2.42,2.15,2.52c0.06,0,0.13,0,0.19,0c1.22,0,2.24-0.94,2.34-2.16l1.41-17.47c0.6,0.27,1.29,0.27,1.89,0
				l1.41,17.47c0.1,1.22,1.11,2.16,2.33,2.16H48c1.29-0.1,2.25-1.23,2.15-2.52c0,0,0,0,0,0l-1.56-19.33V34.18l0.55,0.16l1.4,12.8
				c0.11,0.99,0.94,1.74,1.94,1.74C52.56,48.88,52.63,48.87,52.71,48.86z"/>
		</g>
	</g>
</g>
</svg>
