<?xml version="1.0" encoding="utf-8"?>
<!-- Generator: Adobe Illustrator 24.2.3, SVG Export Plug-In . SVG Version: 6.00 Build 0)  -->
<svg version="1.1" id="Capa_1" xmlns="http://www.w3.org/2000/svg" xmlns:xlink="http://www.w3.org/1999/xlink" x="0px" y="0px"
	 viewBox="0 0 86.45 87.69" style="enable-background:new 0 0 86.45 87.69;" xml:space="preserve">
<style type="text/css">
	.st0{fill:#CDCCCC;}
	.st1{fill:#808181;}
</style>
<g>
	<g id="Grupo_265_3_" transform="translate(3244.428 -552.214)">
		<path id="Elipse_32_3_" class="st0" d="M-3200.86,553.61c55.8,0.95,55.79,83.95,0,84.89
			C-3256.66,637.55-3256.65,554.56-3200.86,553.61z"/>
	</g>
	<g id="Grupo_426_1_" transform="translate(16.666 12.294)">
		<g id="Grupo_276_1_">
			<path id="Trazado_388_1_" class="st1" d="M9.07,25.2L26.9,12.24L44.73,25.2h5.58L26.9,8.18L3.49,25.2H9.07z"/>
			<g id="Grupo_274_1_" transform="translate(0.91 37.317)">
				<rect id="Rectángulo_82_1_" x="8.49" y="8.18" class="st1" width="35" height="3.56"/>
				<rect id="Rectángulo_83_1_" x="3.49" y="13.76" class="st1" width="45.01" height="3.56"/>
			</g>
			<g id="Grupo_275_1_" transform="translate(11.186 11.683)">
				<path id="Trazado_389_1_" class="st1" d="M18.12,21.66c-0.59-0.35-1.23-0.61-1.89-0.76v5.59C18.75,26.74,20.2,23.14,18.12,21.66
					z"/>
				<path id="Trazado_390_1_" class="st1" d="M13.22,14.55c-1.45,1.71-0.09,4,2,4.14v-5C14.46,13.66,13.72,13.97,13.22,14.55z"/>
				<path id="Trazado_391_1_" class="st1" d="M15.72,8.19c-15.99,0.07-15.98,24.38,0,24.45C31.71,32.57,31.7,8.26,15.72,8.19z
					 M19.18,27.18c-0.9,0.51-1.91,0.8-2.94,0.87v2.06h-1.01v-2.06c-3.31-0.12-4.93-2.22-4.81-5.09h1.88
					c-0.1,1.74,1.03,3.56,2.93,3.48v-5.8c-5.84-0.08-5.86-8.68,0-8.52v-1.41h1.01v1.39c2.29-0.03,4.53,1.75,4.44,4.15h-1.86
					c-0.05-1.36-1.17-2.6-2.57-2.52v5.18C20.62,19.17,22.95,24.37,19.18,27.18L19.18,27.18z"/>
			</g>
		</g>
	</g>
</g>
</svg>
