<?xml version="1.0" encoding="utf-8"?>
<!-- Generator: Adobe Illustrator 24.2.3, SVG Export Plug-In . SVG Version: 6.00 Build 0)  -->
<svg version="1.1" id="Capa_1" xmlns="http://www.w3.org/2000/svg" xmlns:xlink="http://www.w3.org/1999/xlink" x="0px" y="0px"
	 viewBox="0 0 86.45 87.69" style="enable-background:new 0 0 86.45 87.69;" xml:space="preserve">
<style type="text/css">
	.st0{fill:#CDCCCC;}
	.st1{fill:#808181;}
</style>
<g>
	<g id="Grupo_265" transform="translate(3244.428 -552.214)">
		<path id="Elipse_32" class="st0" d="M-3201.39,553.45c55.8,0.95,55.79,83.95,0,84.89
			C-3257.18,637.39-3257.17,554.39-3201.39,553.45z"/>
	</g>
	<g id="Grupo_264" transform="translate(14.98 13.041)">
		<g id="Grupo_263-2">
			<rect id="Rectángulo_81-2" x="45.38" y="39.49" class="st1" width="3.42" height="8.76"/>
			<path id="Elipse_33-2" class="st1" d="M47.09,34.44c2.6-0.04,2.6,4.05,0,4.01C44.49,38.49,44.49,34.4,47.09,34.44z"/>
			<path id="Trazado_374-2" class="st1" d="M46.99,28.55c-3.62,0-7.08,1.51-9.54,4.16c-0.48-0.02-3.34-2.59-3.75-2.91l-5.3,5.27
				l-5.31-5.27l-3.08,2.6c-1.91,1.13-7.74,2.83-8.77,4.97c0,0-10.64,15.27-10.64,15.27l39.34,0.02C59.6,63.55,69.42,30,46.99,28.55z
				 M46.99,50.85c-11.95,0.16-11.95-18.59,0-18.43C58.94,32.26,58.94,51.01,46.99,50.85z"/>
			<path id="Trazado_375-2" class="st1" d="M28.36,30.43L28.36,30.43h0.07c13.65,1.67,18.39-30.41,0.01-29.2h-0.09
				C9.98,0.02,14.71,32.11,28.36,30.43z"/>
		</g>
	</g>
</g>
</svg>
