<?xml version="1.0" encoding="utf-8"?>
<!-- Generator: Adobe Illustrator 24.2.3, SVG Export Plug-In . SVG Version: 6.00 Build 0)  -->
<svg version="1.1" id="Capa_1" xmlns="http://www.w3.org/2000/svg" xmlns:xlink="http://www.w3.org/1999/xlink" x="0px" y="0px"
	 viewBox="0 0 71.32 154.02" style="enable-background:new 0 0 71.32 154.02;" xml:space="preserve">
<style type="text/css">
	.st0{fill:#139AD7;}
</style>
<g id="Grupo_285_1_" transform="translate(3486 206.852)">
	<g id="Grupo_284_1_" transform="translate(0 88.701)">
		<path id="Trazado_400_1_" class="st0" d="M-3452.93-170.23c-0.3,0.94,0.51,1.61,1.3,1.93v-3.38
			C-3452.29-171.47-3452.79-170.91-3452.93-170.23z"/>
		<path id="Trazado_401_1_" class="st0" d="M-3449.52-165.5l-0.1-0.03v4.45C-3447.56-161.7-3447.17-165.02-3449.52-165.5z"/>
		<path id="Trazado_402_1_" class="st0" d="M-3443.51-188.17l2.23-7.16c-2.73-0.72-5.02,3.26-7.93,0.3l0,0
			c-2.68-1.81-5.25,3.27-8.4,0c-0.64-0.57-1.56-0.69-2.33-0.31l2.23,7.16L-3443.51-188.17z"/>
		<path id="Trazado_403_1_" class="st0" d="M-3425.69-204.94h-48.39c-5.1,0-9.24,3.81-9.24,8.5v44.51c0,4.7,4.14,8.5,9.24,8.5h48.39
			c5.1,0,9.24-3.81,9.24-8.5v-44.51C-3416.45-201.13-3420.59-204.94-3425.69-204.94z M-3433-157.24
			c-4.24,7.96-14.51,7.32-22.19,7.11c-10.59,0.67-19.33-12.04-12.55-21.06c0,0,7.67-11.06,7.67-11.06c-2.54-1.05-2.3-4.92,0.32-5.7
			l-2.33-7.47c0.28-2.47,4.39-2.43,5.87-0.9c2.7,1.8,5.23-3.27,8.39-0.02l0,0c0.79,0.7,1.98,0.7,2.77,0
			c1.48-1.52,5.59-1.56,5.86,0.91c0,0-2.33,7.48-2.33,7.48c2.62,0.78,2.86,4.65,0.32,5.7
			C-3436.85-175.53-3426.92-165.74-3433-157.24L-3433-157.24z"/>
		<path id="Trazado_404_1_" class="st0" d="M-3443.31-181.89h-2.8c-1.2,0.12-1.36-1.76-0.16-1.85c1.19-0.25,4.76,0.79,4.93-1.16
			c0.09-0.81-0.62-1.52-1.43-1.43h-15.72c-1.67-0.2-1.95,2.44-0.27,2.59c-0.07,0.01,3.55,0,3.62,0c1.2-0.12,1.36,1.76,0.16,1.85
			c-0.14,0-2.81,0-2.96,0l-8.11,11.7c-5.86,7.8,1.69,18.8,10.86,18.22c0,0,9.14,0,9.14,0c9.16,0.58,16.72-10.42,10.86-18.22
			C-3435.2-170.19-3443.31-181.89-3443.31-181.89z M-3451.33-183.46c0.85-0.84,2.37,0.41,1.42,1.31
			C-3450.76-181.31-3452.28-182.57-3451.33-183.46z M-3445.93-162.77c-0.37,1.85-1.83,3.28-3.69,3.63c0.49,2.54-2.42,2.68-2.01,0.09
			c-4.53-0.16-5.42-4.12,0-1.85v-5.35c-4.27-0.81-4.38-6.7,0-7.33c-0.47-2.42,2.48-2.4,2.01,0.01c3.41,0.22,3.77,3.89,0,1.9v4.18
			C-3447.34-167.06-3445.47-165.21-3445.93-162.77L-3445.93-162.77z"/>
	</g>
	<path id="Elipse_40_1_" class="st0" d="M-3447-189.51c10.51-0.14,10.51,15.03,0,14.9C-3457.51-174.47-3457.51-189.64-3447-189.51z"
		/>
	<path id="Trazado_405_1_" class="st0" d="M-3455.6-163.64v11.02l-11.66,13.11c-1.13,1.25-1.04,3.17,0.21,4.31
		c0.1,0.1,8.96,7.6,9.08,7.71c2.9,2.69,7.97-1.34,5.03-4.5c-0.26-0.28-6.5-5.51-6.79-5.78l5.92-6.65h8.47v22.15
		c0,2.43,2.82,3.89,4.94,2.95c1.23-0.47,2.05-1.63,2.08-2.95c0.04-9.57-0.07-32.36-0.07-41.66l9.47-13.22
		c1.3,0.29,0.25-23.84,0.58-24.56c-0.26-4.19-6.76-4.2-7.02,0c0,0,0,21.82,0,21.82l-5.46,7.62h-13.99l-5.87-5.7l1.62-6.21
		c0.96-4.23-5.74-5.54-6.83-1.51c0,0-2.06,7.91-2.06,7.91C-3469.43-175.03-3456.75-165.51-3455.6-163.64z"/>
</g>
</svg>
