<?xml version="1.0" encoding="utf-8"?>
<!-- Generator: Adobe Illustrator 24.2.3, SVG Export Plug-In . SVG Version: 6.00 Build 0)  -->
<svg version="1.1" id="Capa_1" xmlns="http://www.w3.org/2000/svg" xmlns:xlink="http://www.w3.org/1999/xlink" x="0px" y="0px"
	 viewBox="0 0 101.1 110" style="enable-background:new 0 0 101.1 110;" xml:space="preserve">
<style type="text/css">
	.st0{fill:#139AD7;}
</style>
<g id="Grupo_282_1_" transform="translate(514.088 372.079)">
	<path id="Trazado_393_1_" class="st0" d="M-499.54-337.08c15.17-0.07,15.17-23.13,0-23.2
		C-514.72-360.21-514.71-337.16-499.54-337.08z"/>
	<path id="Trazado_394_1_" class="st0" d="M-510-323.76c1.19,22.64-7.04,34.04,23.07,31.75v23.43c0,1.36,1.1,2.45,2.45,2.45h11.57
		c1.36,0,2.45-1.1,2.45-2.45v-31.3c0-4.67-3.79-8.46-8.46-8.46h-10.18v-15.42C-488.89-337.32-510.2-337.32-510-323.76z"/>
	<path id="Trazado_395_1_" class="st0" d="M-448.42-333.85c1.53,0.61,3.26-0.13,3.87-1.66l11.57-28.92
		c0.59-1.54-0.17-3.26-1.71-3.85c-1.51-0.58-3.21,0.15-3.82,1.64l-11.57,28.93C-450.69-336.19-449.94-334.46-448.42-333.85z"/>
	<path id="Trazado_396_1_" class="st0" d="M-449.77-322.07c2.72-0.7,14.81,2.17,14.55-2.98c0,0,0-17.35,0-17.35
		c0.06-3.86-6.02-3.87-5.96,0c0,0,0,14.37,0,14.37h-8.59C-453.7-328.15-453.7-321.95-449.77-322.07z"/>
	<path id="Trazado_397_1_" class="st0" d="M-423.82-268.58c-0.06,3.86,6.01,3.88,5.96,0.01c0,0,0-31.33,0-31.34h-5.96V-268.58z"/>
	<path id="Trazado_398_1_" class="st0" d="M-420.84-317.6h-40.49c-4.9-0.2-2.4,9.36-2.98,11.97h46.46
		C-418.44-308.27-415.93-317.79-420.84-317.6z"/>
	<path id="Trazado_399_1_" class="st0" d="M-464.31-268.58c-0.06,3.86,6.02,3.87,5.96,0c0,0,0-31.33,0-31.33h-5.96V-268.58z"/>
</g>
</svg>
