<?xml version="1.0" encoding="utf-8"?>
<!-- Generator: Adobe Illustrator 24.2.3, SVG Export Plug-In . SVG Version: 6.00 Build 0)  -->
<svg version="1.1" id="Capa_1" xmlns="http://www.w3.org/2000/svg" xmlns:xlink="http://www.w3.org/1999/xlink" x="0px" y="0px"
	 viewBox="0 0 86.45 87.69" style="enable-background:new 0 0 86.45 87.69;" xml:space="preserve">
<style type="text/css">
	.st0{fill:#FFFFFF;}
</style>
<g>
	<g id="Layer_1_5_" transform="translate(12.233 10.201)">
		<g id="Grupo_268_5_">
			<path id="Trazado_379_5_" class="st0" d="M13.32,29.46c-2.03,0.37-8.18-1.29-8.07,2.34v25.74c-0.11,3.61,6.06,2.01,8.07,2.34
				c1.29,0,2.34-1.05,2.34-2.34V31.81C15.66,30.51,14.62,29.46,13.32,29.46z"/>
			<path id="Trazado_380_5_" class="st0" d="M27.01,36.48c-2.03,0.36-8.18-1.29-8.07,2.34v18.72c-0.12,3.61,6.05,2.01,8.07,2.34
				c1.29,0,2.34-1.05,2.34-2.34V38.82C29.35,37.53,28.31,36.48,27.01,36.48z"/>
			<path id="Trazado_381_5_" class="st0" d="M40.7,36.48c-2.03,0.36-8.18-1.29-8.07,2.34v18.72c-0.12,3.61,6.05,2.01,8.07,2.34
				c1.29,0,2.34-1.05,2.34-2.34V38.82C43.04,37.53,41.99,36.48,40.7,36.48z"/>
			<path id="Trazado_382_5_" class="st0" d="M54.39,29.46c-2.03,0.37-8.18-1.3-8.07,2.34v25.74c0,1.29,1.05,2.34,2.34,2.34
				c2.02-0.37,8.18,1.3,8.07-2.34V31.8C56.73,30.51,55.68,29.46,54.39,29.46L54.39,29.46z"/>
			<path id="Trazado_383_5_" class="st0" d="M31.67,22.5v4.21C35.17,26.62,35,22.73,31.67,22.5z"/>
			<path id="Trazado_384_5_" class="st0" d="M28.01,17.46c0,1.07,0.79,1.68,2.39,2v-3.81C28.95,15.69,28.01,16.54,28.01,17.46z"/>
			<path id="Trazado_385_5_" class="st0" d="M30.99,8.4c-16.83,0.09-16.83,25.65,0,25.74C47.82,34.05,47.82,8.49,30.99,8.4z
				 M31.67,28.88c0.38,2.73-1.66,2.72-1.28,0c-4.09,0.16-7.42-4.2-4.07-5.26c2.38,0,0.53,2.94,4.07,3.09v-4.45
				c-7.07-0.55-6.18-8.86,0-8.79c-0.36-2.48,1.64-2.47,1.28,0c2.13-0.43,7.7,3.17,3.72,4.49c-1.39,0-1.37-2.28-3.72-2.32v4.04
				C38.31,19.85,38.92,28.89,31.67,28.88L31.67,28.88z"/>
		</g>
	</g>
</g>
</svg>
