<?xml version="1.0" encoding="utf-8"?>
<!-- Generator: Adobe Illustrator 24.2.3, SVG Export Plug-In . SVG Version: 6.00 Build 0)  -->
<svg version="1.1" id="Capa_1" xmlns="http://www.w3.org/2000/svg" xmlns:xlink="http://www.w3.org/1999/xlink" x="0px" y="0px"
	 viewBox="0 0 103.04 30.61" style="enable-background:new 0 0 103.04 30.61;" xml:space="preserve">
<style type="text/css">
	.st0{fill:#86BE58;}
	.st1{fill:#FFFFFF;}
</style>
<path class="st0" d="M78.75,27.8c-0.73-0.59-1.41-1.04-1.97-1.6c-6.23-6.19-12.33-12.51-18.69-18.56c-2.76-2.62-0.17-3.54,1.03-5.04
	c1.48-1.86,2.71-2.32,4.64-0.21c3.92,4.27,8.26,8.14,12.2,12.39c1.98,2.14,3.24,2.46,5.37,0.11c3.9-4.29,8.3-8.11,12.19-12.4
	c2.17-2.39,3.35-1.46,5.05,0.33c1.59,1.67,2.96,2.76,0.51,5.07c-6.15,5.79-12.01,11.89-17.99,17.85
	C80.39,26.43,79.62,27.04,78.75,27.8z"/>
<path class="st1" d="M23.24,1c0.73,0.59,1.41,1.04,1.97,1.6c6.23,6.19,12.33,12.51,18.69,18.56c2.76,2.62,0.17,3.54-1.03,5.04
	c-1.48,1.86-2.71,2.32-4.64,0.21c-3.92-4.27-8.26-8.14-12.2-12.39c-1.98-2.14-3.24-2.46-5.37-0.11c-3.9,4.29-8.3,8.11-12.19,12.4
	c-2.17,2.39-3.35,1.46-5.05-0.33c-1.59-1.67-2.96-2.76-0.51-5.07C9.06,15.12,14.91,9.02,20.9,3.05C21.59,2.36,22.37,1.76,23.24,1z"
	/>
</svg>
