<?xml version="1.0" encoding="utf-8"?>
<!-- Generator: Adobe Illustrator 24.2.3, SVG Export Plug-In . SVG Version: 6.00 Build 0)  -->
<svg version="1.1" id="Capa_1" xmlns="http://www.w3.org/2000/svg" xmlns:xlink="http://www.w3.org/1999/xlink" x="0px" y="0px"
	 viewBox="0 0 140.45 38.58" style="enable-background:new 0 0 140.45 38.58;" xml:space="preserve">
<style type="text/css">
	.st0{fill:#139AD7;}
	.st1{fill:#1D4D94;}
	.st2{fill:#FFFFFF;}
</style>
<g>
	<path class="st0" d="M118.19,35.74H11.54c-5.21,0-9.47-4.26-9.47-9.47V13.81c0-5.21,4.26-9.47,9.47-9.47h106.65
		c5.21,0,9.47,4.26,9.47,9.47v12.46C127.66,31.48,123.4,35.74,118.19,35.74z"/>
	<g>
		<path class="st0" d="M133.96,16.42l-17.15,12.07l-5.89-12.21l13.91-10.9c0.75-0.55,1.8-0.39,2.35,0.35L133.96,16.42z"/>
		<path class="st1" d="M116.55,29.5l-6.47-13.41l14.34-11.23c1.06-0.78,2.54-0.56,3.31,0.48l0.03,0.04l7.12,11.24L116.55,29.5z
			 M111.76,16.47l5.31,11.01l15.98-11.24l-6.42-10.13c-0.33-0.43-0.96-0.52-1.4-0.2L111.76,16.47z"/>
		<path class="st0" d="M135.58,21.11L115,28.52l-4.08-12.25l18.38-7.61c0.87-0.32,1.84,0.14,2.15,1.01L135.58,21.11z"/>
		<path class="st1" d="M114.58,29.39l-4.5-13.49l18.99-7.87c1.22-0.44,2.57,0.19,3.01,1.41l4.36,12.07L114.58,29.39z M111.76,16.66
			l3.67,11l19.3-6.95l-3.9-10.8c-0.19-0.52-0.76-0.79-1.28-0.61L111.76,16.66z"/>
		<path class="st0" d="M132.32,35.23h-19.01c-1.91,0-3.46-1.55-3.46-3.46v-13.3c0-1.91,1.55-3.46,3.46-3.46h19.01
			c1.91,0,3.46,1.55,3.46,3.46v13.3C135.78,33.68,134.23,35.23,132.32,35.23"/>
		<path class="st1" d="M132.32,35.91h-19.01c-2.28,0-4.13-1.85-4.13-4.13v-13.3c0-2.28,1.85-4.13,4.13-4.13h19.01
			c2.28,0,4.13,1.85,4.13,4.13v13.3C136.45,34.05,134.59,35.91,132.32,35.91z M113.31,15.69c-1.54,0-2.79,1.25-2.79,2.79v13.3
			c0,1.54,1.25,2.79,2.79,2.79h19.01c1.54,0,2.79-1.25,2.79-2.79v-13.3c0-1.54-1.25-2.79-2.79-2.79H113.31z"/>
		<path class="st0" d="M136.42,29.93h-1.76c-1.3,0-2.36-1.06-2.36-2.36v-3.35c0-1.3,1.06-2.36,2.36-2.36h1.76
			c1.3,0,2.36,1.06,2.36,2.36v3.35C138.78,28.87,137.72,29.93,136.42,29.93"/>
		<path class="st1" d="M136.42,30.6h-1.76c-1.67,0-3.03-1.36-3.03-3.03v-3.35c0-1.67,1.36-3.03,3.03-3.03h1.76
			c1.67,0,3.03,1.36,3.03,3.03v3.35C139.45,29.24,138.09,30.6,136.42,30.6z M134.66,22.54c-0.93,0-1.69,0.76-1.69,1.69v3.35
			c0,0.93,0.76,1.69,1.69,1.69h1.76c0.93,0,1.69-0.76,1.69-1.69v-3.35c0-0.93-0.76-1.69-1.69-1.69H134.66z"/>
		<path class="st2" d="M130.96,23.41c-0.12-0.09-0.27-0.08-0.38,0.03c-1,0.97-4.06,3.93-8.65,3.85c-4.44-0.08-7.27-2.39-8.57-3.76
			c-0.11-0.11-0.27-0.12-0.39-0.03c-0.12,0.09-0.15,0.25-0.07,0.38c1.14,1.92,3.83,5.15,9.03,5.28c0.11,0,0.21,0,0.31,0
			c2.31,0,4.32-0.65,5.98-1.93c1.46-1.12,2.34-2.5,2.83-3.46C131.11,23.65,131.08,23.5,130.96,23.41"/>
		<path class="st1" d="M135.18,26.01c0,0.49-0.4,0.89-0.89,0.89c-0.49,0-0.89-0.4-0.89-0.89c0-0.49,0.4-0.89,0.89-0.89
			C134.78,25.12,135.18,25.52,135.18,26.01"/>
	</g>
</g>
</svg>
