<?xml version="1.0" encoding="utf-8"?>
<!-- Generator: Adobe Illustrator 24.2.3, SVG Export Plug-In . SVG Version: 6.00 Build 0)  -->
<svg version="1.1" id="Capa_1" xmlns="http://www.w3.org/2000/svg" xmlns:xlink="http://www.w3.org/1999/xlink" x="0px" y="0px"
	 viewBox="0 0 140.45 38.58" style="enable-background:new 0 0 140.45 38.58;" xml:space="preserve">
<style type="text/css">
	.st0{fill:#139AD7;}
	.st1{fill:#1D4D94;}
	.st2{fill:#FFFFFF;}
	.st3{fill:#86BE58;}
	.st4{fill:#BDD57C;}
	.st5{fill:#2A8A4A;}
	.st6{fill:#A4C962;}
	.st7{fill:#7BBA5B;}
</style>
<g>
	<path class="st0" d="M-51.18,87.34h-106.65c-5.21,0-9.47-4.26-9.47-9.47V65.41c0-5.21,4.26-9.47,9.47-9.47h106.65
		c5.21,0,9.47,4.26,9.47,9.47v12.46C-41.72,83.08-45.98,87.34-51.18,87.34z"/>
	<g>
		<path class="st0" d="M-35.41,68.02l-17.15,12.07l-5.89-12.21l13.91-10.9c0.75-0.55,1.8-0.39,2.35,0.35L-35.41,68.02z"/>
		<path class="st1" d="M-52.82,81.09l-6.47-13.41l14.34-11.23c1.06-0.78,2.54-0.56,3.31,0.48l0.03,0.04l7.12,11.24L-52.82,81.09z
			 M-57.61,68.07l5.31,11.01l15.98-11.24l-6.42-10.13c-0.33-0.43-0.96-0.52-1.4-0.2L-57.61,68.07z"/>
		<path class="st0" d="M-33.79,72.71l-20.58,7.41l-4.08-12.25l18.38-7.61c0.87-0.32,1.84,0.14,2.15,1.01L-33.79,72.71z"/>
		<path class="st1" d="M-54.79,80.99l-4.5-13.49l18.99-7.87c1.22-0.44,2.57,0.19,3.01,1.41l4.36,12.07L-54.79,80.99z M-57.61,68.25
			l3.67,11l19.3-6.95l-3.9-10.8c-0.19-0.52-0.76-0.79-1.28-0.61L-57.61,68.25z"/>
		<path class="st0" d="M-37.06,86.83h-19.01c-1.91,0-3.46-1.55-3.46-3.46v-13.3c0-1.91,1.55-3.46,3.46-3.46h19.01
			c1.91,0,3.46,1.55,3.46,3.46v13.3C-33.6,85.28-35.15,86.83-37.06,86.83"/>
		<path class="st1" d="M-37.06,87.5h-19.01c-2.28,0-4.13-1.85-4.13-4.13v-13.3c0-2.28,1.85-4.13,4.13-4.13h19.01
			c2.28,0,4.13,1.85,4.13,4.13v13.3C-32.93,85.65-34.78,87.5-37.06,87.5z M-56.07,67.28c-1.54,0-2.79,1.25-2.79,2.79v13.3
			c0,1.54,1.25,2.79,2.79,2.79h19.01c1.54,0,2.79-1.25,2.79-2.79v-13.3c0-1.54-1.25-2.79-2.79-2.79H-56.07z"/>
		<path class="st0" d="M-32.95,81.52h-1.76c-1.3,0-2.36-1.06-2.36-2.36v-3.35c0-1.3,1.06-2.36,2.36-2.36h1.76
			c1.3,0,2.36,1.06,2.36,2.36v3.35C-30.6,80.47-31.65,81.52-32.95,81.52"/>
		<path class="st1" d="M-32.95,82.19h-1.76c-1.67,0-3.03-1.36-3.03-3.03v-3.35c0-1.67,1.36-3.03,3.03-3.03h1.76
			c1.67,0,3.03,1.36,3.03,3.03v3.35C-29.92,80.84-31.28,82.19-32.95,82.19z M-34.71,74.13c-0.93,0-1.69,0.76-1.69,1.69v3.35
			c0,0.93,0.76,1.69,1.69,1.69h1.76c0.93,0,1.69-0.76,1.69-1.69v-3.35c0-0.93-0.76-1.69-1.69-1.69H-34.71z"/>
		<path class="st2" d="M-38.41,75.01c-0.12-0.09-0.27-0.08-0.38,0.03c-1,0.97-4.06,3.93-8.65,3.85c-4.44-0.08-7.27-2.39-8.57-3.76
			c-0.11-0.11-0.27-0.12-0.39-0.03c-0.12,0.09-0.15,0.25-0.07,0.38c1.14,1.92,3.83,5.15,9.03,5.28c0.11,0,0.21,0,0.31,0
			c2.31,0,4.32-0.65,5.98-1.93c1.46-1.12,2.34-2.5,2.83-3.46C-38.26,75.24-38.3,75.09-38.41,75.01"/>
		<path class="st1" d="M-34.19,77.61c0,0.49-0.4,0.89-0.89,0.89c-0.49,0-0.89-0.4-0.89-0.89c0-0.49,0.4-0.89,0.89-0.89
			C-34.59,76.72-34.19,77.12-34.19,77.61"/>
	</g>
	<text transform="matrix(0.9373 0 0 1 -144.9775 77.8769)" style="fill:#F2F2F2; font-family:'Montserrat-Bold'; font-size:11px;">Registrarse</text>
</g>
<g>
	<path class="st3" d="M118.19,34.91H11.54c-5.21,0-9.47-4.26-9.47-9.47V12.98c0-5.21,4.26-9.47,9.47-9.47h106.65
		c5.21,0,9.47,4.26,9.47,9.47v12.46C127.66,30.65,123.4,34.91,118.19,34.91z"/>
	<g>
		<path class="st4" d="M133.96,15.59l-17.15,12.07l-5.89-12.21l13.91-10.9c0.75-0.55,1.8-0.39,2.35,0.35L133.96,15.59z"/>
		<path class="st5" d="M116.55,28.66l-6.47-13.41l14.34-11.23c1.06-0.78,2.54-0.56,3.31,0.48l0.03,0.04l7.12,11.24L116.55,28.66z
			 M111.76,15.64l5.31,11.01l15.98-11.24l-6.42-10.13c-0.33-0.43-0.96-0.52-1.4-0.2L111.76,15.64z"/>
		<path class="st6" d="M135.58,20.27L115,27.69l-4.08-12.25l18.38-7.61c0.87-0.32,1.84,0.14,2.15,1.01L135.58,20.27z"/>
		<path class="st5" d="M114.58,28.55l-4.5-13.49l18.99-7.87c1.22-0.44,2.57,0.19,3.01,1.41l4.36,12.07L114.58,28.55z M111.76,15.82
			l3.67,11l19.3-6.95l-3.9-10.8c-0.19-0.52-0.76-0.79-1.28-0.61L111.76,15.82z"/>
		<path class="st3" d="M132.32,34.4h-19.01c-1.91,0-3.46-1.55-3.46-3.46v-13.3c0-1.91,1.55-3.46,3.46-3.46h19.01
			c1.91,0,3.46,1.55,3.46,3.46v13.3C135.78,32.85,134.23,34.4,132.32,34.4"/>
		<path class="st5" d="M132.32,35.07h-19.01c-2.28,0-4.13-1.85-4.13-4.13v-13.3c0-2.28,1.85-4.13,4.13-4.13h19.01
			c2.28,0,4.13,1.85,4.13,4.13v13.3C136.45,33.22,134.59,35.07,132.32,35.07z M113.31,14.85c-1.54,0-2.79,1.25-2.79,2.79v13.3
			c0,1.54,1.25,2.79,2.79,2.79h19.01c1.54,0,2.79-1.25,2.79-2.79v-13.3c0-1.54-1.25-2.79-2.79-2.79H113.31z"/>
		<path class="st7" d="M136.42,29.09h-1.76c-1.3,0-2.36-1.06-2.36-2.36v-3.35c0-1.3,1.06-2.36,2.36-2.36h1.76
			c1.3,0,2.36,1.06,2.36,2.36v3.35C138.78,28.04,137.72,29.09,136.42,29.09"/>
		<path class="st5" d="M136.42,29.76h-1.76c-1.67,0-3.03-1.36-3.03-3.03v-3.35c0-1.67,1.36-3.03,3.03-3.03h1.76
			c1.67,0,3.03,1.36,3.03,3.03v3.35C139.45,28.4,138.09,29.76,136.42,29.76z M134.66,21.7c-0.93,0-1.69,0.76-1.69,1.69v3.35
			c0,0.93,0.76,1.69,1.69,1.69h1.76c0.93,0,1.69-0.76,1.69-1.69v-3.35c0-0.93-0.76-1.69-1.69-1.69H134.66z"/>
		<path class="st2" d="M130.96,22.57c-0.12-0.09-0.27-0.08-0.38,0.03c-1,0.97-4.06,3.93-8.65,3.85c-4.44-0.08-7.27-2.39-8.57-3.76
			c-0.11-0.11-0.27-0.12-0.39-0.03c-0.12,0.09-0.15,0.25-0.07,0.38c1.14,1.92,3.83,5.15,9.03,5.28c0.11,0,0.21,0,0.31,0
			c2.31,0,4.32-0.65,5.98-1.93c1.46-1.12,2.34-2.5,2.83-3.46C131.11,22.81,131.08,22.66,130.96,22.57"/>
		<path class="st5" d="M135.18,25.18c0,0.49-0.4,0.89-0.89,0.89c-0.49,0-0.89-0.4-0.89-0.89c0-0.49,0.4-0.89,0.89-0.89
			C134.78,24.29,135.18,24.69,135.18,25.18"/>
	</g>
</g>
</svg>
