<?xml version="1.0" encoding="utf-8"?>
<!-- Generator: Adobe Illustrator 24.2.3, SVG Export Plug-In . SVG Version: 6.00 Build 0)  -->
<svg version="1.1" id="Capa_1" xmlns="http://www.w3.org/2000/svg" xmlns:xlink="http://www.w3.org/1999/xlink" x="0px" y="0px"
	 viewBox="0 0 198.76 35.28" style="enable-background:new 0 0 198.76 35.28;" xml:space="preserve">
<style type="text/css">
	.st0{fill:#139AD7;}
	.st1{fill:#233A75;}
	.st2{fill:#FFFFFF;}
</style>
<g>
	<path id="Rectángulo_81_6_" class="st0" d="M10.53,2.13h165.24c4.73,0,8.56,3.69,8.56,8.23v15.01c0,4.55-3.83,8.23-8.56,8.23
		H10.53c-4.73,0-8.56-3.69-8.56-8.23V10.36C1.97,5.81,5.8,2.13,10.53,2.13z"/>
	<g id="Grupo_378_6_">
		<path id="Trazado_826_6_" class="st0" d="M191.32,14.44l-17.47,12.29l-6-12.44l14.17-11.11c0.76-0.56,1.83-0.4,2.4,0.36
			L191.32,14.44z"/>
		<path id="Trazado_827_6_" class="st1" d="M173.59,27.75L167,14.09L181.6,2.64c1.07-0.79,2.57-0.58,3.37,0.49c0,0,0,0,0,0L185,3.18
			l7.25,11.45L173.59,27.75z M168.71,14.49l5.41,11.22l16.28-11.45l-6.54-10.32c-0.34-0.44-0.98-0.53-1.43-0.2L168.71,14.49z"/>
		<path id="Trazado_828_6_" class="st0" d="M192.97,19.21l-20.96,7.55l-4.16-12.48l18.72-7.76c0.89-0.32,1.87,0.14,2.19,1.03
			L192.97,19.21z"/>
		<path id="Trazado_829_6_" class="st1" d="M171.58,27.65L167,13.9l19.34-8.01c1.25-0.45,2.62,0.2,3.07,1.44l4.44,12.29
			L171.58,27.65z M168.7,14.68l3.73,11.21l19.66-7.08l-3.98-11.01c-0.19-0.53-0.77-0.8-1.3-0.62L168.7,14.68z"/>
		<path id="Trazado_830_6_" class="st0" d="M189.65,33.6h-19.37c-1.95,0-3.52-1.58-3.52-3.52c0,0,0,0,0,0V16.53
			c0-1.95,1.58-3.52,3.52-3.52h19.37c1.95,0,3.52,1.58,3.52,3.52c0,0,0,0,0,0v13.55C193.17,32.02,191.59,33.6,189.65,33.6"/>
		<path id="Trazado_831_6_" class="st1" d="M189.65,34.28h-19.37c-2.32,0-4.21-1.88-4.21-4.21V16.53c0-2.32,1.89-4.21,4.21-4.21
			h19.37c2.32,0,4.21,1.89,4.21,4.21v13.55C193.85,32.4,191.97,34.28,189.65,34.28z M170.28,13.69c-1.57,0-2.84,1.27-2.84,2.84
			v13.55c0,1.57,1.27,2.84,2.84,2.84h19.37c1.57,0,2.84-1.27,2.84-2.84V16.53c0-1.57-1.27-2.84-2.84-2.84H170.28z"/>
		<path id="Trazado_832_6_" class="st0" d="M193.83,28.19h-1.79c-1.33,0-2.4-1.07-2.4-2.4c0,0,0,0,0,0v-3.41
			c0-1.33,1.07-2.4,2.4-2.4c0,0,0,0,0,0h1.79c1.33,0,2.4,1.08,2.4,2.4v3.41C196.23,27.12,195.15,28.19,193.83,28.19
			C193.83,28.19,193.83,28.19,193.83,28.19"/>
		<path id="Trazado_833_6_" class="st1" d="M193.83,28.88h-1.79c-1.7,0-3.08-1.38-3.09-3.09v-3.41c0-1.7,1.38-3.08,3.09-3.09h1.79
			c1.7,0,3.08,1.38,3.09,3.09v3.41C196.91,27.49,195.53,28.87,193.83,28.88z M192.04,20.67c-0.95,0-1.72,0.77-1.72,1.72v3.41
			c0,0.95,0.77,1.72,1.72,1.72h1.79c0.95,0,1.72-0.77,1.72-1.72v-3.41c0-0.95-0.77-1.72-1.72-1.72H192.04z"/>
		<path id="Trazado_835_6_" class="st2" d="M192.57,24.21c0,0.5-0.41,0.91-0.91,0.91c-0.5,0-0.91-0.41-0.91-0.91
			c0-0.5,0.41-0.91,0.91-0.91C192.16,23.3,192.57,23.71,192.57,24.21"/>
		<path class="st2" d="M187.7,21.61c-0.11-0.08-0.25-0.07-0.35,0.02c-0.93,0.9-3.75,3.64-8,3.56c-4.1-0.07-6.73-2.21-7.93-3.47
			c-0.1-0.1-0.25-0.12-0.36-0.03c-0.11,0.09-0.14,0.23-0.07,0.35c1.06,1.77,3.55,4.77,8.35,4.89c0.1,0,0.19,0,0.29,0
			c2.13,0,3.99-0.6,5.53-1.78c1.35-1.04,2.17-2.31,2.61-3.2C187.85,21.83,187.81,21.69,187.7,21.61"/>
	</g>
</g>
</svg>
