<?xml version="1.0" encoding="utf-8"?>
<!-- Generator: Adobe Illustrator 24.2.3, SVG Export Plug-In . SVG Version: 6.00 Build 0)  -->
<svg version="1.1" id="Capa_1" xmlns="http://www.w3.org/2000/svg" xmlns:xlink="http://www.w3.org/1999/xlink" x="0px" y="0px"
	 viewBox="0 0 219.44 40.38" style="enable-background:new 0 0 219.44 40.38;" xml:space="preserve">
<style type="text/css">
	.st0{fill:#139AD7;}
	.st1{fill:#233A75;}
	.st2{fill:#FFFFFF;}
</style>
<g id="Grupo_379_3_" transform="translate(-4650 -1111)">
	<path id="Rectángulo_81_3_" class="st0" d="M4661.28,1112.97h182.83c5.23,0,9.47,4.24,9.47,9.47v17.26c0,5.23-4.24,9.47-9.47,9.47
		h-182.83c-5.23,0-9.47-4.24-9.47-9.47v-17.26C4651.81,1117.21,4656.05,1112.97,4661.28,1112.97z"/>
	<g id="Grupo_378_3_">
		<path id="Trazado_826_3_" class="st0" d="M4860.85,1126.9l-19.77,13.91l-6.79-14.08l16.04-12.57c0.86-0.63,2.08-0.45,2.71,0.41
			L4860.85,1126.9z"/>
		<path id="Trazado_827_3_" class="st1" d="M4840.78,1141.97l-7.46-15.46l16.53-12.95c1.21-0.9,2.91-0.65,3.81,0.55c0,0,0,0,0,0
			l0.03,0.05l8.21,12.95L4840.78,1141.97z M4835.26,1126.95l6.12,12.69l18.42-12.96l-7.4-11.68c-0.39-0.5-1.1-0.6-1.61-0.23
			L4835.26,1126.95z"/>
		<path id="Trazado_828_3_" class="st0" d="M4862.71,1132.3l-23.72,8.55l-4.71-14.12l21.19-8.78c1.01-0.36,2.12,0.16,2.48,1.17
			L4862.71,1132.3z"/>
		<path id="Trazado_829_3_" class="st1" d="M4838.51,1141.84l-5.18-15.55l21.88-9.07c1.41-0.51,2.96,0.22,3.47,1.63l5.02,13.91
			L4838.51,1141.84z M4835.25,1127.17l4.23,12.68l22.24-8.02l-4.5-12.45c-0.22-0.6-0.88-0.91-1.48-0.7L4835.25,1127.17z"/>
		<path id="Trazado_830_3_" class="st0" d="M4858.95,1148.58h-21.91c-2.2,0-3.99-1.78-3.99-3.99c0,0,0,0,0,0v-15.33
			c0-2.2,1.79-3.99,3.99-3.99h21.91c2.2,0,3.99,1.79,3.99,3.99c0,0,0,0,0,0v15.33C4862.94,1146.79,4861.15,1148.58,4858.95,1148.58"
			/>
		<path id="Trazado_831_3_" class="st1" d="M4858.95,1149.35h-21.91c-2.63,0-4.76-2.13-4.76-4.76v-15.33c0-2.63,2.13-4.76,4.76-4.76
			h21.91c2.63,0,4.76,2.13,4.76,4.76v15.33C4863.71,1147.22,4861.58,1149.35,4858.95,1149.35z M4837.03,1126.05
			c-1.77,0-3.21,1.44-3.21,3.21v15.33c0,1.77,1.44,3.21,3.21,3.21h21.91c1.77,0,3.21-1.44,3.21-3.21v-15.33
			c0-1.77-1.44-3.21-3.21-3.21H4837.03z"/>
		<path id="Trazado_832_3_" class="st0" d="M4863.68,1142.46h-2.02c-1.5,0-2.72-1.22-2.72-2.72c0,0,0,0,0,0v-3.86
			c0-1.5,1.22-2.72,2.72-2.72c0,0,0,0,0,0h2.02c1.5,0,2.72,1.22,2.72,2.72v3.86C4866.4,1141.25,4865.18,1142.46,4863.68,1142.46
			C4863.68,1142.46,4863.68,1142.46,4863.68,1142.46"/>
		<path id="Trazado_833_3_" class="st1" d="M4863.68,1143.24h-2.02c-1.93,0-3.49-1.57-3.49-3.49v-3.86c0-1.93,1.57-3.49,3.49-3.49
			h2.02c1.93,0,3.49,1.57,3.49,3.49v3.86C4867.17,1141.67,4865.6,1143.23,4863.68,1143.24z M4861.65,1133.95
			c-1.07,0-1.94,0.87-1.94,1.94v3.86c0,1.07,0.87,1.94,1.94,1.94h2.02c1.07,0,1.94-0.87,1.94-1.94v-3.86c0-1.07-0.87-1.94-1.94-1.94
			H4861.65z"/>
		<path id="Trazado_835_3_" class="st1" d="M4862.25,1137.95c0,0.57-0.46,1.03-1.03,1.03c-0.57,0-1.03-0.46-1.02-1.03
			c0-0.57,0.46-1.02,1.02-1.03C4861.79,1136.93,4862.25,1137.39,4862.25,1137.95"/>
		<g>
			<path class="st2" d="M4840.88,1143.08l0.85-3.02c-0.55-0.93-0.83-1.99-0.83-3.07c0-3.34,2.72-6.06,6.06-6.06s6.06,2.72,6.06,6.06
				c0,3.34-2.72,6.06-6.06,6.06c-1.04,0-2.06-0.27-2.96-0.77L4840.88,1143.08z M4844.15,1141.18l0.19,0.11
				c0.79,0.48,1.69,0.73,2.62,0.73c2.78,0,5.03-2.26,5.03-5.03c0-2.78-2.26-5.03-5.03-5.03c-2.77,0-5.03,2.26-5.03,5.03
				c0,0.97,0.27,1.91,0.79,2.72l0.13,0.19l-0.49,1.74L4844.15,1141.18z"/>
			<path class="st2" d="M4845.25,1134.17l-0.39-0.02c-0.12-0.01-0.24,0.03-0.34,0.12c-0.19,0.17-0.5,0.49-0.59,0.9
				c-0.14,0.62,0.08,1.38,0.63,2.15c0.56,0.76,1.6,1.98,3.44,2.5c0.59,0.17,1.06,0.05,1.42-0.18c0.29-0.18,0.48-0.48,0.55-0.81
				l0.06-0.29c0.02-0.09-0.03-0.19-0.11-0.23l-1.33-0.61c-0.09-0.04-0.19-0.01-0.25,0.06l-0.52,0.68c-0.04,0.05-0.11,0.07-0.17,0.05
				c-0.36-0.13-1.55-0.63-2.21-1.89c-0.03-0.05-0.02-0.12,0.02-0.17l0.5-0.58c0.05-0.06,0.06-0.14,0.03-0.21l-0.57-1.34
				C4845.4,1134.22,4845.33,1134.18,4845.25,1134.17z"/>
		</g>
	</g>
</g>
</svg>
