<?xml version="1.0" encoding="utf-8"?>
<!-- Generator: Adobe Illustrator 24.2.3, SVG Export Plug-In . SVG Version: 6.00 Build 0)  -->
<svg version="1.1" id="Capa_1" xmlns="http://www.w3.org/2000/svg" xmlns:xlink="http://www.w3.org/1999/xlink" x="0px" y="0px"
	 viewBox="0 0 160.62 38.87" style="enable-background:new 0 0 160.62 38.87;" xml:space="preserve">
<style type="text/css">
	.st0{fill:#86BE58;}
	.st1{fill:#BDD57C;}
	.st2{fill:#2A8A4A;}
	.st3{fill:#A4C962;}
	.st4{fill:#7BBA5B;}
	.st5{fill:#FFFFFF;}
</style>
<g id="Grupo_379_10_" transform="translate(-4650 -1111)">
	<path id="Rectángulo_81_10_" class="st0" d="M4660.55,1112.46h125.83c5.23,0,9.47,4.24,9.47,9.47v17.26
		c0,5.23-4.24,9.47-9.47,9.47h-125.83c-5.23,0-9.47-4.24-9.47-9.47v-17.26C4651.09,1116.7,4655.32,1112.46,4660.55,1112.46z"/>
	<g id="Grupo_378_10_">
		<path id="Trazado_826_10_" class="st1" d="M4803.12,1126.39l-19.77,13.91l-6.79-14.08l16.04-12.57c0.86-0.63,2.08-0.45,2.71,0.41
			L4803.12,1126.39z"/>
		<path id="Trazado_827_10_" class="st2" d="M4783.05,1141.46l-7.46-15.46l16.53-12.95c1.21-0.9,2.91-0.65,3.81,0.55c0,0,0,0,0,0
			l0.03,0.05l8.21,12.95L4783.05,1141.46z M4777.53,1126.44l6.12,12.69l18.42-12.96l-7.4-11.68c-0.39-0.5-1.1-0.6-1.61-0.23
			L4777.53,1126.44z"/>
		<path id="Trazado_828_10_" class="st3" d="M4804.99,1131.79l-23.72,8.55l-4.71-14.12l21.19-8.78c1.01-0.36,2.12,0.16,2.48,1.17
			L4804.99,1131.79z"/>
		<path id="Trazado_829_10_" class="st2" d="M4780.79,1141.33l-5.18-15.55l21.88-9.07c1.41-0.51,2.96,0.22,3.47,1.63l5.02,13.91
			L4780.79,1141.33z M4777.53,1126.66l4.23,12.68l22.24-8.02l-4.5-12.45c-0.22-0.6-0.88-0.91-1.48-0.7L4777.53,1126.66z"/>
		<path id="Trazado_830_10_" class="st0" d="M4801.23,1148.07h-21.91c-2.2,0-3.99-1.78-3.99-3.99c0,0,0,0,0,0v-15.33
			c0-2.2,1.79-3.99,3.99-3.99h21.91c2.2,0,3.99,1.79,3.99,3.99c0,0,0,0,0,0v15.33C4805.21,1146.28,4803.43,1148.07,4801.23,1148.07"
			/>
		<path id="Trazado_831_10_" class="st2" d="M4801.23,1148.84h-21.91c-2.63,0-4.76-2.13-4.76-4.76v-15.33
			c0-2.63,2.13-4.76,4.76-4.76h21.91c2.63,0,4.76,2.13,4.76,4.76v15.33C4805.98,1146.71,4803.85,1148.84,4801.23,1148.84z
			 M4779.31,1125.54c-1.77,0-3.21,1.44-3.21,3.21v15.33c0,1.77,1.44,3.21,3.21,3.21h21.91c1.77,0,3.21-1.44,3.21-3.21v-15.33
			c0-1.77-1.44-3.21-3.21-3.21H4779.31z"/>
		<path id="Trazado_832_10_" class="st4" d="M4805.95,1141.95h-2.02c-1.5,0-2.72-1.22-2.72-2.72c0,0,0,0,0,0v-3.86
			c0-1.5,1.22-2.72,2.72-2.72c0,0,0,0,0,0h2.02c1.5,0,2.72,1.22,2.72,2.72v3.86C4808.67,1140.74,4807.46,1141.95,4805.95,1141.95
			C4805.95,1141.95,4805.95,1141.95,4805.95,1141.95"/>
		<path id="Trazado_833_10_" class="st2" d="M4805.95,1142.73h-2.02c-1.93,0-3.49-1.57-3.49-3.49v-3.86c0-1.93,1.57-3.49,3.49-3.49
			h2.02c1.93,0,3.49,1.57,3.49,3.49v3.86C4809.44,1141.16,4807.88,1142.72,4805.95,1142.73z M4803.93,1133.44
			c-1.07,0-1.94,0.87-1.94,1.94v3.86c0,1.07,0.87,1.94,1.94,1.94h2.02c1.07,0,1.94-0.87,1.94-1.94v-3.86c0-1.07-0.87-1.94-1.94-1.94
			H4803.93z"/>
		<path id="Trazado_834_6_" class="st5" d="M4799.66,1134.44c-0.13-0.1-0.32-0.09-0.43,0.03c-1.16,1.12-4.68,4.53-9.97,4.44
			c-3.74-0.05-7.31-1.61-9.88-4.33c-0.13-0.14-0.34-0.14-0.48-0.02c-0.12,0.11-0.14,0.28-0.06,0.42c2.14,3.73,6.11,6.05,10.41,6.09
			c0.12,0,0.24,0,0.36,0c2.48,0.06,4.91-0.73,6.89-2.22c1.37-1.07,2.48-2.43,3.26-3.99
			C4799.84,1134.72,4799.8,1134.54,4799.66,1134.44"/>
		<path id="Trazado_835_10_" class="st2" d="M4804.53,1137.44c0,0.57-0.46,1.03-1.03,1.03c-0.57,0-1.03-0.46-1.02-1.03
			c0-0.57,0.46-1.02,1.02-1.03C4804.07,1136.42,4804.53,1136.88,4804.53,1137.44"/>
	</g>
</g>
</svg>
