<?xml version="1.0" encoding="utf-8"?>
<!-- Generator: Adobe Illustrator 24.2.3, SVG Export Plug-In . SVG Version: 6.00 Build 0)  -->
<svg version="1.1" id="Capa_1" xmlns="http://www.w3.org/2000/svg" xmlns:xlink="http://www.w3.org/1999/xlink" x="0px" y="0px"
	 viewBox="0 0 219.44 40.38" style="enable-background:new 0 0 219.44 40.38;" xml:space="preserve">
<style type="text/css">
	.st0{fill:#139AD7;}
	.st1{fill:#233A75;}
	.st2{fill:#FFFFFF;}
</style>
<g id="Grupo_379_2_" transform="translate(-4650 -1111)">
	<path id="Rectángulo_81_2_" class="st0" d="M4661.68,1113.03h182.83c5.23,0,9.47,4.24,9.47,9.47v17.26c0,5.23-4.24,9.47-9.47,9.47
		h-182.83c-5.23,0-9.47-4.24-9.47-9.47v-17.26C4652.21,1117.26,4656.45,1113.03,4661.68,1113.03z"/>
	<g id="Grupo_378_2_">
		<path id="Trazado_826_2_" class="st0" d="M4861.24,1126.95l-19.77,13.91l-6.79-14.08l16.04-12.57c0.86-0.63,2.08-0.45,2.71,0.41
			L4861.24,1126.95z"/>
		<path id="Trazado_827_2_" class="st1" d="M4841.18,1142.02l-7.46-15.46l16.53-12.95c1.21-0.9,2.91-0.65,3.81,0.55c0,0,0,0,0,0
			l0.03,0.05l8.21,12.95L4841.18,1142.02z M4835.66,1127.01l6.12,12.69l18.42-12.96l-7.4-11.68c-0.39-0.5-1.1-0.6-1.61-0.23
			L4835.66,1127.01z"/>
		<path id="Trazado_828_2_" class="st0" d="M4863.11,1132.35l-23.72,8.55l-4.71-14.12l21.19-8.78c1.01-0.36,2.12,0.16,2.48,1.17
			L4863.11,1132.35z"/>
		<path id="Trazado_829_2_" class="st1" d="M4838.91,1141.9l-5.18-15.55l21.88-9.07c1.41-0.51,2.96,0.22,3.47,1.63l5.02,13.91
			L4838.91,1141.9z M4835.65,1127.22l4.23,12.68l22.24-8.02l-4.5-12.45c-0.22-0.6-0.88-0.91-1.48-0.7L4835.65,1127.22z"/>
		<path id="Trazado_830_2_" class="st0" d="M4859.35,1148.63h-21.91c-2.2,0-3.99-1.78-3.99-3.99c0,0,0,0,0,0v-15.33
			c0-2.2,1.79-3.99,3.99-3.99h21.91c2.2,0,3.99,1.79,3.99,3.99c0,0,0,0,0,0v15.33C4863.33,1146.85,4861.55,1148.63,4859.35,1148.63"
			/>
		<path id="Trazado_831_2_" class="st1" d="M4859.35,1149.41h-21.91c-2.63,0-4.76-2.13-4.76-4.76v-15.33c0-2.63,2.13-4.76,4.76-4.76
			h21.91c2.63,0,4.76,2.13,4.76,4.76v15.33C4864.11,1147.27,4861.98,1149.4,4859.35,1149.41z M4837.43,1126.1
			c-1.77,0-3.21,1.44-3.21,3.21v15.33c0,1.77,1.44,3.21,3.21,3.21h21.91c1.77,0,3.21-1.44,3.21-3.21v-15.33
			c0-1.77-1.44-3.21-3.21-3.21H4837.43z"/>
		<path id="Trazado_832_2_" class="st0" d="M4864.08,1142.51h-2.02c-1.5,0-2.72-1.22-2.72-2.72c0,0,0,0,0,0v-3.86
			c0-1.5,1.22-2.72,2.72-2.72c0,0,0,0,0,0h2.02c1.5,0,2.72,1.22,2.72,2.72v3.86C4866.79,1141.3,4865.58,1142.51,4864.08,1142.51
			C4864.08,1142.51,4864.08,1142.51,4864.08,1142.51"/>
		<path id="Trazado_833_2_" class="st1" d="M4864.08,1143.29h-2.02c-1.93,0-3.49-1.57-3.49-3.49v-3.86c0-1.93,1.57-3.49,3.49-3.49
			h2.02c1.93,0,3.49,1.57,3.49,3.49v3.86C4867.56,1141.72,4866,1143.29,4864.08,1143.29z M4862.05,1134c-1.07,0-1.94,0.87-1.94,1.94
			v3.86c0,1.07,0.87,1.94,1.94,1.94h2.02c1.07,0,1.94-0.87,1.94-1.94v-3.86c0-1.07-0.87-1.94-1.94-1.94H4862.05z"/>
		<path id="Trazado_835_2_" class="st1" d="M4862.65,1138.01c0,0.57-0.46,1.03-1.03,1.03c-0.57,0-1.03-0.46-1.02-1.03
			c0-0.57,0.46-1.02,1.02-1.03C4862.19,1136.98,4862.65,1137.44,4862.65,1138.01"/>
		<path class="st2" d="M4851.95,1128.56h-7.65c-0.73,0-1.32,0.53-1.32,1.19v13.95c0,0.66,0.59,1.19,1.32,1.19h7.65
			c0.73,0,1.32-0.53,1.32-1.19v-13.95C4853.27,1129.09,4852.68,1128.56,4851.95,1128.56z M4846.23,1129.28h3.78
			c0.1,0,0.17,0.13,0.17,0.29c0,0.16-0.08,0.29-0.17,0.29h-3.78c-0.1,0-0.17-0.13-0.17-0.29
			C4846.06,1129.41,4846.14,1129.28,4846.23,1129.28z M4848.12,1143.71c-0.47,0-0.85-0.34-0.85-0.76c0-0.42,0.38-0.76,0.85-0.76
			c0.46,0,0.84,0.34,0.84,0.76C4848.97,1143.37,4848.59,1143.71,4848.12,1143.71z M4852.28,1141.11h-8.32v-10.55h8.32V1141.11z"/>
	</g>
</g>
</svg>
