<?xml version="1.0" encoding="utf-8"?>
<!-- Generator: Adobe Illustrator 24.2.3, SVG Export Plug-In . SVG Version: 6.00 Build 0)  -->
<svg version="1.1" id="Capa_1" xmlns="http://www.w3.org/2000/svg" xmlns:xlink="http://www.w3.org/1999/xlink" x="0px" y="0px"
	 viewBox="0 0 194.97 45.42" style="enable-background:new 0 0 194.97 45.42;" xml:space="preserve">
<style type="text/css">
	.st0{fill:#139AD7;}
	.st1{fill:#233A75;}
	.st2{fill:#FFFFFF;}
	.st3{font-family:'Montserrat-Bold';}
	.st4{font-size:21.5598px;}
</style>
<g id="Grupo_379_11_" transform="translate(-4650 -1111)">
	<path id="Rectángulo_81_11_" class="st0" d="M4661.9,1111.55h154.07c6.39,0,11.56,5.18,11.56,11.56v21.08
		c0,6.39-5.18,11.56-11.56,11.56H4661.9c-6.39,0-11.56-5.18-11.56-11.56v-21.08C4650.34,1116.73,4655.51,1111.55,4661.9,1111.55z"/>
	<g id="Grupo_378_11_">
		<path id="Trazado_826_11_" class="st0" d="M4836.42,1128.56l-24.14,16.99l-8.29-17.2l19.59-15.35c1.05-0.78,2.54-0.55,3.31,0.5
			L4836.42,1128.56z"/>
		<path id="Trazado_827_11_" class="st1" d="M4811.9,1146.97l-9.11-18.89l20.19-15.82c1.47-1.1,3.56-0.8,4.65,0.68c0,0,0,0,0,0
			l0.04,0.06l10.02,15.82L4811.9,1146.97z M4805.16,1128.63l7.48,15.51l22.5-15.83l-9.04-14.26c-0.47-0.61-1.35-0.73-1.97-0.28
			L4805.16,1128.63z"/>
		<path id="Trazado_828_11_" class="st0" d="M4838.7,1135.16l-28.97,10.44l-5.75-17.24l25.88-10.72c1.23-0.44,2.59,0.19,3.03,1.42
			L4838.7,1135.16z"/>
		<path id="Trazado_829_11_" class="st1" d="M4809.13,1146.82l-6.33-19l26.73-11.07c1.72-0.62,3.62,0.27,4.24,1.99l6.13,16.99
			L4809.13,1146.82z M4805.15,1128.89l5.16,15.49l27.17-9.79l-5.5-15.21c-0.27-0.73-1.07-1.11-1.8-0.85L4805.15,1128.89z"/>
		<path id="Trazado_830_11_" class="st0" d="M4834.1,1155.04h-26.77c-2.69,0-4.87-2.18-4.87-4.87c0,0,0,0,0,0v-18.73
			c0-2.69,2.18-4.87,4.87-4.87h26.77c2.69,0,4.87,2.18,4.87,4.87c0,0,0,0,0,0v18.73C4838.97,1152.86,4836.79,1155.04,4834.1,1155.04
			"/>
		<path id="Trazado_831_11_" class="st1" d="M4834.1,1155.99h-26.77c-3.21,0-5.81-2.61-5.82-5.82v-18.73c0-3.21,2.61-5.81,5.82-5.82
			h26.77c3.21,0,5.81,2.61,5.82,5.82v18.73C4839.91,1153.39,4837.31,1155.99,4834.1,1155.99z M4807.33,1127.52
			c-2.17,0-3.92,1.76-3.92,3.92v18.73c0,2.17,1.76,3.92,3.92,3.92h26.77c2.17,0,3.92-1.76,3.92-3.92v-18.73
			c0-2.17-1.76-3.92-3.92-3.92H4807.33z"/>
		<path id="Trazado_832_11_" class="st0" d="M4839.88,1147.57h-2.47c-1.83,0-3.32-1.48-3.32-3.32c0,0,0,0,0,0v-4.71
			c0-1.83,1.48-3.32,3.32-3.32c0,0,0,0,0,0h2.47c1.83,0,3.32,1.49,3.32,3.32v4.71C4843.2,1146.09,4841.71,1147.57,4839.88,1147.57
			C4839.88,1147.57,4839.88,1147.57,4839.88,1147.57"/>
		<path id="Trazado_833_11_" class="st1" d="M4839.88,1148.52h-2.47c-2.35-0.01-4.26-1.91-4.27-4.27v-4.71
			c0.01-2.35,1.91-4.26,4.27-4.27h2.47c2.35,0.01,4.26,1.91,4.27,4.27v4.71C4844.14,1146.61,4842.23,1148.51,4839.88,1148.52z
			 M4837.4,1137.17c-1.31,0-2.37,1.06-2.37,2.37v4.71c0,1.31,1.06,2.37,2.37,2.37h2.47c1.31,0,2.37-1.06,2.37-2.37v-4.71
			c0-1.31-1.06-2.37-2.37-2.37H4837.4z"/>
		<path id="Trazado_835_11_" class="st1" d="M4838.14,1142.07c0,0.69-0.56,1.25-1.25,1.25c-0.69,0-1.25-0.56-1.25-1.25
			c0-0.69,0.56-1.25,1.25-1.25C4837.57,1140.81,4838.14,1141.37,4838.14,1142.07"/>
		<text transform="matrix(1 0 0 1 4814.0972 1148.1093)" class="st2 st3 st4">$</text>
	</g>
</g>
</svg>
