<?xml version="1.0" encoding="utf-8"?>
<!-- Generator: Adobe Illustrator 24.2.3, SVG Export Plug-In . SVG Version: 6.00 Build 0)  -->
<svg version="1.1" id="Capa_1" xmlns="http://www.w3.org/2000/svg" xmlns:xlink="http://www.w3.org/1999/xlink" x="0px" y="0px"
	 viewBox="0 0 361.15 82.97" style="enable-background:new 0 0 361.15 82.97;" xml:space="preserve">
<style type="text/css">
	.st0{fill:#84BD56;}
	.st1{fill:#BDD57B;}
	.st2{fill:#298949;}
	.st3{fill:#A4C961;}
	.st4{fill:#7ABA5B;}
	.st5{fill:#FFFFFF;}
	.st6{enable-background:new    ;}
</style>
<g id="Capa_2_1_">
	<g id="Elementos_interactivos">
		<path class="st0" d="M9.47,0h311.21c5.23,0,9.47,4.24,9.47,9.47v63.6c0,5.23-4.24,9.47-9.47,9.47H9.47C4.24,82.54,0,78.3,0,73.07
			V9.47C0,4.24,4.24,0,9.47,0z"/>
		<path class="st1" d="M346.73,31.76l-45.08,31.72l-15.49-32.11l36.57-28.66c1.97-1.45,4.74-1.03,6.19,0.93L346.73,31.76z"/>
		<path class="st2" d="M301,66.12l-17-35.26l37.64-29.54c2.75-2.05,6.65-1.48,8.7,1.27l0.07,0.11l18.71,29.53L301,66.12z
			 M288.37,31.88l14,29l42-29.55L327.46,4.65c-0.88-1.14-2.51-1.37-3.68-0.52L288.37,31.88z"/>
		<path class="st3" d="M351,44.07l-54.11,19.49l-10.73-32.19l48.31-20c2.29-0.83,4.82,0.34,5.66,2.63L351,44.07z"/>
		<path class="st2" d="M295.79,65.84L284,30.37l49.87-20.68c3.21-1.16,6.76,0.51,7.92,3.72l11.46,31.73L295.79,65.84z M288.36,32.37
			L298,61.29L348.72,43l-10.25-28.4c-0.49-1.36-1.99-2.08-3.36-1.6L288.36,32.37z"/>
		<path class="st0" d="M342.4,81.2h-50c-5.02,0-9.09-4.07-9.09-9.09v-35c0-5.02,4.07-9.09,9.09-9.09h50c5.02,0,9.09,4.07,9.09,9.09
			v35C351.49,77.13,347.42,81.2,342.4,81.2"/>
		<path class="st2" d="M342.4,83h-50c-6-0.01-10.85-4.86-10.86-10.86v-35c0.01-6,4.86-10.85,10.86-10.86h50
			c6,0.01,10.85,4.86,10.86,10.86v35C353.25,78.14,348.4,82.99,342.4,83z M292.4,29.85c-4.04,0-7.32,3.28-7.32,7.32c0,0,0,0,0,0v35
			c0,4.04,3.28,7.32,7.32,7.33h50c4.05-0.01,7.32-3.28,7.33-7.33v-35c-0.01-4.04-3.29-7.32-7.33-7.32H292.4z"/>
		<path class="st4" d="M353.19,67.25h-4.62c-3.42,0.01-6.19-2.76-6.2-6.18c0,0,0-0.01,0-0.01v-8.8c0-3.42,2.78-6.2,6.2-6.2l0,0h4.62
			c3.42,0.01,6.19,2.78,6.19,6.2v8.8C359.38,64.48,356.61,67.25,353.19,67.25L353.19,67.25"/>
		<path class="st2" d="M353.19,69h-4.62c-4.42,0-8-3.58-8-8v-8.8c0-4.42,3.58-8,8-8h4.62c4.42,0,8,3.58,8,8V61
			C361.19,65.42,357.61,69,353.19,69z M348.57,47.81c-2.45,0-4.43,1.98-4.43,4.43v8.8c0,2.45,1.98,4.43,4.43,4.43h4.62
			c2.44-0.01,4.42-1.99,4.43-4.43v-8.8c-0.01-2.44-1.99-4.42-4.43-4.43L348.57,47.81z"/>
		<path class="st5" d="M338.83,50.12c-0.3-0.23-0.73-0.2-1,0.07c-2.63,2.56-10.66,10.34-22.74,10.12
			c-8.54-0.12-16.66-3.68-22.53-9.88c-0.3-0.31-0.78-0.31-1.09-0.02c-0.25,0.25-0.31,0.63-0.13,0.94
			c4.89,8.52,13.92,13.8,23.74,13.89h0.83c5.66,0.13,11.2-1.66,15.72-5.08c3.12-2.45,5.65-5.55,7.43-9.09
			c0.19-0.35,0.08-0.78-0.24-1"/>
		<path class="st2" d="M349.94,57c0.01,1.3-1.04,2.35-2.34,2.36c-1.3,0.01-2.35-1.04-2.36-2.34c-0.01-1.3,1.04-2.35,2.34-2.36
			c0.01,0,0.01,0,0.02,0C348.89,54.66,349.94,55.71,349.94,57"/>
		<g class="st6">
			<path class="st5" d="M20.08,52.36c-1.46-0.45-2.63-1.04-3.51-1.76l1.55-3.66c0.85,0.66,1.85,1.19,3.02,1.59
				c1.17,0.4,2.33,0.6,3.5,0.6c1.3,0,2.26-0.2,2.88-0.61c0.62-0.41,0.93-0.96,0.93-1.64c0-0.5-0.18-0.92-0.55-1.25
				s-0.84-0.59-1.41-0.79c-0.57-0.2-1.35-0.42-2.33-0.66c-1.5-0.38-2.74-0.76-3.69-1.14s-1.78-0.99-2.47-1.83
				c-0.69-0.84-1.03-1.96-1.03-3.36c0-1.22,0.31-2.33,0.93-3.31c0.62-0.99,1.56-1.77,2.81-2.36c1.25-0.58,2.78-0.87,4.58-0.87
				c1.26,0,2.49,0.16,3.69,0.48c1.2,0.32,2.26,0.78,3.16,1.38l-1.41,3.69c-1.82-1.1-3.65-1.65-5.47-1.65
				c-1.28,0-2.22,0.22-2.83,0.66c-0.61,0.44-0.92,1.02-0.92,1.74c0,0.72,0.35,1.26,1.06,1.6c0.71,0.35,1.78,0.7,3.23,1.04
				c1.5,0.38,2.74,0.76,3.69,1.14c0.96,0.38,1.78,0.98,2.47,1.8c0.69,0.82,1.03,1.93,1.03,3.33c0,1.2-0.32,2.29-0.94,3.29
				c-0.63,0.99-1.57,1.78-2.83,2.36c-1.26,0.58-2.79,0.87-4.6,0.87C23.05,53.03,21.54,52.8,20.08,52.36z"/>
			<path class="st5" d="M38.72,51.84c-1.27-0.71-2.26-1.69-2.98-2.95c-0.71-1.26-1.07-2.69-1.07-4.29c0-1.6,0.36-3.03,1.07-4.29
				c0.71-1.26,1.71-2.25,2.98-2.96s2.7-1.06,4.3-1.06c1.6,0,3.03,0.35,4.29,1.06c1.26,0.71,2.25,1.69,2.96,2.96
				c0.71,1.26,1.07,2.69,1.07,4.29c0,1.6-0.36,3.03-1.07,4.29c-0.71,1.26-1.7,2.24-2.96,2.95c-1.26,0.71-2.69,1.07-4.29,1.07
				C41.42,52.91,39.99,52.55,38.72,51.84z M45.8,47.86c0.72-0.81,1.09-1.89,1.09-3.26c0-1.36-0.36-2.45-1.09-3.25
				c-0.72-0.81-1.65-1.21-2.78-1.21s-2.06,0.41-2.79,1.21c-0.73,0.81-1.1,1.9-1.1,3.25c0,1.36,0.37,2.45,1.1,3.26
				c0.73,0.81,1.66,1.21,2.79,1.21S45.07,48.67,45.8,47.86z"/>
			<path class="st5" d="M54.27,30.41h4.4v22.26h-4.4V30.41z"/>
			<path class="st5" d="M62.99,33.53c-0.51-0.5-0.76-1.12-0.76-1.86c0-0.74,0.25-1.36,0.76-1.86c0.51-0.5,1.17-0.75,1.97-0.75
				c0.81,0,1.47,0.24,1.97,0.72c0.51,0.48,0.76,1.08,0.76,1.8c0,0.78-0.25,1.42-0.76,1.94c-0.51,0.51-1.17,0.76-1.97,0.76
				C64.15,34.28,63.49,34.03,62.99,33.53z M62.76,36.53h4.4v16.14h-4.4V36.53z"/>
			<path class="st5" d="M74.22,51.84c-1.29-0.71-2.29-1.69-3.02-2.95c-0.72-1.26-1.09-2.69-1.09-4.29c0-1.6,0.36-3.03,1.09-4.29
				c0.72-1.26,1.73-2.25,3.02-2.96s2.74-1.06,4.36-1.06c1.6,0,2.99,0.35,4.19,1.06c1.19,0.71,2.06,1.73,2.61,3.04l-3.41,1.95
				c-0.79-1.48-1.93-2.22-3.41-2.22c-1.15,0-2.1,0.4-2.85,1.2s-1.13,1.89-1.13,3.27c0,1.38,0.38,2.47,1.13,3.27s1.7,1.2,2.85,1.2
				c1.5,0,2.64-0.74,3.41-2.22l3.41,1.98c-0.55,1.28-1.42,2.28-2.61,3c-1.19,0.72-2.59,1.08-4.19,1.08
				C76.96,52.91,75.51,52.55,74.22,51.84z"/>
			<path class="st5" d="M88.14,33.53c-0.51-0.5-0.76-1.12-0.76-1.86c0-0.74,0.25-1.36,0.76-1.86c0.51-0.5,1.17-0.75,1.97-0.75
				c0.81,0,1.47,0.24,1.97,0.72c0.51,0.48,0.76,1.08,0.76,1.8c0,0.78-0.25,1.42-0.76,1.94c-0.51,0.51-1.17,0.76-1.97,0.76
				C89.31,34.28,88.65,34.03,88.14,33.53z M87.91,36.53h4.4v16.14h-4.4V36.53z"/>
			<path class="st5" d="M106.19,51.89c-0.43,0.34-0.96,0.59-1.59,0.76c-0.63,0.17-1.29,0.26-1.99,0.26c-1.8,0-3.2-0.49-4.19-1.47
				c-0.99-0.98-1.48-2.42-1.48-4.32v-6.63H94.6v-3.6h2.34v-3.93h4.4v3.93h3.78v3.6h-3.78v6.57c0,0.68,0.16,1.21,0.49,1.57
				c0.33,0.37,0.79,0.55,1.4,0.55c0.7,0,1.29-0.2,1.78-0.6L106.19,51.89z"/>
			<path class="st5" d="M120.2,38.07c1.26,1.19,1.89,2.99,1.89,5.39v9.21h-4.12v-2.01c-0.83,1.5-2.37,2.25-4.63,2.25
				c-1.17,0-2.18-0.21-3.03-0.63c-0.86-0.42-1.51-1-1.96-1.74c-0.45-0.74-0.68-1.58-0.68-2.52c0-1.5,0.53-2.68,1.59-3.54
				c1.06-0.86,2.7-1.29,4.92-1.29h3.5c0-1.02-0.29-1.8-0.87-2.35c-0.58-0.55-1.46-0.83-2.62-0.83c-0.81,0-1.6,0.14-2.38,0.41
				c-0.78,0.27-1.44,0.64-1.99,1.09l-1.58-3.27c0.83-0.62,1.82-1.1,2.98-1.44c1.16-0.34,2.35-0.51,3.57-0.51
				C117.14,36.29,118.94,36.89,120.2,38.07z M116.45,49.21c0.58-0.37,1-0.92,1.24-1.63v-1.65h-3.02c-1.8,0-2.71,0.63-2.71,1.89
				c0,0.6,0.22,1.07,0.66,1.42c0.44,0.35,1.05,0.53,1.82,0.53C115.2,49.76,115.87,49.58,116.45,49.21z"/>
			<path class="st5" d="M143.83,51.89c-0.43,0.34-0.96,0.59-1.59,0.76c-0.63,0.17-1.29,0.26-1.99,0.26c-1.8,0-3.2-0.49-4.19-1.47
				c-0.99-0.98-1.48-2.42-1.48-4.32v-6.63h-2.34v-3.6h2.34v-3.93h4.4v3.93h3.78v3.6h-3.78v6.57c0,0.68,0.16,1.21,0.49,1.57
				c0.33,0.37,0.79,0.55,1.4,0.55c0.7,0,1.29-0.2,1.78-0.6L143.83,51.89z"/>
			<path class="st5" d="M161.6,36.53v16.14h-4.17v-1.92c-0.58,0.7-1.28,1.23-2.09,1.61c-0.81,0.37-1.68,0.55-2.62,0.55
				c-1.99,0-3.57-0.61-4.74-1.83c-1.17-1.22-1.75-3.03-1.75-5.43v-9.12h4.4v8.43c0,2.6,1.02,3.9,3.07,3.9c1.05,0,1.9-0.36,2.54-1.09
				c0.64-0.73,0.96-1.82,0.96-3.26v-7.98H161.6z"/>
			<path class="st5" d="M176.64,51.84c-1.29-0.71-2.29-1.69-3.02-2.95c-0.72-1.26-1.09-2.69-1.09-4.29c0-1.6,0.36-3.03,1.09-4.29
				c0.72-1.26,1.73-2.25,3.02-2.96s2.74-1.06,4.36-1.06c1.6,0,2.99,0.35,4.19,1.06c1.19,0.71,2.06,1.73,2.61,3.04l-3.41,1.95
				c-0.79-1.48-1.93-2.22-3.41-2.22c-1.15,0-2.1,0.4-2.85,1.2S177,43.22,177,44.6c0,1.38,0.38,2.47,1.13,3.27s1.7,1.2,2.85,1.2
				c1.5,0,2.64-0.74,3.41-2.22l3.41,1.98c-0.54,1.28-1.41,2.28-2.61,3c-1.2,0.72-2.59,1.08-4.19,1.08
				C179.38,52.91,177.93,52.55,176.64,51.84z"/>
		</g>
		<g class="st6">
			<path class="st5" d="M196.67,36.89c0.89-0.4,1.92-0.6,3.09-0.6v4.32c-0.49-0.04-0.82-0.06-0.99-0.06c-1.26,0-2.25,0.38-2.96,1.13
				s-1.07,1.88-1.07,3.38v7.62h-4.4V36.53h4.2v2.13C195.07,37.88,195.78,37.29,196.67,36.89z"/>
		</g>
		<g class="st6">
			<path class="st5" d="M217.02,45.92h-11.48c0.21,1,0.7,1.79,1.47,2.37s1.73,0.87,2.88,0.87c0.79,0,1.49-0.13,2.1-0.38
				c0.61-0.25,1.18-0.64,1.71-1.19l2.34,2.7c-1.43,1.74-3.52,2.61-6.26,2.61c-1.71,0-3.22-0.36-4.54-1.07s-2.33-1.69-3.05-2.95
				c-0.71-1.26-1.07-2.69-1.07-4.29c0-1.58,0.35-3,1.06-4.27c0.71-1.27,1.67-2.26,2.9-2.97s2.61-1.06,4.13-1.06
				c1.49,0,2.83,0.34,4.03,1.02c1.2,0.68,2.15,1.65,2.83,2.92c0.69,1.27,1.03,2.75,1.03,4.43C217.1,44.72,217.07,45.14,217.02,45.92
				z M206.72,40.73c-0.68,0.6-1.09,1.42-1.24,2.46h7.47c-0.15-1.02-0.56-1.83-1.24-2.44c-0.68-0.61-1.5-0.92-2.48-0.92
				C208.24,39.83,207.4,40.13,206.72,40.73z M210.36,30.14h4.74l-5.1,4.32h-3.44L210.36,30.14z"/>
			<path class="st5" d="M235.49,30.41v22.26h-4.2v-1.86c-1.09,1.4-2.67,2.1-4.74,2.1c-1.43,0-2.72-0.34-3.88-1.02
				s-2.06-1.65-2.72-2.91c-0.66-1.26-0.99-2.72-0.99-4.38s0.33-3.12,0.99-4.38c0.66-1.26,1.57-2.23,2.72-2.91
				c1.16-0.68,2.45-1.02,3.88-1.02c1.94,0,3.45,0.65,4.54,1.95v-7.83H235.49z M230.07,47.86c0.73-0.81,1.1-1.89,1.1-3.26
				c0-1.36-0.37-2.45-1.1-3.25c-0.73-0.81-1.66-1.21-2.76-1.21c-1.13,0-2.06,0.41-2.79,1.21c-0.73,0.81-1.1,1.9-1.1,3.25
				c0,1.36,0.37,2.45,1.1,3.26c0.73,0.81,1.66,1.21,2.79,1.21C228.42,49.07,229.34,48.67,230.07,47.86z"/>
			<path class="st5" d="M239.77,33.53c-0.51-0.5-0.76-1.12-0.76-1.86c0-0.74,0.25-1.36,0.76-1.86c0.51-0.5,1.17-0.75,1.97-0.75
				s1.47,0.24,1.97,0.72c0.51,0.48,0.76,1.08,0.76,1.8c0,0.78-0.25,1.42-0.76,1.94c-0.51,0.51-1.17,0.76-1.97,0.76
				S240.28,34.03,239.77,33.53z M239.55,36.53h4.4v16.14h-4.4V36.53z"/>
		</g>
		<g class="st6">
			<path class="st5" d="M257.82,51.89c-0.43,0.34-0.96,0.59-1.59,0.76c-0.63,0.17-1.29,0.26-1.99,0.26c-1.8,0-3.2-0.49-4.19-1.47
				c-0.99-0.98-1.48-2.42-1.48-4.32v-6.63h-2.34v-3.6h2.34v-3.93h4.4v3.93h3.78v3.6h-3.78v6.57c0,0.68,0.16,1.21,0.49,1.57
				c0.33,0.37,0.79,0.55,1.4,0.55c0.7,0,1.29-0.2,1.78-0.6L257.82,51.89z"/>
		</g>
		<g class="st6">
			<path class="st5" d="M262.74,51.84c-1.27-0.71-2.26-1.69-2.98-2.95c-0.71-1.26-1.07-2.69-1.07-4.29c0-1.6,0.36-3.03,1.07-4.29
				c0.71-1.26,1.71-2.25,2.98-2.96s2.7-1.06,4.3-1.06s3.03,0.35,4.29,1.06s2.25,1.69,2.96,2.96c0.71,1.26,1.07,2.69,1.07,4.29
				c0,1.6-0.36,3.03-1.07,4.29c-0.71,1.26-1.7,2.24-2.96,2.95s-2.69,1.07-4.29,1.07S264.01,52.55,262.74,51.84z M269.82,47.86
				c0.72-0.81,1.08-1.89,1.08-3.26c0-1.36-0.36-2.45-1.08-3.25s-1.65-1.21-2.78-1.21c-1.13,0-2.06,0.41-2.79,1.21
				c-0.73,0.81-1.1,1.9-1.1,3.25c0,1.36,0.37,2.45,1.1,3.26c0.73,0.81,1.66,1.21,2.79,1.21C268.17,49.07,269.1,48.67,269.82,47.86z"
				/>
		</g>
	</g>
</g>
</svg>
