<svg xmlns="http://www.w3.org/2000/svg" viewBox="0 0 174.87 186"><defs><style>.cls-1{fill:#ccc;}.cls-2{fill:#fff;}</style></defs><g id="Capa_2" data-name="Capa 2"><g id="Menu_navegacion" data-name="Menu navegacion"><path class="cls-1" d="M150.38,154.69a17.9,17.9,0,0,1-17.88-17.87V117.08A17.9,17.9,0,0,1,150.38,99.2h10.53V83.15a24.38,24.38,0,0,0-14.55-22.28l-11.18-31a13.91,13.91,0,0,0-17.78-8.35l-1.74.72-10-16.41-.15-.23A13.08,13.08,0,0,0,86.73,2.76L16.18,60.23A24.39,24.39,0,0,0,0,83.15v78.47A24.4,24.4,0,0,0,24.37,186H136.53a24.41,24.41,0,0,0,24.38-24.38v-6.94H150.38ZM120.16,29a6,6,0,0,1,7.56,3.6l9.47,26.23-.66,0H48.23ZM91.35,9.07a5.61,5.61,0,0,1,8,1.16l9.15,15L33.24,56.41Z"/><path class="cls-1" d="M162,104.5H152.4a12.87,12.87,0,0,0-12.88,12.88v18.28a12.88,12.88,0,0,0,12.88,12.88H162a12.88,12.88,0,0,0,12.88-12.88V117.38A12.87,12.87,0,0,0,162,104.5ZM150.38,132a4.87,4.87,0,1,1,4.87-4.87A4.87,4.87,0,0,1,150.38,132Z"/><path class="cls-2" d="M91.28,81.66l-36.52-.31c-11.32-.1-20.58,9.24-20.68,20.85l-.32,37.46c-.1,11.61,9,21.11,20.33,21.2l36.52.31c11.32.1,20.58-9.24,20.68-20.85l.31-37.46C111.7,91.24,102.6,81.75,91.28,81.66Zm15.59,20.17-.15,17.69-31.55-.26.28-32.19,17.25.15A14.4,14.4,0,0,1,106.87,101.83Zm-53.62-15L70.51,87l-.28,32.19L38.68,119l.15-17.69A14.43,14.43,0,0,1,53.25,86.88ZM38.49,141.71l.15-17.28,31.55.26-.27,31.78-17.25-.14A14.42,14.42,0,0,1,38.49,141.71Zm53.36,14.95-17-.15.27-31.78,31.06.27-.14,17.28A14.32,14.32,0,0,1,91.85,156.66Z"/><rect class="cls-2" x="54.57" y="98.27" width="3.65" height="12.69" transform="translate(-48.69 160.12) rotate(-89.52)"/><polygon class="cls-2" points="57.88 136.55 57.94 128.96 54.61 128.93 54.54 136.53 47.45 136.47 47.42 139.74 54.52 139.8 54.45 147.46 57.78 147.49 57.85 139.83 64.94 139.89 64.97 136.61 57.88 136.55"/><polygon class="cls-2" points="81.47 110.17 83.81 112.6 89.13 107.23 94.1 112.42 96.38 110.12 91.41 104.93 96.68 99.61 94.35 97.18 89.07 102.5 84.1 97.31 81.82 99.61 86.8 104.79 81.47 110.17"/><rect class="cls-2" x="87.17" y="128.51" width="3.3" height="12.6" transform="translate(-46.74 222.49) rotate(-89.52)"/><rect class="cls-2" x="87.11" y="135.86" width="3.3" height="12.6" transform="translate(-54.14 229.71) rotate(-89.52)"/></g></g></svg>