<svg xmlns="http://www.w3.org/2000/svg" viewBox="0 0 69.68 123.05"><defs><style>.cls-1{fill:#84bd56;}</style></defs><g id="Capa_2" data-name="Capa 2"><g id="Copys_destacados" data-name="Copys destacados"><path class="cls-1" d="M60.73,0H9A9,9,0,0,0,0,9V114.09a9,9,0,0,0,9,9H60.73a9,9,0,0,0,9-9V9A9,9,0,0,0,60.73,0ZM22.07,5.44H47.62c.65,0,1.17,1,1.17,2.16s-.52,2.16-1.17,2.16H22.07c-.65,0-1.17-1-1.17-2.16S21.42,5.44,22.07,5.44ZM34.84,114.2a5.72,5.72,0,1,1,5.71-5.72A5.72,5.72,0,0,1,34.84,114.2ZM63,94.61H6.71V15.12H63Z"/></g></g></svg>