<svg xmlns="http://www.w3.org/2000/svg" viewBox="0 0 228.31 242.84"><defs><style>.cls-1{fill:#84bd56;}</style></defs><g id="Capa_2" data-name="Capa 2"><g id="Elementos_interactivos" data-name="Elementos  interactivos"><path class="cls-1" d="M196.33,202A23.36,23.36,0,0,1,173,178.63V152.85a23.36,23.36,0,0,1,23.34-23.33h13.75v-21a31.87,31.87,0,0,0-19-29.1L176.49,39a18.16,18.16,0,0,0-23.22-10.89l-2.26.93L138,7.64l-.2-.31a17.07,17.07,0,0,0-24.51-3.72l-92.12,75A31.84,31.84,0,0,0,0,108.56V211a31.87,31.87,0,0,0,31.82,31.83H178.26A31.87,31.87,0,0,0,210.08,211V202H196.33ZM156.88,37.83a7.8,7.8,0,0,1,9.87,4.71l12.36,34.24c-.29,0-.57,0-.85,0H63Zm-37.61-26a7.32,7.32,0,0,1,10.37,1.51l12,19.61L43.4,73.64Z"/><path class="cls-1" d="M211.5,136.43H199a16.82,16.82,0,0,0-16.82,16.82v23.86A16.82,16.82,0,0,0,199,193.93H211.5a16.82,16.82,0,0,0,16.81-16.82V153.25A16.82,16.82,0,0,0,211.5,136.43Zm-15.17,35.95a6.36,6.36,0,1,1,6.36-6.36A6.35,6.35,0,0,1,196.33,172.38Z"/></g></g></svg>