<svg xmlns="http://www.w3.org/2000/svg" viewBox="0 0 114.37 113.46"><defs><style>.cls-1{fill:#84bd56;}</style></defs><g id="Capa_2" data-name="Capa 2"><g id="Copys_destacados" data-name="Copys destacados"><polygon class="cls-1" points="13.64 41.57 57.18 9.91 100.73 41.57 114.37 41.57 57.18 0 0 41.57 13.64 41.57"/><rect class="cls-1" x="14.44" y="91.15" width="85.49" height="8.7"/><rect class="cls-1" x="2.22" y="104.76" width="109.93" height="8.7"/><path class="cls-1" d="M63.07,61.44a15.63,15.63,0,0,0-4.63-1.87V73.23Q62.9,73,64.57,70a7.23,7.23,0,0,0,.88-3.61A5.64,5.64,0,0,0,63.07,61.44Z"/><path class="cls-1" d="M51.09,44.1a6.67,6.67,0,0,0-1.45,4.07,5,5,0,0,0,1.71,4,9.85,9.85,0,0,0,4.62,2V42C53.69,42.1,52.06,42.79,51.09,44.1Z"/><path class="cls-1" d="M57.18,28.54A29.86,29.86,0,1,0,87.05,58.39,29.86,29.86,0,0,0,57.18,28.54Zm8.46,46.39a16.9,16.9,0,0,1-7.19,2.12v5H56v-5c-5-.32-8.46-2.11-10.26-5.34a14.42,14.42,0,0,1-1.48-7.1h4.59A12.72,12.72,0,0,0,50,69.81q1.62,2.94,6,3.3V59c-3.76-.72-6.53-1.9-8.33-3.56A9,9,0,0,1,45,48.48a10.29,10.29,0,0,1,2.9-7.11c1.93-2.12,4.63-3.19,8.12-3.23V34.69h2.47V38.1c3.44.23,6.09,1.25,7.93,3a9.82,9.82,0,0,1,2.9,7.08H64.73a7.7,7.7,0,0,0-1.06-3.41,6,6,0,0,0-5.22-2.76V54.71q6,1.7,8.18,3.17a8.26,8.26,0,0,1,3.5,7.23Q70.13,72,65.64,74.93Z"/></g></g></svg>