<svg xmlns="http://www.w3.org/2000/svg" viewBox="0 0 27.01 27.59"><defs><style>.cls-1{fill:none;}.cls-2{fill:#fff;}</style></defs><g id="Capa_2" data-name="Capa 2"><g id="Menu_navegacion" data-name="Menu navegacion"><path class="cls-1" d="M18.36,3.84l-13,5.4H21.26L19.5,4.38A.9.9,0,0,0,18.36,3.84Z"/><path class="cls-2" d="M18.36,3.84a.9.9,0,0,1,1.14.54l1.76,4.86h1.27L20.63,4a2.11,2.11,0,0,0-2.69-1.27L2.18,9.24H5.32Z"/><path class="cls-1" d="M20.65,9.55h-17A2.48,2.48,0,0,0,1.2,12V23.9a2.49,2.49,0,0,0,2.49,2.49h17a2.5,2.5,0,0,0,2.49-2.49V22.25h-.4a2.1,2.1,0,0,1-2.1-2.1v-3a2.1,2.1,0,0,1,2.1-2.1h.4V12A2.49,2.49,0,0,0,20.65,9.55Z"/><path class="cls-2" d="M23.14,22.25V23.9a2.5,2.5,0,0,1-2.49,2.49h-17A2.49,2.49,0,0,1,1.2,23.9V12A2.48,2.48,0,0,1,3.69,9.55h17A2.49,2.49,0,0,1,23.14,12v3h1.2V12a3.69,3.69,0,0,0-3.69-3.68h-17A3.69,3.69,0,0,0,0,12V23.9a3.69,3.69,0,0,0,3.69,3.69h17a3.7,3.7,0,0,0,3.69-3.69V22.25h-1.2Z"/><path class="cls-2" d="M24.31,22.85H22.74a2.7,2.7,0,0,1-2.7-2.7v-3a2.7,2.7,0,0,1,2.7-2.7h1.57a2.7,2.7,0,0,1,2.7,2.7v3A2.7,2.7,0,0,1,24.31,22.85Zm-1.57-7.19a1.5,1.5,0,0,0-1.5,1.5v3a1.5,1.5,0,0,0,1.5,1.5h1.57a1.5,1.5,0,0,0,1.5-1.5v-3a1.5,1.5,0,0,0-1.5-1.5Z"/><path class="cls-2" d="M23.21,18.76a.8.8,0,0,1-.8.8.79.79,0,0,1-.79-.8.79.79,0,0,1,.79-.79.79.79,0,0,1,.8.79"/><path class="cls-1" d="M14.14,1.34,4.87,8.53h15l-4.5-7A.9.9,0,0,0,14.14,1.34Z"/><path class="cls-2" d="M18,3.4,16.36.86l0,0A2.1,2.1,0,0,0,13.42.41L3,8.53H4.87l9.27-7.19a.9.9,0,0,1,1.23.17L16.91,3.9"/><path class="cls-2" d="M17.62,18.2A6.48,6.48,0,0,1,8,23.82L4.44,25l1.17-3.45a6.32,6.32,0,0,1-.93-3.31,6.47,6.47,0,0,1,12.94,0Zm-6.47-5.4a5.39,5.39,0,0,0-4.4,8.57l-.68,2,2.09-.66a5.41,5.41,0,1,0,3-9.91Zm3.27,6.88c0-.07-.15-.11-.31-.18S13.18,19,13,19s-.25-.08-.36.08a6.73,6.73,0,0,1-.5.62c-.09.11-.18.12-.34,0a4.3,4.3,0,0,1-1.28-.78,4.7,4.7,0,0,1-.88-1.09c-.09-.16,0-.24.07-.32s.16-.18.24-.28a1.13,1.13,0,0,0,.16-.26.28.28,0,0,0,0-.27c0-.08-.35-.86-.49-1.17s-.26-.27-.35-.27H9a.59.59,0,0,0-.42.2A1.79,1.79,0,0,0,8,16.78a3.06,3.06,0,0,0,.64,1.63,6.55,6.55,0,0,0,2.71,2.37c1.62.63,1.62.42,1.91.4a1.6,1.6,0,0,0,1.07-.75A1.32,1.32,0,0,0,14.42,19.68Z"/></g></g></svg>