<svg xmlns="http://www.w3.org/2000/svg" viewBox="0 0 108.39 106.22"><defs><style>.cls-1{fill:#fff;}</style></defs><g id="Capa_2" data-name="Capa 2"><g id="Elementos_interactivos" data-name="Elementos  interactivos"><path class="cls-1" d="M78.22,14.86H75a.93.93,0,0,0,0,1.86h3.26A2.79,2.79,0,0,1,81,19.51V23.8H21.16V19.51A2.79,2.79,0,0,1,24,16.72H70.87a.93.93,0,1,0,0-1.86H24a4.66,4.66,0,0,0-4.66,4.65V29.78a.94.94,0,0,0,1.87,0V25.66H81v24a.94.94,0,1,0,1.87,0V19.51A4.66,4.66,0,0,0,78.22,14.86Z"/><path class="cls-1" d="M82,52.67a.94.94,0,0,0-.94.93V56a2.8,2.8,0,0,1-2.79,2.8H24A2.8,2.8,0,0,1,21.16,56V33.78a.94.94,0,0,0-1.87,0V56A4.66,4.66,0,0,0,24,60.68H78.22A4.66,4.66,0,0,0,82.88,56V53.6A.93.93,0,0,0,82,52.67Z"/><path class="cls-1" d="M32.77,35.09a.94.94,0,0,0-1.32,0l-5.6,5.6a.94.94,0,0,0,0,1.32l5.52,5.52a1,1,0,0,0,.66.27.93.93,0,0,0,.66-1.59l-4.86-4.86,4.94-4.94a.94.94,0,0,0,0-1.32Z"/><path class="cls-1" d="M45.29,47.53a.94.94,0,0,0,1.32,0L52.13,42a.94.94,0,0,0,0-1.32l-5.6-5.6a.93.93,0,0,0-1.31,1.32l4.94,4.94-4.87,4.86a.94.94,0,0,0,0,1.32Z"/><path class="cls-1" d="M35.69,51a1,1,0,0,0,.87-.6l6.61-17.43a.93.93,0,1,0-1.74-.67L34.81,49.7a.93.93,0,0,0,.54,1.2,1,1,0,0,0,.34.06Z"/><path class="cls-1" d="M23.39,20.31a2.8,2.8,0,1,0,2.8-2.8A2.8,2.8,0,0,0,23.39,20.31Zm3.73,0a.93.93,0,1,1-.93-.94A.93.93,0,0,1,27.12,20.31Z"/><path class="cls-1" d="M30.62,20.31a2.79,2.79,0,1,0,2.79-2.8A2.79,2.79,0,0,0,30.62,20.31Zm3.72,0a.93.93,0,1,1-.93-.94A.93.93,0,0,1,34.34,20.31Z"/><path class="cls-1" d="M37.84,20.31a2.8,2.8,0,1,0,2.79-2.8A2.79,2.79,0,0,0,37.84,20.31Zm3.72,0a.93.93,0,1,1-.93-.94A.93.93,0,0,1,41.56,20.31Z"/><path class="cls-1" d="M61,36.08h5.83a2.8,2.8,0,1,0,0-5.59H61a2.8,2.8,0,1,0,0,5.59Zm0-3.73h5.83a.93.93,0,1,1,0,1.86H61a.93.93,0,0,1,0-1.86Z"/><path class="cls-1" d="M61,43.53h15.4a2.8,2.8,0,0,0,0-5.59H61a2.8,2.8,0,1,0,0,5.59Zm0-3.73h15.4a.93.93,0,0,1,0,1.86H61a.93.93,0,0,1,0-1.86Z"/><path class="cls-1" d="M61,51H71.78a2.8,2.8,0,1,0,0-5.59H61A2.8,2.8,0,1,0,61,51Zm0-3.73H71.78a.94.94,0,0,1,0,1.87H61a.94.94,0,0,1,0-1.87Z"/><path class="cls-1" d="M96.34,89.53l-1.56-2.82A43.09,43.09,0,0,1,93,81.85c-1.12-7.93-5.24-16-6.79-19a2.54,2.54,0,0,0-1.79-1.47A49.15,49.15,0,0,0,57.8,62.85l-2.12-2.72c-1.66-2.25-3.45-4.4-5.13-6.67C48.65,51,46.88,48.6,45,46.21a3.86,3.86,0,0,0-5.24-.9,3.82,3.82,0,0,0-1,5.21c4.9,8.82,9.82,17.54,14.48,26.34a10.11,10.11,0,0,1,1,3.17c.21,2.25-.11,4.18-2.22,3.39-2.46-.89-7.81-3.61-9-3.72a9.55,9.55,0,0,0-6.12.57,5.3,5.3,0,0,0-2.23,2.5c-.66,1.81-.21,2.93,1.56,3.5A49.17,49.17,0,0,1,47.55,92c1.34.89,3.35,1.92,4.68,2.93a15.16,15.16,0,0,0,6.24,2.6,43.74,43.74,0,0,1,15.93,7.36,6.31,6.31,0,0,0,7.81-.11L95.69,93.62A3.34,3.34,0,0,0,96.34,89.53Z"/><path class="cls-1" d="M101.62,0H6.77A6.78,6.78,0,0,0,0,6.77v61a6.78,6.78,0,0,0,6.77,6.78H45.6c-1.47-2.59-3.29-5.92-5.54-10.16H10.16V10.16H98.23v54.2H90.11S93.73,73,93.48,74.51h8.14a6.78,6.78,0,0,0,6.77-6.77v-61A6.78,6.78,0,0,0,101.62,0ZM7.15,42.47c0,1.54-.84,2.78-1.87,2.78a1.37,1.37,0,0,1-1-.43A1.36,1.36,0,0,1,4,44.41a3.57,3.57,0,0,1-.54-2V32.08a3.17,3.17,0,0,1,1-2.46,1.42,1.42,0,0,1,.89-.35,1.62,1.62,0,0,1,.9.35,3.17,3.17,0,0,1,1,2.46Zm96.13-1.82a3.39,3.39,0,1,1,3.38-3.39A3.39,3.39,0,0,1,103.28,40.65Z"/></g></g></svg>