<svg xmlns="http://www.w3.org/2000/svg" viewBox="0 0 124.7 110.17"><defs><style>.cls-1{fill:#fff;}</style></defs><g id="Capa_2" data-name="Capa 2"><g id="Elementos_interactivos" data-name="Elementos  interactivos"><g id="Grupo_107" data-name="Grupo 107"><g id="Grupo_105" data-name="Grupo 105"><path id="Trazado_151" data-name="Trazado 151" class="cls-1" d="M89.64,25.11l-2,0a1.92,1.92,0,0,1-1.88-1.95h0v-.07a4.45,4.45,0,0,0-4.36-4.55h-.1A4.46,4.46,0,0,0,76.94,23v.06A1.91,1.91,0,0,1,75,25h-2a3.81,3.81,0,0,0-3.78,3.85v.08a3.82,3.82,0,0,0,3.74,3.91L89.6,33a3.84,3.84,0,0,0,3.79-3.86V29a3.82,3.82,0,0,0-3.74-3.9Zm-8.27-.05a2,2,0,1,1,1.91-1.95,1.93,1.93,0,0,1-1.91,1.95Zm8,75.84-31.91-.19a5.16,5.16,0,0,1-5-5.26h0l.36-62.73c0-2.89,2.3-5.21,3.84-5.2l10.27.06a6.7,6.7,0,0,0-.14,1.34A6.41,6.41,0,0,0,73,35.46l16.55.1a6.56,6.56,0,0,0,6.22-7.81l7.73.05c4.07,0,6.32,2.38,6.31,5.27l-.23,39.27c-.42,0-.84-.07-1.26-.08a19.36,19.36,0,0,0-5.08.67l.18-30.75-44.36-.27-.3,52.27L88,94.36a21.19,21.19,0,0,0,1.4,6.54Zm18.93-24.71A17,17,0,1,0,124.7,93.28a16.72,16.72,0,0,0-16.38-17.09ZM119,89.75l-10.21,11.7a2.47,2.47,0,0,1-3.48.28L99,96.47a2.66,2.66,0,0,1-.37-3.68,2.48,2.48,0,0,1,3.56-.39h0l4.44,3.71,8.59-9.86a2.49,2.49,0,0,1,3.58-.26,2.67,2.67,0,0,1,.25,3.69l-.06.07ZM97,64.36,76.7,64.23a1.27,1.27,0,0,1-1.25-1.31V61.61a1.3,1.3,0,0,1,1.28-1.3h0L97,60.44a1.29,1.29,0,0,1,1.26,1.31v1.31A1.28,1.28,0,0,1,97,64.35Zm.07-11.76-20.28-.13a1.29,1.29,0,0,1-1.26-1.31V49.85a1.3,1.3,0,0,1,1.28-1.3h0l20.27.13A1.28,1.28,0,0,1,98.33,50V51.3a1.28,1.28,0,0,1-1.28,1.29ZM90.59,74.77l-13.94-.08a1.29,1.29,0,0,1-1.26-1.32h0V72.06a1.27,1.27,0,0,1,1.27-1.29l13.94.08a1.28,1.28,0,0,1,1.26,1.31h0v1.31A1.3,1.3,0,0,1,90.59,74.77ZM88,86.52l-11.41-.07a1.3,1.3,0,0,1-1.26-1.32h0V83.82a1.27,1.27,0,0,1,1.27-1.29h0L88,82.6a1.29,1.29,0,0,1,1.26,1.31h0v1.31A1.28,1.28,0,0,1,88,86.51ZM73.11,47.61,68.41,53a1.15,1.15,0,0,1-1.6.13L63.9,50.71a1.23,1.23,0,0,1-.09-1.7,1.14,1.14,0,0,1,1.56-.17l2,1.7,4-4.54A1.14,1.14,0,0,1,73,46a1.23,1.23,0,0,1,.09,1.62ZM73,59.24l-4.7,5.39a1.15,1.15,0,0,1-1.6.13l-2.9-2.43a1.23,1.23,0,0,1-.1-1.7,1.14,1.14,0,0,1,1.56-.17l2,1.7,4-4.54a1.15,1.15,0,0,1,1.65,0A1.23,1.23,0,0,1,73,59.23ZM73,70.36l-4.7,5.38a1.13,1.13,0,0,1-1.6.13l-2.91-2.42a1.24,1.24,0,0,1-.12-1.7,1.15,1.15,0,0,1,1.59-.17l2,1.7,4-4.53a1.13,1.13,0,0,1,1.65,0A1.22,1.22,0,0,1,73,70.35Zm-.06,11.2-4.7,5.38a1.14,1.14,0,0,1-1.61.13l-2.9-2.42a1.23,1.23,0,0,1-.1-1.7,1.14,1.14,0,0,1,1.57-.17l2,1.7,4-4.53a1.14,1.14,0,0,1,1.64-.16A1.21,1.21,0,0,1,73,81.48l-.06.08Z"/></g><g id="Grupo_106" data-name="Grupo 106"><path id="Trazado_152" data-name="Trazado 152" class="cls-1" d="M44.59,47a1.86,1.86,0,0,0,.75-2.47,1.75,1.75,0,0,0-2.28-.83L18.47,55.83c-2.06,1-.54,4.31,1.52,3.3Z"/><path id="Trazado_153" data-name="Trazado 153" class="cls-1" d="M46.67,51.54,22.07,63.63a1.86,1.86,0,0,0-.75,2.46,1.75,1.75,0,0,0,2.28.83L48.2,54.83A1.86,1.86,0,0,0,49,52.37,1.74,1.74,0,0,0,46.67,51.54Z"/><path id="Trazado_154" data-name="Trazado 154" class="cls-1" d="M26.94,74.15,49.83,62.89c0-1.36,0-2.72.05-4.07l-24.47,12a1.85,1.85,0,0,0-.78,2.45A1.74,1.74,0,0,0,26.94,74.15Z"/><path id="Trazado_155" data-name="Trazado 155" class="cls-1" d="M30.54,81.94l19.18-9.43c0-1.34,0-2.69,0-4.06L29,78.65a1.86,1.86,0,0,0-.7,2.48A1.75,1.75,0,0,0,30.54,81.94Z"/><path id="Trazado_156" data-name="Trazado 156" class="cls-1" d="M33.47,89.53l16.16-7.94c0-1.32,0-2.68,0-4.07L32,86.24a1.85,1.85,0,0,0-.83,2.43A1.74,1.74,0,0,0,33.47,89.53Z"/><path id="Trazado_157" data-name="Trazado 157" class="cls-1" d="M30.52,99.66,5.87,46.36,37.24,30.93l3,6.49,6.6-3.25,3.33,7.18c.09-4,.18-7.38.29-9.9l-.6-1.29L37.39,25.82,0,44.21l28.45,61.5L49.53,95.34c0-1.4,0-3.1,0-5Z"/><path id="Trazado_158" data-name="Trazado 158" class="cls-1" d="M53.28,16.92,40.8,12.58,3.4,31l3.3,7.12,4-2-1.4-3L40.65,17.68l3,6.5,6.61-3.25,1.94,4.19a11.6,11.6,0,0,1,4-1.81Z"/><path id="Trazado_159" data-name="Trazado 159" class="cls-1" d="M57.48,4.34,45,0,7.6,18.39l3.29,7.12,4-2-1.4-3L44.84,5.1l3,6.5,6.6-3.25,6.82,14.72,5,.21Z"/></g></g></g></g></svg>