<?xml version="1.0" encoding="utf-8"?>
<!-- Generator: Adobe Illustrator 24.2.3, SVG Export Plug-In . SVG Version: 6.00 Build 0)  -->
<svg version="1.1" id="Capa_1" xmlns="http://www.w3.org/2000/svg" xmlns:xlink="http://www.w3.org/1999/xlink" x="0px" y="0px"
	 viewBox="0 0 36.86 38.55" style="enable-background:new 0 0 36.86 38.55;" xml:space="preserve">
<style type="text/css">
	.st0{fill:#86BD5D;}
</style>
<g>
	<path class="st0" d="M12.92,15.69h5.13c0.13,0,0.23-0.17,0.23-0.39c0-0.21-0.11-0.39-0.23-0.39h-5.13c-0.13,0-0.23,0.17-0.23,0.39
		C12.69,15.52,12.79,15.69,12.92,15.69z"/>
	<path class="st0" d="M30.35,31.33c-1.92,0-3.49-1.56-3.49-3.49v-3.85c0-1.92,1.56-3.49,3.49-3.49h2.02c0.01,0,0.02,0,0.03,0v-3.13
		c0-1.94-1.17-3.61-2.84-4.35l-2.18-6.04c-0.51-1.4-2.06-2.13-3.47-1.63l-0.34,0.14l-1.95-3.2l-0.03-0.05
		c-0.85-1.2-2.49-1.46-3.66-0.56L4.17,12.9c-1.84,0.66-3.16,2.41-3.16,4.47v15.31c0,2.62,2.13,4.76,4.76,4.76h21.88
		c2.62,0,4.76-2.13,4.76-4.76v-1.35c-0.01,0-0.02,0-0.03,0H30.35z M24.45,6.8c0.6-0.21,1.26,0.11,1.47,0.7l1.85,5.12
		c-0.04,0-0.08-0.01-0.13-0.01H10.42L24.45,6.8z M18.83,2.92c0.49-0.38,1.18-0.27,1.55,0.23l1.79,2.93L7.49,12.15L18.83,2.92z
		 M22.47,34.47c0,0.89-0.8,1.61-1.8,1.61H10.3c-0.99,0-1.8-0.72-1.8-1.61V15.55c0-0.89,0.8-1.61,1.8-1.61h10.38
		c0.99,0,1.8,0.72,1.8,1.61V34.47z"/>
	<path class="st0" d="M15.49,32.43c-0.63,0-1.15,0.46-1.15,1.03c0,0.57,0.51,1.03,1.15,1.03c0.63,0,1.14-0.46,1.14-1.03
		C16.63,32.89,16.12,32.43,15.49,32.43z"/>
	<rect x="9.85" y="16.66" class="st0" width="11.28" height="14.3"/>
	<path class="st0" d="M32.61,21.54h-1.87c-1.39,0-2.51,1.12-2.51,2.51v3.57c0,1.39,1.12,2.51,2.51,2.51h1.87
		c1.39,0,2.51-1.13,2.51-2.51v-3.57C35.12,22.66,34,21.54,32.61,21.54z M30.35,26.91c-0.52,0-0.95-0.43-0.95-0.95
		c0-0.52,0.42-0.95,0.95-0.95c0.52,0,0.95,0.43,0.95,0.95C31.3,26.48,30.87,26.91,30.35,26.91z"/>
</g>
</svg>
