<?xml version="1.0" encoding="utf-8"?>
<!-- Generator: Adobe Illustrator 24.2.3, SVG Export Plug-In . SVG Version: 6.00 Build 0)  -->
<svg version="1.1" id="Capa_1" xmlns="http://www.w3.org/2000/svg" xmlns:xlink="http://www.w3.org/1999/xlink" x="0px" y="0px"
	 viewBox="0 0 36.56 38.58" style="enable-background:new 0 0 36.56 38.58;" xml:space="preserve">
<style type="text/css">
	.st0{fill:#87BE5E;}
</style>
<g>
	<path class="st0" d="M30.6,31.23c-1.92,0-3.49-1.56-3.49-3.49v-3.85c0-1.92,1.56-3.49,3.49-3.49h2.02c0.01,0,0.02,0,0.03,0v-3.13
		c0-1.94-1.17-3.61-2.84-4.35l-2.18-6.04c-0.51-1.4-2.06-2.14-3.47-1.63l-0.34,0.14l-1.95-3.2l-0.03-0.05
		c-0.85-1.2-2.49-1.46-3.66-0.56L4.42,12.8c-1.84,0.66-3.16,2.41-3.16,4.47v15.31c0,2.62,2.13,4.76,4.76,4.76H27.9
		c2.62,0,4.76-2.13,4.76-4.76v-1.35c-0.01,0-0.02,0-0.03,0C32.63,31.23,30.6,31.23,30.6,31.23z M24.7,6.7
		c0.6-0.21,1.26,0.11,1.47,0.7l1.85,5.12c-0.04,0-0.08-0.01-0.13-0.01H10.67L24.7,6.7z M23.71,20.16c0,0.46-0.14,0.89-0.42,1.31
		s-0.63,0.77-1.06,1.06c-2.17,1.51-3.52,2.44-4.05,2.81c-0.06,0.04-0.18,0.13-0.37,0.26c-0.19,0.14-0.34,0.25-0.47,0.33
		s-0.27,0.18-0.45,0.28s-0.34,0.18-0.5,0.23s-0.3,0.08-0.43,0.08h-0.01h-0.01c-0.13,0-0.28-0.03-0.43-0.08
		c-0.16-0.05-0.32-0.13-0.5-0.23s-0.33-0.2-0.45-0.28s-0.28-0.19-0.47-0.33c-0.19-0.14-0.31-0.22-0.37-0.26
		c-0.52-0.37-1.28-0.9-2.27-1.58s-1.58-1.09-1.77-1.23c-0.36-0.24-0.69-0.58-1.01-1c-0.32-0.42-0.48-0.82-0.48-1.18
		c0-0.45,0.12-0.82,0.36-1.12s0.58-0.45,1.02-0.45H22.3c0.37,0,0.7,0.14,0.97,0.41S23.71,19.78,23.71,20.16z M19.08,2.82
		c0.49-0.38,1.18-0.27,1.55,0.23l1.79,2.93L7.75,12.05L19.08,2.82z M23.71,29.57c0,0.38-0.14,0.71-0.41,0.98s-0.6,0.41-0.98,0.41
		H9.59c-0.38,0-0.71-0.14-0.98-0.41s-0.41-0.6-0.41-0.98V22.7c0.25,0.28,0.54,0.53,0.87,0.75c2.09,1.42,3.52,2.41,4.3,2.98
		c0.33,0.24,0.6,0.43,0.8,0.57s0.48,0.27,0.82,0.42c0.34,0.14,0.66,0.21,0.95,0.21h0.01h0.01c0.29,0,0.61-0.07,0.95-0.21
		s0.61-0.28,0.82-0.42s0.47-0.32,0.8-0.57c0.98-0.71,2.42-1.7,4.31-2.98c0.33-0.22,0.62-0.48,0.86-0.75L23.71,29.57L23.71,29.57z"/>
	<path class="st0" d="M32.86,21.44h-1.87c-1.39,0-2.51,1.12-2.51,2.51v3.57c0,1.39,1.12,2.51,2.51,2.51h1.87
		c1.39,0,2.51-1.13,2.51-2.51v-3.57C35.38,22.56,34.25,21.44,32.86,21.44z M30.6,26.81c-0.52,0-0.95-0.42-0.95-0.95
		s0.42-0.95,0.95-0.95c0.52,0,0.95,0.42,0.95,0.95S31.12,26.81,30.6,26.81z"/>
</g>
</svg>
