<svg xmlns="http://www.w3.org/2000/svg" viewBox="0 0 103.55 106.63"><defs><style>.cls-1{fill:#fff;}</style></defs><g id="Capa_2" data-name="Capa 2"><g id="Elementos_interactivos" data-name="Elementos  interactivos"><path class="cls-1" d="M26.15,15.51H12.07a2.36,2.36,0,0,0,0,4.72H26.15a2.36,2.36,0,1,0,0-4.72Z"/><path class="cls-1" d="M26.15,25H12.07a2.36,2.36,0,1,0,0,4.72H26.15a2.36,2.36,0,1,0,0-4.72Z"/><path class="cls-1" d="M26.15,34.39H12.07a2.36,2.36,0,0,0,0,4.72H26.15a2.36,2.36,0,1,0,0-4.72Z"/><path class="cls-1" d="M22.62,44.2h-11a2.2,2.2,0,0,0,0,4.34H22.62a2.2,2.2,0,0,0,0-4.34Z"/><path class="cls-1" d="M22.62,53.42h-11a2.43,2.43,0,0,0,0,4.72H22.62a2.43,2.43,0,0,0,0-4.72Z"/><path class="cls-1" d="M34.08,20.23H48.16a2.36,2.36,0,0,0,0-4.72H34.08a2.36,2.36,0,1,0,0,4.72Z"/><path class="cls-1" d="M34.08,28.77H48.16a2.36,2.36,0,0,0,0-4.72H34.08a2.36,2.36,0,0,0,0,4.72Z"/><path class="cls-1" d="M101.36,93.87,78.6,71.11A28.24,28.24,0,1,0,68,81.69l22.75,22.76a7.48,7.48,0,0,0,10.58-10.58ZM71.41,74.41a24.27,24.27,0,0,1-34.55,0,24.92,24.92,0,0,1,0-34.92,24.27,24.27,0,0,1,34.55,0A24.92,24.92,0,0,1,71.41,74.41Zm1.43-16.84a16.67,16.67,0,0,0-13-14.6V40.88a2.81,2.81,0,0,0-.67-5.53H53.28a2.81,2.81,0,0,0-.68,5.53V43a16.44,16.44,0,0,0-8.12,4.47A14.8,14.8,0,0,0,43.08,49H37.14a.83.83,0,1,0,0,1.65H42a16.8,16.8,0,0,0-1.46,3.17h-9a.83.83,0,0,0,0,1.65H40a16.19,16.19,0,0,0-.41,3.17H36a.83.83,0,1,0,0,1.65h3.67a16.26,16.26,0,0,0,.52,3.17H34.81a.83.83,0,0,0,0,1.65h5.87A16.68,16.68,0,0,0,54.61,75.81c.55,0,1.09.08,1.64.08a16.67,16.67,0,0,0,9.09-2.69.82.82,0,0,0-.9-1.38,15,15,0,1,1,4.42-4.43.82.82,0,1,0,1.38.9A16.72,16.72,0,0,0,72.84,57.57ZM52.12,38.15A1.16,1.16,0,0,1,53.28,37h5.94a1.16,1.16,0,0,1,0,2.31H53.28A1.16,1.16,0,0,1,52.12,38.15Zm2.13,4.54V41h4v1.73A16.64,16.64,0,0,0,54.25,42.69ZM67.46,69.6a.83.83,0,1,0,0,1.65A.84.84,0,0,0,68,71a.83.83,0,0,0,0-1.17A.84.84,0,0,0,67.46,69.6ZM56.26,46.43a12.8,12.8,0,1,0,12.79,12.8A12.81,12.81,0,0,0,56.26,46.43Zm-.82,4a.83.83,0,1,1,1.65,0v.76a.83.83,0,1,1-1.65,0ZM48.2,60h-.76a.83.83,0,0,1,0-1.65h.76a.83.83,0,1,1,0,1.65Zm8.87,8a.83.83,0,0,1-1.65,0v-.77a.83.83,0,0,1,1.65,0Zm5.57-14-.12.12-4,4a2.56,2.56,0,1,1-4.6,0l-1.83-1.82A.83.83,0,0,1,53.3,55.1l1.83,1.83a2.5,2.5,0,0,1,2.26,0l4.09-4.09A.82.82,0,1,1,62.64,54Zm2.44,6.05h-.77a.83.83,0,0,1,0-1.65h.77a.83.83,0,0,1,0,1.65Zm-8.82-1.75a.92.92,0,1,0,.91.92A.92.92,0,0,0,56.26,58.31ZM31.51,63.49a.84.84,0,0,0-.58.24.87.87,0,0,0-.24.59.82.82,0,0,0,.82.82.87.87,0,0,0,.59-.24.84.84,0,0,0,.24-.58.82.82,0,0,0-.83-.83Z"/><path class="cls-1" d="M24.36,68.93H9.5a4.78,4.78,0,0,1-4.78-4.78V9.5A4.78,4.78,0,0,1,9.5,4.72H50.73A4.79,4.79,0,0,1,55.51,9.5L56,26.18a8.05,8.05,0,0,1,4.51.91L60.23,9.5A9.51,9.51,0,0,0,50.73,0H9.5A9.5,9.5,0,0,0,0,9.5V64.15a9.5,9.5,0,0,0,9.5,9.5H25.89a.64.64,0,0,0,.51-1A21.53,21.53,0,0,1,24.36,68.93Z"/></g></g></svg>