<?xml version="1.0" encoding="utf-8"?>
<!-- Generator: Adobe Illustrator 24.2.3, SVG Export Plug-In . SVG Version: 6.00 Build 0)  -->
<svg version="1.1" id="Capa_1" xmlns="http://www.w3.org/2000/svg" xmlns:xlink="http://www.w3.org/1999/xlink" x="0px" y="0px"
	 viewBox="0 0 36.56 38.58" style="enable-background:new 0 0 36.56 38.58;" xml:space="preserve">
<style type="text/css">
	.st0{fill:#86BD5D;}
</style>
<g>
	<path class="st0" d="M30.48,31.2c-1.92,0-3.49-1.56-3.49-3.49v-3.85c0-1.92,1.57-3.49,3.49-3.49h2.02c0.01,0,0.02,0,0.03,0v-3.13
		c0-1.94-1.17-3.61-2.84-4.35l-2.18-6.05c-0.51-1.4-2.06-2.14-3.47-1.63L23.7,5.35l-1.95-3.2l-0.03-0.05
		c-0.85-1.2-2.49-1.46-3.66-0.56L4.29,12.76c-1.84,0.66-3.16,2.41-3.16,4.47v15.31c0,2.62,2.13,4.76,4.76,4.76h21.89
		c2.62,0,4.76-2.13,4.76-4.76V31.2c-0.01,0-0.02,0-0.03,0H30.48z M24.58,6.66c0.6-0.21,1.26,0.11,1.47,0.7l1.85,5.12
		c-0.04,0-0.08-0.01-0.13-0.01H10.54L24.58,6.66z M20.15,18.23v1.23c0,0.65-0.62,1.18-1.39,1.18c-0.77,0-1.39-0.53-1.39-1.18v-1.24
		c0-0.66,0.62-1.18,1.39-1.18S20.15,17.58,20.15,18.23z M18.96,2.78c0.49-0.38,1.18-0.27,1.55,0.23l1.79,2.93L7.62,12.02L18.96,2.78
		z M7.47,18.23c0-0.66,0.62-1.18,1.39-1.18c0.77,0,1.39,0.53,1.39,1.18v1.23c0,0.65-0.62,1.18-1.39,1.18
		c-0.77,0-1.39-0.53-1.39-1.18V18.23z M22.32,34.09H5.35H3.93V19.07l2.83,0.03v0.6c0,0.99,0.95,1.8,2.12,1.8
		c1.17,0,2.12-0.81,2.12-1.8v-0.6h5.66v0.6c0,0.99,0.95,1.8,2.12,1.8c1.17,0,2.12-0.81,2.12-1.8v-0.6h2.8l0.02,14.99L22.32,34.09z"
		/>
	<path class="st0" d="M5.35,32.89h16.97h0v-9.6H5.35V32.89z M17.95,24.58h2.23v1.67h-2.23V24.58z M17.95,27.35h2.23v1.67h-2.23
		V27.35z M17.95,30.18h2.23v1.67h-2.23V30.18z M14.61,24.58h2.23v1.67h-2.23V24.58z M14.61,27.35h2.23v1.67h-2.23V27.35z
		 M14.61,30.18h2.23v1.67h-2.23V30.18z M11.01,24.58h2.23v1.67h-2.23V24.58z M11.01,27.35h2.23v1.67h-2.23V27.35z M11.01,30.18h2.23
		v1.67h-2.23V30.18z M7.47,27.35H9.7v1.67H7.47V27.35z M7.47,30.18H9.7v1.67H7.47V30.18z"/>
	<path class="st0" d="M32.74,21.4h-1.87c-1.39,0-2.51,1.12-2.51,2.51v3.57c0,1.39,1.13,2.51,2.51,2.51h1.87
		c1.39,0,2.51-1.13,2.51-2.51v-3.57C35.26,22.53,34.13,21.4,32.74,21.4z M30.48,26.78c-0.52,0-0.95-0.43-0.95-0.95
		c0-0.52,0.43-0.95,0.95-0.95c0.52,0,0.95,0.43,0.95,0.95C31.43,26.35,31,26.78,30.48,26.78z"/>
</g>
</svg>
