<?xml version="1.0" encoding="utf-8"?>
<!-- Generator: Adobe Illustrator 24.2.3, SVG Export Plug-In . SVG Version: 6.00 Build 0)  -->
<svg version="1.1" id="Capa_1" xmlns="http://www.w3.org/2000/svg" xmlns:xlink="http://www.w3.org/1999/xlink" x="0px" y="0px"
	 viewBox="0 0 36.56 38.58" style="enable-background:new 0 0 36.56 38.58;" xml:space="preserve">
<style type="text/css">
	.st0{fill:#87BE5E;}
</style>
<g>
	<path class="st0" d="M30.97,30.8c-1.92,0-3.48-1.56-3.48-3.48v-3.85c0-1.92,1.56-3.48,3.48-3.48h2.02c0.01,0,0.02,0,0.03,0v-3.13
		c0-1.94-1.17-3.6-2.83-4.34l-2.18-6.03c-0.51-1.4-2.06-2.13-3.46-1.63L24.21,5l-1.95-3.2l-0.03-0.05c-0.85-1.2-2.48-1.45-3.66-0.56
		L4.83,12.4C3,13.05,1.68,14.81,1.68,16.86v15.29c0,2.62,2.13,4.75,4.75,4.75h21.85c2.62,0,4.75-2.13,4.75-4.75V30.8
		c-0.01,0-0.02,0-0.03,0H30.97z M25.09,6.31c0.6-0.21,1.26,0.11,1.47,0.7l1.84,5.11c-0.04,0-0.08-0.01-0.13-0.01h-17.2L25.09,6.31z
		 M19.47,2.43c0.49-0.37,1.18-0.27,1.55,0.22l1.78,2.93L8.15,11.65L19.47,2.43z M11.66,26.18l-0.52,0.92l-2.03-1.19l0.02,2.28h-1
		l0.02-2.28L6.12,27.1L5.6,26.18l2.01-1.12L5.6,23.95l0.52-0.94l2.03,1.19l-0.02-2.26h1.01L9.12,24.2l2.03-1.19l0.52,0.94
		l-1.99,1.11L11.66,26.18z M18.7,26.18l-0.52,0.92l-2.03-1.19l0.02,2.28h-1l0.02-2.28l-2.03,1.19l-0.52-0.92l2.01-1.12l-2.01-1.11
		l0.52-0.94l2.03,1.19l-0.02-2.26h1l-0.02,2.26l2.03-1.19l0.52,0.94l-1.99,1.11L18.7,26.18z M25.74,26.18l-0.52,0.92l-2.03-1.19
		l0.02,2.28H22.2l0.02-2.28l-2.03,1.19l-0.52-0.92l2.01-1.12l-2.01-1.11l0.52-0.94l2.03,1.19l-0.02-2.26h1.01l-0.02,2.26l2.03-1.19
		l0.52,0.94l-1.99,1.11L25.74,26.18z"/>
	<path class="st0" d="M33.23,21.02h-1.87c-1.39,0-2.51,1.12-2.51,2.51v3.56c0,1.39,1.12,2.51,2.51,2.51h1.87
		c1.39,0,2.51-1.12,2.51-2.51v-3.56C35.74,22.14,34.62,21.02,33.23,21.02z M30.97,26.38c-0.52,0-0.95-0.42-0.95-0.95
		c0-0.52,0.42-0.95,0.95-0.95c0.52,0,0.95,0.42,0.95,0.95S31.49,26.38,30.97,26.38z"/>
</g>
</svg>
