<?xml version="1.0" encoding="utf-8"?>
<!-- Generator: Adobe Illustrator 24.2.3, SVG Export Plug-In . SVG Version: 6.00 Build 0)  -->
<svg version="1.1" id="Capa_1" xmlns="http://www.w3.org/2000/svg" xmlns:xlink="http://www.w3.org/1999/xlink" x="0px" y="0px"
	 viewBox="0 0 70.47 75.32" style="enable-background:new 0 0 70.47 75.32;" xml:space="preserve">
<style type="text/css">
	.st0{fill:#233A75;}
	.st1{fill:#FFFFFF;}
</style>
<g>
	<g>
		<g>
			<g>
				<g>
					<path class="st0" d="M59.07,60.52c-3.71,0-6.73-3.02-6.73-6.73v-7.43c0-3.71,3.02-6.73,6.73-6.73h3.9c0.02,0,0.04,0,0.06,0
						V33.6c0-3.74-2.26-6.96-5.48-8.39l-4.21-11.66c-0.98-2.71-3.98-4.12-6.69-3.14l-0.65,0.27L42.24,4.5l-0.06-0.09
						c-1.65-2.32-4.8-2.81-7.07-1.07L8.57,24.97c-3.54,1.27-6.09,4.65-6.09,8.63v29.54c0,5.06,4.12,9.17,9.17,9.17h42.21
						c5.06,0,9.17-4.12,9.17-9.17v-2.61c-0.02,0-0.04,0-0.06,0H59.07z M47.7,13.21c1.16-0.4,2.43,0.2,2.84,1.36l3.56,9.87
						c-0.08,0-0.16-0.01-0.25-0.01H20.63L47.7,13.21z M36.86,5.72c0.95-0.72,2.28-0.53,2.99,0.44l3.45,5.65L14.99,23.53L36.86,5.72z
						"/>
					<path class="st0" d="M63.45,41.63h-3.61c-2.68,0-4.85,2.17-4.85,4.85v6.88c0,2.68,2.17,4.85,4.85,4.85h3.61
						c2.68,0,4.85-2.17,4.85-4.85v-6.88C68.29,43.8,66.12,41.63,63.45,41.63z M59.08,51.99c-1.01,0-1.83-0.82-1.83-1.83
						c0-1.01,0.82-1.83,1.83-1.83c1.01,0,1.83,0.82,1.83,1.83C60.91,51.17,60.09,51.99,59.08,51.99z"/>
				</g>
			</g>
		</g>
	</g>
	<path class="st1" d="M43.13,46.47L31.77,34.93L20.4,46.47l-3.17,3.22v11.47c0,0.8,0.63,1.46,1.4,1.46h9c0.68,0,1.24-0.5,1.37-1.16
		c0.02-0.1,0.03-0.2,0.03-0.3v-5.77v-1.8c0.14-0.67,0.76-1.17,1.51-1.17h2.44c0.75,0,1.37,0.5,1.51,1.17v1.8v5.77
		c0,0.1,0.01,0.2,0.03,0.3c0.13,0.66,0.7,1.16,1.37,1.16h9c0.78,0,1.4-0.65,1.4-1.46V49.69L43.13,46.47z"/>
</g>
</svg>
