<?xml version="1.0" encoding="utf-8"?>
<!-- Generator: Adobe Illustrator 24.2.3, SVG Export Plug-In . SVG Version: 6.00 Build 0)  -->
<svg version="1.1" id="Capa_1" xmlns="http://www.w3.org/2000/svg" xmlns:xlink="http://www.w3.org/1999/xlink" x="0px" y="0px"
	 viewBox="0 0 70.47 75.32" style="enable-background:new 0 0 70.47 75.32;" xml:space="preserve">
<style type="text/css">
	.st0{fill:#86BE58;}
	.st1{fill:#FFFFFF;}
</style>
<g>
	<g>
		<g>
			<g>
				<path class="st0" d="M58.91,60.79c-3.73,0-6.76-3.03-6.76-6.76v-7.46c0-3.73,3.03-6.76,6.76-6.76h3.92c0.02,0,0.04,0,0.06,0
					v-6.07c0-3.76-2.27-7-5.5-8.43L53.17,13.6c-0.98-2.72-4-4.14-6.72-3.16l-0.66,0.27l-3.78-6.21l-0.06-0.09
					c-1.65-2.33-4.82-2.82-7.1-1.08L8.18,25.07c-3.56,1.28-6.12,4.67-6.12,8.67v29.67c0,5.08,4.13,9.22,9.22,9.22h42.41
					c5.08,0,9.22-4.13,9.22-9.22v-2.62c-0.02,0-0.04,0-0.06,0H58.91z M47.49,13.26c1.16-0.4,2.44,0.2,2.86,1.36l3.58,9.92
					c-0.08,0-0.16-0.01-0.25-0.01H20.29L47.49,13.26z M36.6,5.73C37.55,5,38.88,5.2,39.6,6.17l3.46,5.68L14.63,23.63L36.6,5.73z"/>
				<path class="st0" d="M63.3,41.81h-3.63c-2.69,0-4.87,2.18-4.87,4.87v6.91c0,2.69,2.18,4.87,4.87,4.87h3.63
					c2.69,0,4.87-2.18,4.87-4.87v-6.91C68.17,43.99,65.99,41.81,63.3,41.81z M58.91,52.22c-1.02,0-1.84-0.82-1.84-1.84
					c0-1.02,0.82-1.84,1.84-1.84c1.02,0,1.84,0.82,1.84,1.84C60.75,51.4,59.93,52.22,58.91,52.22z"/>
			</g>
		</g>
	</g>
	<path class="st0" d="M39.22,52.05H16.2c-2.31,0-4.19-1.88-4.19-4.19V31.75c0-2.31,1.88-4.19,4.19-4.19h23.02
		c2.31,0,4.19,1.88,4.19,4.19v16.11C43.41,50.17,41.53,52.05,39.22,52.05"/>
	<path class="st0" d="M44.19,45.62h-2.13c-1.58,0-2.85-1.28-2.85-2.85v-4.05c0-1.58,1.28-2.85,2.85-2.85h2.13
		c1.58,0,2.85,1.28,2.85,2.85v4.05C47.04,44.34,45.76,45.62,44.19,45.62"/>
	<path class="st1" d="M47.02,47.94c-0.23-0.17-0.53-0.15-0.74,0.05c-1.96,1.9-7.93,7.68-16.91,7.52
		c-8.67-0.16-14.21-4.67-16.75-7.34c-0.21-0.22-0.52-0.24-0.76-0.06c-0.24,0.18-0.3,0.49-0.15,0.75
		c2.23,3.75,7.49,10.07,17.65,10.32c0.21,0.01,0.41,0.01,0.61,0.01c4.51,0,8.44-1.27,11.69-3.77c2.85-2.2,4.58-4.89,5.52-6.76
		C47.32,48.4,47.25,48.11,47.02,47.94"/>
</g>
</svg>
