<?xml version="1.0" encoding="utf-8"?>
<!-- Generator: Adobe Illustrator 24.2.3, SVG Export Plug-In . SVG Version: 6.00 Build 0)  -->
<svg version="1.1" id="Capa_1" xmlns="http://www.w3.org/2000/svg" xmlns:xlink="http://www.w3.org/1999/xlink" x="0px" y="0px"
	 viewBox="0 0 70.47 75.32" style="enable-background:new 0 0 70.47 75.32;" xml:space="preserve">
<style type="text/css">
	.st0{fill:#139AD7;}
	.st1{fill:#FFFFFF;}
</style>
<g>
	<g>
		<g>
			<path class="st0" d="M58.92,60.88c-3.73,0-6.77-3.04-6.77-6.77v-7.48c0-3.73,3.04-6.77,6.77-6.77h3.92c0.02,0,0.04,0,0.06,0
				v-6.08c0-3.77-2.27-7.01-5.51-8.44l-4.23-11.73c-0.99-2.73-4-4.14-6.73-3.16l-0.66,0.27l-3.79-6.21l-0.06-0.09
				C40.27,2.1,37.1,1.6,34.82,3.35L8.11,25.11c-3.57,1.28-6.13,4.68-6.13,8.68V63.5c0,5.09,4.14,9.23,9.23,9.23h42.47
				c5.09,0,9.23-4.14,9.23-9.23v-2.63c-0.02,0-0.04,0-0.06,0H58.92z M47.48,13.27c1.16-0.4,2.44,0.21,2.86,1.37l3.59,9.93
				c-0.08,0-0.16-0.01-0.25-0.01H20.24L47.48,13.27z M36.57,5.74c0.95-0.73,2.29-0.53,3.01,0.44l3.47,5.69l-28.48,11.8L36.57,5.74z"
				/>
			<path class="st0" d="M63.32,41.87h-3.63c-2.69,0-4.88,2.18-4.88,4.88v6.92c0,2.69,2.18,4.88,4.88,4.88h3.63
				c2.69,0,4.88-2.18,4.88-4.88v-6.92C68.2,44.05,66.01,41.87,63.32,41.87z M58.92,52.3c-1.02,0-1.84-0.83-1.84-1.84
				c0-1.02,0.82-1.84,1.84-1.84c1.02,0,1.84,0.83,1.84,1.84C60.76,51.47,59.94,52.3,58.92,52.3z"/>
		</g>
		<g>
			<g>
				<path class="st1" d="M36.66,51.62H24.37c-4.34,0-7.87,4.24-7.87,9.47v2.6h28.03v-2.6C44.53,55.86,41.01,51.62,36.66,51.62z"/>
			</g>
			<circle class="st1" cx="30.51" cy="42.25" r="7.24"/>
		</g>
	</g>
</g>
</svg>
