<?xml version="1.0" encoding="utf-8"?>
<!-- Generator: Adobe Illustrator 24.2.3, SVG Export Plug-In . SVG Version: 6.00 Build 0)  -->
<svg version="1.1" id="Capa_1" xmlns="http://www.w3.org/2000/svg" xmlns:xlink="http://www.w3.org/1999/xlink" x="0px" y="0px"
	 viewBox="0 0 70.47 75.32" style="enable-background:new 0 0 70.47 75.32;" xml:space="preserve">
<style type="text/css">
	.st0{fill:#2A8A4A;}
	.st1{fill:#FFFFFF;}
</style>
<g>
	<g>
		<g>
			<g>
				<path class="st0" d="M58.59,60.88c-3.73,0-6.77-3.04-6.77-6.77v-7.48c0-3.73,3.04-6.77,6.77-6.77h3.92c0.02,0,0.04,0,0.06,0
					v-6.08c0-3.77-2.27-7.01-5.51-8.44l-4.23-11.73c-0.99-2.73-4-4.14-6.73-3.16l-0.66,0.27l-3.79-6.21L41.6,4.43
					c-1.66-2.33-4.83-2.83-7.11-1.08L7.77,25.11c-3.57,1.28-6.13,4.68-6.13,8.68V63.5c0,5.09,4.14,9.23,9.23,9.23h42.47
					c5.09,0,9.23-4.14,9.23-9.23v-2.63c-0.02,0-0.04,0-0.06,0H58.59z M47.15,13.27c1.16-0.4,2.44,0.21,2.86,1.37l3.59,9.93
					c-0.08,0-0.16-0.01-0.25-0.01H19.91L47.15,13.27z M36.24,5.74c0.95-0.73,2.29-0.53,3.01,0.44l3.47,5.69l-28.48,11.8L36.24,5.74z
					"/>
				<path class="st0" d="M62.98,41.87h-3.63c-2.69,0-4.88,2.18-4.88,4.88v6.92c0,2.69,2.18,4.88,4.88,4.88h3.63
					c2.69,0,4.88-2.18,4.88-4.88v-6.92C67.86,44.05,65.68,41.87,62.98,41.87z M58.59,52.3c-1.02,0-1.84-0.83-1.84-1.84
					c0-1.02,0.82-1.84,1.84-1.84c1.02,0,1.84,0.83,1.84,1.84C60.43,51.47,59.6,52.3,58.59,52.3z"/>
			</g>
		</g>
	</g>
	<g>
		<path class="st1" d="M28.79,49.84c0.6-0.89,1.47-1.86,2.62-2.92c0.79-0.74,1.38-1.36,1.76-1.86c0.38-0.5,0.57-1.04,0.57-1.62
			c0-0.79-0.33-1.42-1-1.9c-0.67-0.48-1.53-0.72-2.6-0.72c-1.09,0-2.08,0.26-2.97,0.78c-0.89,0.52-1.6,1.24-2.15,2.17l-6.09-3.27
			c1.12-1.91,2.7-3.39,4.74-4.46c2.05-1.06,4.51-1.6,7.4-1.6c3.24,0,5.86,0.67,7.83,2.02c1.98,1.35,2.97,3.24,2.97,5.66
			c0,1.12-0.19,2.11-0.57,2.97c-0.38,0.86-0.84,1.58-1.37,2.17c-0.53,0.59-1.22,1.25-2.07,1.98c-0.93,0.79-1.61,1.47-2.05,2.02
			c-0.44,0.56-0.65,1.21-0.65,1.94H27.9C27.9,51.85,28.19,50.72,28.79,49.84z M28.22,62.76c-0.87-0.83-1.31-1.85-1.31-3.05
			c0-1.23,0.43-2.24,1.29-3.03c0.86-0.79,1.97-1.19,3.33-1.19c1.36,0,2.48,0.4,3.35,1.19c0.87,0.79,1.31,1.8,1.31,3.03
			c0,1.2-0.44,2.22-1.31,3.05c-0.87,0.83-1.99,1.25-3.35,1.25C30.2,64.01,29.09,63.59,28.22,62.76z"/>
	</g>
</g>
</svg>
