<svg xmlns="http://www.w3.org/2000/svg" viewBox="0 0 102.05 80.18"><defs><style>.cls-1{fill:#84bd56;}</style></defs><g id="Capa_2" data-name="Capa 2"><g id="Copys_destacados" data-name="Copys destacados"><path class="cls-1" d="M9.79,24.72l11.68,8.11q9.74,6.75,14.92,10.39L38.81,45c1.23.89,2.26,1.61,3.07,2.16s1.81,1.17,3,1.85a16.67,16.67,0,0,0,3.27,1.54A9.15,9.15,0,0,0,51,51h.11a9,9,0,0,0,2.85-.51A16.4,16.4,0,0,0,57.2,49c1.16-.68,2.15-1.3,3-1.85S62,45.85,63.24,45l2.42-1.74L92.31,24.71a27,27,0,0,0,7-7,15,15,0,0,0,2.79-8.6,8.73,8.73,0,0,0-2.7-6.43A8.8,8.8,0,0,0,92.94,0H9.11A8.16,8.16,0,0,0,2.36,3,11.53,11.53,0,0,0,0,10.36Q0,14,3.13,18.14A28.5,28.5,0,0,0,9.79,24.72Z"/><path class="cls-1" d="M96.36,30.81Q77.67,43.46,68,50.46c-2.17,1.59-3.92,2.83-5.27,3.73a32.79,32.79,0,0,1-5.38,2.73,16.41,16.41,0,0,1-6.27,1.39H51a16.41,16.41,0,0,1-6.27-1.39,32.79,32.79,0,0,1-5.38-2.73c-1.34-.9-3.1-2.14-5.26-3.73q-7.7-5.64-28.31-19.65a30.24,30.24,0,0,1-5.75-5V71.07a8.77,8.77,0,0,0,2.68,6.44,8.78,8.78,0,0,0,6.43,2.67H92.94a9.13,9.13,0,0,0,9.11-9.11V25.85A31.13,31.13,0,0,1,96.36,30.81Z"/></g></g></svg>