<svg xmlns="http://www.w3.org/2000/svg" viewBox="0 0 160.74 95.11"><defs><style>.cls-1{fill:#84bd56;}</style></defs><g id="Capa_2" data-name="Capa 2"><g id="Elementos_interactivos" data-name="Elementos  interactivos"><path class="cls-1" d="M28.81,1.32V93.79H15.34V15.72H0V1.32Z"/><path class="cls-1" d="M99,54.1a27,27,0,0,1,3.06,13.14A29,29,0,0,1,98.4,82,24.38,24.38,0,0,1,88,91.75a34.64,34.64,0,0,1-15.65,3.36,34.33,34.33,0,0,1-15.6-3.36A24.13,24.13,0,0,1,46.43,82a29.28,29.28,0,0,1-3.63-14.8,27.35,27.35,0,0,1,3-13.14,22.48,22.48,0,0,1,8.6-8.92,20,20,0,0,1-6.69-8,26.64,26.64,0,0,1-2.33-11.43,26.63,26.63,0,0,1,3.37-13.61,22.94,22.94,0,0,1,9.48-9A30.27,30.27,0,0,1,72.34,0a30.48,30.48,0,0,1,14.2,3.17,23.25,23.25,0,0,1,9.53,9,26.35,26.35,0,0,1,3.42,13.61,25.6,25.6,0,0,1-2.38,11.36,21.07,21.07,0,0,1-6.84,8.06A22.59,22.59,0,0,1,99,54.1ZM84.15,77.68q4.35-4,4.36-11T84.15,55.88q-4.35-4-11.81-4t-11.71,4q-4.26,4-4.25,10.83t4.25,11q4.24,4,11.71,4T84.15,77.68ZM62.34,16.91q-3.69,3.43-3.68,9.64A12.39,12.39,0,0,0,62.34,36q3.68,3.49,10,3.5T82.49,36a12.32,12.32,0,0,0,3.74-9.45q0-6.21-3.79-9.64t-10.1-3.44Q66,13.47,62.34,16.91Z"/><path class="cls-1" d="M160.74,54.16H142.4V77.28H131.31V54.16H113V41h18.35V17.83H142.4V41h18.34Z"/></g></g></svg>