<svg xmlns="http://www.w3.org/2000/svg" viewBox="0 0 228.31 242.84"><defs><style>.cls-1{fill:#523f6b;}.cls-2{fill:#fff;}</style></defs><g id="Capa_2" data-name="Capa 2"><g id="Elementos_interactivos" data-name="Elementos  interactivos"><path class="cls-1" d="M196.33,202A23.36,23.36,0,0,1,173,178.63V152.85a23.36,23.36,0,0,1,23.34-23.33h13.75v-21a31.87,31.87,0,0,0-19-29.1L176.49,39a18.16,18.16,0,0,0-23.22-10.89l-2.26.93L138,7.64l-.2-.31a17.07,17.07,0,0,0-24.51-3.72l-92.12,75A31.84,31.84,0,0,0,0,108.56V211a31.87,31.87,0,0,0,31.82,31.83H178.26A31.87,31.87,0,0,0,210.08,211V202H196.33ZM156.88,37.83a7.8,7.8,0,0,1,9.87,4.71l12.36,34.24c-.29,0-.57,0-.85,0H63Zm-37.61-26a7.32,7.32,0,0,1,10.37,1.51l12,19.61L43.4,73.64Z"/><path class="cls-1" d="M211.5,136.43H199a16.82,16.82,0,0,0-16.82,16.82v23.86A16.82,16.82,0,0,0,199,193.93H211.5a16.82,16.82,0,0,0,16.81-16.82V153.25A16.82,16.82,0,0,0,211.5,136.43Zm-15.17,35.95a6.36,6.36,0,1,1,6.36-6.36A6.35,6.35,0,0,1,196.33,172.38Z"/><path class="cls-2" d="M68.94,124.15H53.31a2.62,2.62,0,0,0,0,5.24H68.94a2.62,2.62,0,0,0,0-5.24Z"/><path class="cls-2" d="M68.94,134.63H53.31a2.62,2.62,0,0,0,0,5.24H68.94a2.62,2.62,0,0,0,0-5.24Z"/><path class="cls-2" d="M68.94,145.11H53.31a2.62,2.62,0,1,0,0,5.23H68.94a2.62,2.62,0,0,0,0-5.23Z"/><path class="cls-2" d="M65,156H52.74a2.44,2.44,0,0,0,0,4.82H65A2.44,2.44,0,0,0,65,156Z"/><path class="cls-2" d="M65,166.23H52.74a2.7,2.7,0,0,0,0,5.24H65a2.7,2.7,0,0,0,0-5.24Z"/><path class="cls-2" d="M77.73,129.39H93.36a2.62,2.62,0,1,0,0-5.24H77.73a2.62,2.62,0,0,0,0,5.24Z"/><path class="cls-2" d="M77.73,138.87H93.36a2.62,2.62,0,1,0,0-5.24H77.73a2.62,2.62,0,0,0,0,5.24Z"/><path class="cls-2" d="M152.42,211.14l-25.26-25.27a31.37,31.37,0,1,0-11.74,11.74l25.26,25.27a8.3,8.3,0,1,0,11.74-11.74Zm-33.25-21.6a26.94,26.94,0,0,1-38.35,0,27.66,27.66,0,0,1,0-38.77,26.94,26.94,0,0,1,38.35,0A27.66,27.66,0,0,1,119.17,189.54Zm1.59-18.7a18.5,18.5,0,0,0-14.37-16.21v-2.32a3.12,3.12,0,0,0-.75-6.14H99.05a3.12,3.12,0,0,0-.76,6.14v2.33a18.4,18.4,0,0,0-9,5,18.63,18.63,0,0,0-1.56,1.77H81.13a.92.92,0,1,0,0,1.83h5.35a18.66,18.66,0,0,0-1.63,3.52h-10a.92.92,0,1,0,0,1.83h9.45a18.26,18.26,0,0,0-.46,3.52h-4a.92.92,0,0,0,0,1.83h4.08a19,19,0,0,0,.57,3.52H78.55a.92.92,0,1,0,0,1.83h6.52a18.26,18.26,0,0,0,4.21,6.52,18.49,18.49,0,0,0,11.25,5.32c.6.06,1.21.09,1.81.09a18.55,18.55,0,0,0,10.1-3,.91.91,0,0,0,.26-1.27.9.9,0,0,0-1.26-.26,16.67,16.67,0,1,1,4.91-4.92.92.92,0,0,0,.26,1.27.93.93,0,0,0,1.27-.27A18.54,18.54,0,0,0,120.76,170.84Zm-23-21.55A1.28,1.28,0,0,1,99.05,148h6.59a1.28,1.28,0,0,1,0,2.56H99.05A1.29,1.29,0,0,1,97.76,149.29Zm2.37,5V152.4h4.43v1.92A18.76,18.76,0,0,0,100.13,154.33Zm14.66,29.86a.92.92,0,0,0,0,1.84,1,1,0,0,0,.65-.27.94.94,0,0,0,0-1.3A1,1,0,0,0,114.79,184.19Zm-12.43-25.71a14.2,14.2,0,1,0,14.2,14.2A14.22,14.22,0,0,0,102.36,158.48Zm-.91,4.41a.92.92,0,1,1,1.83,0v.85a.92.92,0,0,1-1.83,0Zm-8,10.69h-.85a.92.92,0,1,1,0-1.83h.85a.92.92,0,0,1,0,1.83Zm9.84,8.89a.92.92,0,0,1-1.83,0v-.85a.92.92,0,0,1,1.83,0Zm6.18-15.58-.13.13-4.4,4.4a2.85,2.85,0,0,1-2.55,4.1,2.85,2.85,0,0,1-2.85-2.84,3,3,0,0,1,.29-1.26l-2-2a.91.91,0,0,1,1.29-1.29l2,2a2.82,2.82,0,0,1,1.26-.3,2.78,2.78,0,0,1,1.25.3l4.54-4.54a.91.91,0,0,1,1.29,0A.92.92,0,0,1,109.44,166.89Zm2.71,6.72h-.85a.92.92,0,1,1,0-1.84h.85a.92.92,0,0,1,0,1.84Zm-9.79-1.94a1,1,0,1,0,1,1A1,1,0,0,0,102.36,171.67Zm-27.47,5.74a.92.92,0,0,0-.65,1.57.92.92,0,0,0,.65.26.91.91,0,0,0,.64-1.56A.91.91,0,0,0,74.89,177.41Z"/><path class="cls-2" d="M66.94,183.45H50.45a5.3,5.3,0,0,1-5.31-5.3V117.48a5.31,5.31,0,0,1,5.31-5.31H96.21a5.31,5.31,0,0,1,5.31,5.31l.55,18.52a9,9,0,0,1,5,1l-.31-19.52a10.56,10.56,0,0,0-10.55-10.55H50.45A10.56,10.56,0,0,0,39.9,117.48v60.67a10.55,10.55,0,0,0,10.55,10.54h18.2a.71.71,0,0,0,.56-1.14A24.19,24.19,0,0,1,66.94,183.45Z"/></g></g></svg>