<svg xmlns="http://www.w3.org/2000/svg" viewBox="0 0 228.31 242.84"><defs><style>.cls-1{fill:#0a537c;}.cls-2{fill:#fff;}</style></defs><g id="Capa_2" data-name="Capa 2"><g id="Elementos_interactivos" data-name="Elementos  interactivos"><path class="cls-1" d="M196.33,202A23.36,23.36,0,0,1,173,178.63V152.85a23.36,23.36,0,0,1,23.34-23.33h13.75v-21a31.87,31.87,0,0,0-19-29.1L176.49,39a18.16,18.16,0,0,0-23.22-10.89l-2.26.93L138,7.64l-.2-.31a17.07,17.07,0,0,0-24.51-3.72l-92.12,75A31.84,31.84,0,0,0,0,108.56V211a31.87,31.87,0,0,0,31.82,31.83H178.26A31.87,31.87,0,0,0,210.08,211V202H196.33ZM156.88,37.83a7.8,7.8,0,0,1,9.87,4.71l12.36,34.24c-.29,0-.57,0-.85,0H63Zm-37.61-26a7.32,7.32,0,0,1,10.37,1.51l12,19.61L43.4,73.64Z"/><path class="cls-1" d="M211.5,136.43H199a16.82,16.82,0,0,0-16.82,16.82v23.86A16.82,16.82,0,0,0,199,193.93H211.5a16.82,16.82,0,0,0,16.81-16.82V153.25A16.82,16.82,0,0,0,211.5,136.43Zm-15.17,35.95a6.36,6.36,0,1,1,6.36-6.36A6.35,6.35,0,0,1,196.33,172.38Z"/><g id="Grupo_107" data-name="Grupo 107"><g id="Grupo_105" data-name="Grupo 105"><path id="Trazado_151" data-name="Trazado 151" class="cls-2" d="M122.07,138h-2.13a2.06,2.06,0,0,1-2-2.07h0v-.07a4.78,4.78,0,0,0-4.76-4.82H113a4.79,4.79,0,0,0-4.81,4.76v.07a2.06,2.06,0,0,1-2.07,2.05H104A4.11,4.11,0,0,0,99.87,142v.08a4.12,4.12,0,0,0,4.09,4.14l18.06.1a4.11,4.11,0,0,0,4.14-4.08v-.08a4.12,4.12,0,0,0-4.09-4.14Zm-9-.05a2.08,2.08,0,1,1,2.08-2.06,2.08,2.08,0,0,1-2.08,2.06Zm8.76,80.29L87,218a5.53,5.53,0,0,1-5.5-5.57h0l.39-66.4c0-3.05,2.51-5.52,4.19-5.51l11.21.07A7.64,7.64,0,0,0,97.1,142a6.89,6.89,0,0,0,6.84,6.91l18.06.11a6.94,6.94,0,0,0,6.92-7,6.37,6.37,0,0,0-.13-1.3l8.44,0c4.44,0,6.9,2.52,6.88,5.57L143.87,188c-.46,0-.92-.08-1.39-.08a22,22,0,0,0-5.54.7l.2-32.54-48.42-.29-.33,55.33,31.89.19a21.9,21.9,0,0,0,1.52,6.92Zm20.66-26.17a18,18,0,1,0,17.87,18.09,18,18,0,0,0-17.87-18.09Zm11.66,14.36L143,218.8a2.76,2.76,0,0,1-3.8.3l-6.88-5.57a2.77,2.77,0,1,1,3.49-4.3h0l4.84,3.92L150,202.72a2.77,2.77,0,1,1,4.18,3.63l-.06.07Zm-24-26.88L108,179.41a1.38,1.38,0,0,1-1.38-1.39v-1.38a1.39,1.39,0,0,1,1.39-1.38h0l22.14.13a1.38,1.38,0,0,1,1.37,1.39v1.39a1.38,1.38,0,0,1-1.39,1.37Zm.07-12.45L108,167a1.38,1.38,0,0,1-1.37-1.39v-1.38a1.38,1.38,0,0,1,1.39-1.38h0l22.13.13a1.4,1.4,0,0,1,1.38,1.39v1.39a1.39,1.39,0,0,1-1.39,1.37Zm-7.05,23.47-15.21-.09a1.38,1.38,0,0,1-1.38-1.39h0V187.7a1.4,1.4,0,0,1,1.39-1.38l15.22.09a1.39,1.39,0,0,1,1.37,1.4h0v1.38A1.39,1.39,0,0,1,123.1,190.56ZM120.26,203l-12.45-.08a1.37,1.37,0,0,1-1.37-1.39h0v-1.38a1.38,1.38,0,0,1,1.39-1.38h0l12.45.08a1.37,1.37,0,0,1,1.37,1.39h0v1.38a1.37,1.37,0,0,1-1.39,1.37ZM104,161.82l-5.12,5.7a1.29,1.29,0,0,1-1.75.14L94,165.09a1.27,1.27,0,0,1,1.6-2l2.23,1.8,4.32-4.8a1.28,1.28,0,0,1,1.8,0,1.26,1.26,0,0,1,.09,1.71ZM104,174.13l-5.13,5.7a1.27,1.27,0,0,1-1.75.13l-3.17-2.57a1.27,1.27,0,0,1,1.6-2l2.23,1.79,4.32-4.79a1.27,1.27,0,0,1,1.8,0,1.29,1.29,0,0,1,.1,1.72Zm-.07,11.77-5.13,5.7a1.27,1.27,0,0,1-1.75.13l-3.16-2.56a1.27,1.27,0,0,1,1.6-2l2.23,1.8,4.31-4.8a1.28,1.28,0,0,1,1.9,1.7Zm-.07,11.85-5.13,5.7a1.29,1.29,0,0,1-1.75.14L93.77,201a1.27,1.27,0,0,1,1.6-2l2.22,1.81,4.32-4.8a1.28,1.28,0,0,1,2,1.62l-.07.08Z"/></g><g id="Grupo_106" data-name="Grupo 106"><path id="Trazado_152" data-name="Trazado 152" class="cls-2" d="M72.89,161.21a1.93,1.93,0,0,0-1.66-3.49l-26.85,12.8c-2.24,1.07-.58,4.56,1.67,3.49Z"/><path id="Trazado_153" data-name="Trazado 153" class="cls-2" d="M75.17,166l-26.85,12.8A1.94,1.94,0,0,0,50,182.26l26.84-12.8A1.93,1.93,0,0,0,75.17,166Z"/><path id="Trazado_154" data-name="Trazado 154" class="cls-2" d="M53.63,189.9l25-11.91.06-4.31L52,186.42a1.93,1.93,0,0,0,1.66,3.48Z"/><path id="Trazado_155" data-name="Trazado 155" class="cls-2" d="M57.57,198.15l20.92-10c0-1.41,0-2.85.05-4.3L55.9,194.67a1.93,1.93,0,0,0,1.67,3.48Z"/><path id="Trazado_156" data-name="Trazado 156" class="cls-2" d="M60.76,206.19l17.64-8.41c0-1.39,0-2.83,0-4.3L59.1,202.7a1.93,1.93,0,0,0,1.66,3.49Z"/><path id="Trazado_157" data-name="Trazado 157" class="cls-2" d="M57.55,216.91,30.63,160.49l34.25-16.34L68.16,151l7.21-3.44,3.62,7.6c.1-4.2.2-7.82.33-10.48l-.65-1.37L65,138.75,24.23,158.22l31.05,65.09,23-11c0-1.48,0-3.29,0-5.34Z"/><path id="Trazado_158" data-name="Trazado 158" class="cls-2" d="M82.38,129.33l-13.62-4.59L28,144.2l3.59,7.54,4.34-2.07-1.53-3.2L68.6,130.14,71.88,137l7.21-3.44L81.2,138a13,13,0,0,1,4.41-1.92Z"/><path id="Trazado_159" data-name="Trazado 159" class="cls-2" d="M87,116l-13.62-4.59L32.53,130.88l3.59,7.54,4.33-2.07-1.52-3.2,34.24-16.33,3.28,6.88,7.21-3.44,7.44,15.58,5.43.23Z"/></g></g></g></g></svg>