<svg xmlns="http://www.w3.org/2000/svg" viewBox="0 0 228.31 242.84"><defs><style>.cls-1{fill:#f7931e;}.cls-2{fill:#fff;}</style></defs><g id="Capa_2" data-name="Capa 2"><g id="Elementos_interactivos" data-name="Elementos  interactivos"><path class="cls-1" d="M196.33,202A23.36,23.36,0,0,1,173,178.63V152.85a23.36,23.36,0,0,1,23.34-23.33h13.75v-21a31.87,31.87,0,0,0-19-29.1L176.49,39a18.16,18.16,0,0,0-23.22-10.89l-2.26.93L138,7.64l-.2-.31a17.07,17.07,0,0,0-24.51-3.72l-92.12,75A31.84,31.84,0,0,0,0,108.56V211a31.87,31.87,0,0,0,31.82,31.83H178.26A31.87,31.87,0,0,0,210.08,211V202H196.33ZM156.88,37.83a7.8,7.8,0,0,1,9.87,4.71l12.36,34.24c-.29,0-.57,0-.85,0H63Zm-37.61-26a7.32,7.32,0,0,1,10.37,1.51l12,19.61L43.4,73.64Z"/><path class="cls-1" d="M211.5,136.43H199a16.82,16.82,0,0,0-16.82,16.82v23.86A16.82,16.82,0,0,0,199,193.93H211.5a16.82,16.82,0,0,0,16.81-16.82V153.25A16.82,16.82,0,0,0,211.5,136.43Zm-15.17,35.95a6.36,6.36,0,1,1,6.36-6.36A6.35,6.35,0,0,1,196.33,172.38Z"/><path class="cls-2" d="M117.3,134.13h-3.18a.91.91,0,1,0,0,1.82h3.18a2.74,2.74,0,0,1,2.74,2.73v4.19H61.53v-4.19A2.73,2.73,0,0,1,64.26,136h45.86a.91.91,0,0,0,0-1.82H64.26a4.55,4.55,0,0,0-4.55,4.55v10a.91.91,0,1,0,1.82,0v-4H120v23.47a.91.91,0,1,0,1.82,0V138.68A4.56,4.56,0,0,0,117.3,134.13Z"/><path class="cls-2" d="M121,171.09a.91.91,0,0,0-.91.91v2.37a2.74,2.74,0,0,1-2.74,2.73h-53a2.73,2.73,0,0,1-2.73-2.73V152.63a.91.91,0,0,0-1.82,0v21.74a4.55,4.55,0,0,0,4.55,4.55h53a4.56,4.56,0,0,0,4.56-4.55V172A.91.91,0,0,0,121,171.09Z"/><path class="cls-2" d="M72.87,153.91a.91.91,0,0,0-1.28,0l-5.47,5.47a.91.91,0,0,0,0,1.29l5.39,5.4a.91.91,0,0,0,.65.26.89.89,0,0,0,.64-.26.91.91,0,0,0,0-1.29L68.05,160l4.82-4.83a.91.91,0,0,0,0-1.29Z"/><path class="cls-2" d="M85.12,166.07a.89.89,0,0,0,.64.26.91.91,0,0,0,.65-.26l5.39-5.4a.91.91,0,0,0,0-1.29l-5.47-5.47a.91.91,0,0,0-1.28,1.29L89.87,160l-4.75,4.75a.91.91,0,0,0,0,1.29Z"/><path class="cls-2" d="M75.73,169.42a.9.9,0,0,0,.85-.59l6.47-17a.91.91,0,0,0-1.7-.64l-6.47,17a.91.91,0,0,0,.53,1.17.87.87,0,0,0,.32.06Z"/><path class="cls-2" d="M63.71,139.46a2.74,2.74,0,1,0,2.73-2.74A2.74,2.74,0,0,0,63.71,139.46Zm3.64,0a.91.91,0,1,1-.91-.91A.91.91,0,0,1,67.35,139.46Z"/><path class="cls-2" d="M70.77,139.46a2.74,2.74,0,1,0,2.73-2.74A2.74,2.74,0,0,0,70.77,139.46Zm3.64,0a.91.91,0,1,1-.91-.91A.91.91,0,0,1,74.41,139.46Z"/><path class="cls-2" d="M77.83,139.46a2.73,2.73,0,1,0,2.73-2.74A2.74,2.74,0,0,0,77.83,139.46Zm3.64,0a.91.91,0,1,1-.91-.91A.91.91,0,0,1,81.47,139.46Z"/><path class="cls-2" d="M100.43,154.87h5.71a2.73,2.73,0,1,0,0-5.46h-5.71a2.73,2.73,0,1,0,0,5.46Zm0-3.64h5.71a.91.91,0,0,1,0,1.82h-5.71a.91.91,0,0,1,0-1.82Z"/><path class="cls-2" d="M100.43,162.15h15a2.73,2.73,0,0,0,0-5.46h-15a2.73,2.73,0,1,0,0,5.46Zm0-3.64h15a.91.91,0,0,1,0,1.82h-15a.91.91,0,1,1,0-1.82Z"/><path class="cls-2" d="M100.43,169.44H111a2.73,2.73,0,0,0,0-5.46H100.43a2.73,2.73,0,1,0,0,5.46Zm0-3.64H111a.91.91,0,0,1,0,1.82H100.43a.91.91,0,0,1,0-1.82Z"/><path class="cls-2" d="M135,207.12l-1.52-2.76a40.23,40.23,0,0,1-1.74-4.75c-1.1-7.75-5.13-15.68-6.65-18.57a2.49,2.49,0,0,0-1.74-1.44,48.11,48.11,0,0,0-26,1.44l-2.06-2.65c-1.63-2.21-3.38-4.31-5-6.53-1.86-2.44-3.58-4.75-5.44-7.08a3.76,3.76,0,0,0-5.12-.88,3.72,3.72,0,0,0-1,5.09c4.78,8.63,9.59,17.14,14.14,25.74a9.58,9.58,0,0,1,1,3.1c.21,2.21-.1,4.09-2.17,3.32-2.4-.88-7.63-3.53-8.81-3.64a9.36,9.36,0,0,0-6,.56,5.19,5.19,0,0,0-2.17,2.44c-.65,1.77-.21,2.87,1.52,3.42a48.39,48.39,0,0,1,11.11,5.63c1.31.88,3.27,1.88,4.57,2.87A14.89,14.89,0,0,0,98,215a42.81,42.81,0,0,1,15.57,7.19,6.15,6.15,0,0,0,7.63-.11l13.18-10.93A3.25,3.25,0,0,0,135,207.12Z"/><path class="cls-2" d="M140.17,119.61H47.47a6.62,6.62,0,0,0-6.62,6.62v59.6a6.63,6.63,0,0,0,6.62,6.62h38c-1.44-2.53-3.21-5.79-5.42-9.94H50.78v-53h86.08v53h-7.93s3.53,8.44,3.29,9.93h7.95a6.64,6.64,0,0,0,6.63-6.62V126.23A6.63,6.63,0,0,0,140.17,119.61ZM47.84,161.12c0,1.5-.82,2.72-1.83,2.72a1.34,1.34,0,0,1-1-.43,1.27,1.27,0,0,1-.33-.39,3.51,3.51,0,0,1-.53-1.93V151a3.09,3.09,0,0,1,1-2.4,1.39,1.39,0,0,1,.87-.34,1.65,1.65,0,0,1,.88.34,3.12,3.12,0,0,1,1,2.4Zm94-1.78a3.31,3.31,0,1,1,3.31-3.31A3.3,3.3,0,0,1,141.8,159.34Z"/></g></g></svg>