<svg xmlns="http://www.w3.org/2000/svg" viewBox="0 0 228.31 242.84"><defs><style>.cls-1{fill:#84bd56;}.cls-2{fill:#fff;}</style></defs><g id="Capa_2" data-name="Capa 2"><g id="Elementos_interactivos" data-name="Elementos  interactivos"><path class="cls-1" d="M196.33,202A23.36,23.36,0,0,1,173,178.63V152.85a23.36,23.36,0,0,1,23.34-23.33h13.75v-21a31.87,31.87,0,0,0-19-29.1L176.49,39a18.16,18.16,0,0,0-23.22-10.89l-2.26.93L138,7.64l-.2-.31a17.07,17.07,0,0,0-24.51-3.72l-92.12,75A31.84,31.84,0,0,0,0,108.56V211a31.87,31.87,0,0,0,31.82,31.83H178.26A31.87,31.87,0,0,0,210.08,211V202H196.33ZM156.88,37.83a7.8,7.8,0,0,1,9.87,4.71l12.36,34.24c-.29,0-.57,0-.85,0H63Zm-37.61-26a7.32,7.32,0,0,1,10.37,1.51l12,19.61L43.4,73.64Z"/><path class="cls-1" d="M211.5,136.43H199a16.82,16.82,0,0,0-16.82,16.82v23.86A16.82,16.82,0,0,0,199,193.93H211.5a16.82,16.82,0,0,0,16.81-16.82V153.25A16.82,16.82,0,0,0,211.5,136.43Zm-15.17,35.95a6.36,6.36,0,1,1,6.36-6.36A6.35,6.35,0,0,1,196.33,172.38Z"/><path class="cls-2" d="M68.74,147.08H66.29a.7.7,0,1,0,0,1.39h2.45a2.1,2.1,0,0,1,2.09,2.1v3.21H25.94v-3.21a2.1,2.1,0,0,1,2.1-2.1H63.23a.7.7,0,0,0,0-1.39H28a3.5,3.5,0,0,0-3.5,3.49v7.7a.7.7,0,0,0,1.4,0v-3.09H70.83v18a.7.7,0,0,0,1.4,0V150.57A3.49,3.49,0,0,0,68.74,147.08Z"/><path class="cls-2" d="M71.53,175.44a.7.7,0,0,0-.7.7V178a2.1,2.1,0,0,1-2.09,2.1H28a2.1,2.1,0,0,1-2.1-2.1V161.27a.7.7,0,0,0-1.4,0V178a3.5,3.5,0,0,0,3.5,3.5h40.7a3.5,3.5,0,0,0,3.49-3.5v-1.81A.7.7,0,0,0,71.53,175.44Z"/><path class="cls-2" d="M34.65,162.25a.71.71,0,0,0-1,0l-4.2,4.2a.71.71,0,0,0,0,1l4.14,4.14a.7.7,0,0,0,.5.21.67.67,0,0,0,.49-.21.69.69,0,0,0,0-1L30.94,167l3.71-3.71a.71.71,0,0,0,0-1Z"/><path class="cls-2" d="M44,171.58a.69.69,0,0,0,1,0l4.14-4.14a.69.69,0,0,0,0-1l-4.2-4.2a.7.7,0,0,0-1,1l3.7,3.71L44,170.59a.71.71,0,0,0,0,1Z"/><path class="cls-2" d="M36.84,174.16a.71.71,0,0,0,.65-.46l5-13.07a.7.7,0,1,0-1.3-.5l-5,13.08a.71.71,0,0,0,.41.9.7.7,0,0,0,.25,0Z"/><path class="cls-2" d="M27.62,151.16a2.1,2.1,0,1,0,2.09-2.09A2.1,2.1,0,0,0,27.62,151.16Zm2.79,0a.7.7,0,1,1-.7-.7A.7.7,0,0,1,30.41,151.16Z"/><path class="cls-2" d="M33,151.16a2.1,2.1,0,1,0,2.1-2.09A2.1,2.1,0,0,0,33,151.16Zm2.8,0a.7.7,0,1,1-1.4,0,.7.7,0,0,1,1.4,0Z"/><path class="cls-2" d="M38.45,151.16a2.1,2.1,0,1,0,2.1-2.09A2.1,2.1,0,0,0,38.45,151.16Zm2.8,0a.7.7,0,1,1-.7-.7A.7.7,0,0,1,41.25,151.16Z"/><path class="cls-2" d="M55.79,163h4.38a2.1,2.1,0,1,0,0-4.19H55.79a2.1,2.1,0,0,0,0,4.19Zm0-2.79h4.38a.7.7,0,1,1,0,1.39H55.79a.7.7,0,1,1,0-1.39Z"/><path class="cls-2" d="M55.79,168.58H67.34a2.1,2.1,0,1,0,0-4.19H55.79a2.1,2.1,0,0,0,0,4.19Zm0-2.79H67.34a.7.7,0,1,1,0,1.39H55.79a.7.7,0,1,1,0-1.39Z"/><path class="cls-2" d="M55.79,174.17h8.12a2.1,2.1,0,1,0,0-4.19H55.79a2.1,2.1,0,0,0,0,4.19Zm0-2.8h8.12a.7.7,0,0,1,0,1.4H55.79a.7.7,0,1,1,0-1.4Z"/><path class="cls-2" d="M82.33,203.08,81.16,201a30.89,30.89,0,0,1-1.34-3.64c-.84-5.94-3.93-12-5.1-14.25a1.89,1.89,0,0,0-1.34-1.1,36.81,36.81,0,0,0-20,1.1l-1.58-2c-1.25-1.69-2.59-3.3-3.85-5-1.43-1.88-2.75-3.65-4.18-5.44a2.84,2.84,0,0,0-4.67,3.24C42.81,180.44,46.5,187,50,193.58a7.44,7.44,0,0,1,.75,2.38c.16,1.69-.08,3.13-1.67,2.54-1.84-.67-5.85-2.71-6.76-2.79a7.16,7.16,0,0,0-4.59.43A3.89,3.89,0,0,0,36.05,198c-.5,1.36-.16,2.2,1.16,2.63A36.76,36.76,0,0,1,45.74,205c1,.68,2.51,1.45,3.51,2.2a11.48,11.48,0,0,0,4.67,2,32.89,32.89,0,0,1,12,5.51,4.7,4.7,0,0,0,5.85-.08l10.11-8.39A2.51,2.51,0,0,0,82.33,203.08Z"/><path class="cls-2" d="M86.29,135.93H15.15A5.09,5.09,0,0,0,10.07,141v45.72a5.08,5.08,0,0,0,5.08,5.08H44.28c-1.11-1.94-2.47-4.43-4.16-7.62H17.7V143.55H83.75V184.2H77.66s2.71,6.48,2.53,7.62h6.1a5.09,5.09,0,0,0,5.08-5.08V141A5.09,5.09,0,0,0,86.29,135.93ZM15.44,167.79c0,1.15-.63,2.08-1.4,2.08a1.1,1.1,0,0,1-.75-.32,1.31,1.31,0,0,1-.25-.31,2.7,2.7,0,0,1-.4-1.47V160a2.38,2.38,0,0,1,.72-1.84,1.07,1.07,0,0,1,.68-.26,1.19,1.19,0,0,1,.67.26,2.38,2.38,0,0,1,.73,1.84Zm72.09-1.37a2.54,2.54,0,1,1,2.54-2.54A2.54,2.54,0,0,1,87.53,166.42Z"/><path class="cls-2" d="M120.66,149H108.45a2,2,0,0,0,0,4.09h12.21a2,2,0,1,0,0-4.09Z"/><path class="cls-2" d="M120.66,157.16H108.45a2,2,0,0,0,0,4.09h12.21a2,2,0,1,0,0-4.09Z"/><path class="cls-2" d="M120.66,165.35H108.45a2,2,0,0,0,0,4.09h12.21a2,2,0,1,0,0-4.09Z"/><path class="cls-2" d="M117.6,173.86H108a1.9,1.9,0,0,0,0,3.76h9.59a1.9,1.9,0,0,0,0-3.76Z"/><path class="cls-2" d="M117.6,181.85H108a2.11,2.11,0,0,0,0,4.09h9.59a2.1,2.1,0,0,0,0-4.09Z"/><path class="cls-2" d="M127.53,153.07h12.21a2,2,0,1,0,0-4.09H127.53a2,2,0,0,0,0,4.09Z"/><path class="cls-2" d="M127.53,160.47h12.21a2,2,0,1,0,0-4.09H127.53a2,2,0,0,0,0,4.09Z"/><path class="cls-2" d="M185.89,216.93l-19.74-19.74a24.49,24.49,0,1,0-9.17,9.18l19.73,19.73a6.49,6.49,0,0,0,9.18-9.17Zm-26-16.87a21,21,0,0,1-30,0,21.61,21.61,0,0,1,0-30.29,21,21,0,0,1,30,0A21.61,21.61,0,0,1,159.91,200.06Zm1.24-14.61a14.43,14.43,0,0,0-11.23-12.66V171a2.43,2.43,0,0,0-.58-4.79h-5.15a2.43,2.43,0,0,0-.59,4.79v1.83a14.5,14.5,0,0,0-8.26,5.25h-5.15a.72.72,0,1,0,0,1.43h4.18a13.68,13.68,0,0,0-1.27,2.75h-7.79a.72.72,0,0,0,0,1.43h7.38a14.89,14.89,0,0,0-.35,2.75h-3.16a.72.72,0,1,0,0,1.43h3.18a14.47,14.47,0,0,0,.45,2.75h-4.64a.72.72,0,0,0,0,1.43h5.1a14.24,14.24,0,0,0,3.29,5.08,14.45,14.45,0,0,0,8.78,4.17c.48,0,.95.07,1.42.07a14.53,14.53,0,0,0,7.89-2.33.72.72,0,0,0,.21-1,.71.71,0,0,0-1-.21A13,13,0,1,1,157.7,194a.72.72,0,0,0,1.2.78A14.51,14.51,0,0,0,161.15,185.45Zm-18-16.84a1,1,0,0,1,1-1h5.15a1,1,0,1,1,0,2h-5.15A1,1,0,0,1,143.19,168.61Zm1.84,3.94v-1.5h3.46v1.5A14.3,14.3,0,0,0,145,172.55Zm11.45,23.33a.73.73,0,0,0-.5.21.71.71,0,0,0-.21.51.67.67,0,0,0,.21.5.71.71,0,0,0,1,0,.71.71,0,0,0,.21-.5.75.75,0,0,0-.21-.51A.74.74,0,0,0,156.48,195.88Zm-9.71-20.09a11.1,11.1,0,1,0,11.1,11.1A11.1,11.1,0,0,0,146.77,175.79Zm-.7,3.45a.72.72,0,1,1,1.43,0v.66a.72.72,0,1,1-1.43,0Zm-6.28,8.35h-.67a.72.72,0,0,1,0-1.43h.67a.72.72,0,0,1,0,1.43Zm7.69,6.95a.72.72,0,0,1-1.43,0v-.67a.72.72,0,0,1,1.43,0Zm4.83-12.18-.1.11-3.44,3.44a2.22,2.22,0,1,1-4.22,1,2.11,2.11,0,0,1,.23-1l-1.59-1.59a.71.71,0,0,1,0-1,.72.72,0,0,1,1,0l1.58,1.58a2.31,2.31,0,0,1,1-.23,2.28,2.28,0,0,1,1,.23l3.55-3.54a.71.71,0,0,1,1,1Zm2.11,5.25h-.66a.72.72,0,1,1,0-1.43h.66a.72.72,0,1,1,0,1.43Zm-7.65-1.51a.79.79,0,1,0,.79.79A.79.79,0,0,0,146.77,186.1Zm-21.46,4.49a.69.69,0,0,0-.5.21.67.67,0,0,0-.21.5.71.71,0,0,0,.21.51.71.71,0,0,0,1,0,.75.75,0,0,0,.21-.51.71.71,0,0,0-.21-.5A.69.69,0,0,0,125.31,190.59Z"/><path class="cls-2" d="M119.11,195.31H106.22a4.14,4.14,0,0,1-4.14-4.15v-47.4a4.14,4.14,0,0,1,4.14-4.14H142a4.15,4.15,0,0,1,4.15,4.14l.43,14.47a7.07,7.07,0,0,1,3.91.78l-.25-15.25a8.25,8.25,0,0,0-8.24-8.24H106.22A8.24,8.24,0,0,0,98,143.76v47.4a8.24,8.24,0,0,0,8.24,8.24h14.22a.56.56,0,0,0,.44-.9A18.32,18.32,0,0,1,119.11,195.31Z"/></g></g></svg>