<svg xmlns="http://www.w3.org/2000/svg" viewBox="0 0 172.53 39.78"><defs><style>.cls-1{fill:#84bd56;stroke:#fff;stroke-miterlimit:10;stroke-width:0.5px;}.cls-2{isolation:isolate;}.cls-3{fill:#fff;}.cls-4{fill:none;}</style></defs><g id="Capa_2" data-name="Capa 2"><g id="Capa_1-2" data-name="Capa 1"><g id="Componente_24_1" data-name="Componente 24 1"><path class="cls-1" d="M171.91,24.52A2.45,2.45,0,0,0,168.82,22c-.93.22-1-2.5-1.26-6s-2.12-2.06-2.12-2.06-2-6-2.68-7.61-2.68-1.17-2.68-1.17-1.34.53-2.09-1.69-4.61-2-4.73-1.8h-.48A9.31,9.31,0,0,0,147.9.25H9.72A9.47,9.47,0,0,0,.25,9.72V30.06a9.47,9.47,0,0,0,9.47,9.47H147.9a9.14,9.14,0,0,0,2.36-.31c5.92-.07,12.27-.14,13.32-.08,2,.12,4.08-3,4.42-3.84a7.89,7.89,0,0,0,0-2.94s2.8-.56,3.5-1.19S171.85,27,171.91,24.52Z"/><g id="Solicita_tu_crédito" data-name="Solicita tu crédito" class="cls-2"><g class="cls-2"><path class="cls-3" d="M6.76,27.55a5.05,5.05,0,0,1-1.68-.78l.74-1.64a5,5,0,0,0,1.44.71,5.34,5.34,0,0,0,1.66.27,2.69,2.69,0,0,0,1.37-.27.84.84,0,0,0,.45-.74.67.67,0,0,0-.27-.55,1.85,1.85,0,0,0-.67-.36,11,11,0,0,0-1.1-.29,14.74,14.74,0,0,1-1.76-.51,2.93,2.93,0,0,1-1.18-.82,2.26,2.26,0,0,1-.49-1.51,2.65,2.65,0,0,1,.44-1.48,3.07,3.07,0,0,1,1.34-1,5.45,5.45,0,0,1,2.18-.39,7.37,7.37,0,0,1,1.76.21,5.08,5.08,0,0,1,1.5.62l-.67,1.65a5.22,5.22,0,0,0-2.6-.74,2.41,2.41,0,0,0-1.35.3.89.89,0,0,0-.44.78.75.75,0,0,0,.51.71,7.89,7.89,0,0,0,1.53.47,14.74,14.74,0,0,1,1.76.51,3,3,0,0,1,1.18.8,2.21,2.21,0,0,1,.49,1.49,2.55,2.55,0,0,1-.45,1.47,3,3,0,0,1-1.35,1.06,5.5,5.5,0,0,1-2.19.39A7.36,7.36,0,0,1,6.76,27.55Z"/><path class="cls-3" d="M15.63,27.33A3.51,3.51,0,0,1,14.21,26a3.63,3.63,0,0,1-.51-1.92,3.68,3.68,0,0,1,.51-1.92,3.55,3.55,0,0,1,1.42-1.32,4.6,4.6,0,0,1,4.09,0,3.59,3.59,0,0,1,1.41,1.32,3.68,3.68,0,0,1,.51,1.92A3.63,3.63,0,0,1,21.13,26a3.54,3.54,0,0,1-1.41,1.33,4.68,4.68,0,0,1-4.09,0ZM19,25.54a2.3,2.3,0,0,0,0-2.91,1.87,1.87,0,0,0-2.65,0,2.26,2.26,0,0,0,0,2.91,1.9,1.9,0,0,0,2.65,0Z"/><path class="cls-3" d="M23,17.73h2.1v10H23Z"/><path class="cls-3" d="M27.18,19.13a1.14,1.14,0,0,1,0-1.66,1.31,1.31,0,0,1,.94-.34,1.37,1.37,0,0,1,.94.32,1.06,1.06,0,0,1,.36.81,1.12,1.12,0,0,1-.36.86,1.3,1.3,0,0,1-.94.35A1.35,1.35,0,0,1,27.18,19.13Zm-.11,1.34h2.1v7.22h-2.1Z"/><path class="cls-3" d="M32.53,27.33a3.54,3.54,0,0,1-2-3.25,3.51,3.51,0,0,1,2-3.24,4.42,4.42,0,0,1,2.07-.48,4,4,0,0,1,2,.48,2.82,2.82,0,0,1,1.24,1.36l-1.62.88a1.78,1.78,0,0,0-1.63-1,1.82,1.82,0,0,0-1.35.54,2.26,2.26,0,0,0,0,2.93,1.85,1.85,0,0,0,1.35.53,1.76,1.76,0,0,0,1.63-1l1.62.89a2.87,2.87,0,0,1-1.24,1.34,4,4,0,0,1-2,.48A4.54,4.54,0,0,1,32.53,27.33Z"/><path class="cls-3" d="M39.16,19.13a1.12,1.12,0,0,1,0-1.66,1.29,1.29,0,0,1,.94-.34,1.41,1.41,0,0,1,.94.32,1.06,1.06,0,0,1,.36.81,1.12,1.12,0,0,1-.36.86,1.45,1.45,0,0,1-1.88,0Zm-.11,1.34h2.09v7.22H39.05Z"/><path class="cls-3" d="M47.75,27.35a2.31,2.31,0,0,1-.76.34,4.19,4.19,0,0,1-1,.11,2.8,2.8,0,0,1-2-.66,2.5,2.5,0,0,1-.71-1.93v-3H42.23V20.63h1.11V18.87h2.1v1.76h1.8v1.61h-1.8v2.94a1,1,0,0,0,.23.71.87.87,0,0,0,.67.25,1.32,1.32,0,0,0,.84-.27Z"/><path class="cls-3" d="M54.42,21.16a3.07,3.07,0,0,1,.9,2.41v4.12h-2V26.8a2.33,2.33,0,0,1-2.2,1,3.41,3.41,0,0,1-1.45-.28,2.24,2.24,0,0,1-.93-.78,2.07,2.07,0,0,1-.32-1.13A1.86,1.86,0,0,1,49.22,24a3.87,3.87,0,0,1,2.34-.58h1.67a1.33,1.33,0,0,0-.42-1.05A1.81,1.81,0,0,0,51.56,22a3.66,3.66,0,0,0-1.13.18,2.84,2.84,0,0,0-1,.49l-.75-1.46a4.59,4.59,0,0,1,1.41-.65,6.45,6.45,0,0,1,1.7-.23A3.78,3.78,0,0,1,54.42,21.16Zm-1.79,5a1.36,1.36,0,0,0,.6-.73v-.74H51.79c-.86,0-1.29.29-1.29.85a.76.76,0,0,0,.32.64,1.44,1.44,0,0,0,.86.23A1.75,1.75,0,0,0,52.63,26.14Z"/><path class="cls-3" d="M65.67,27.35a2.31,2.31,0,0,1-.76.34,4.12,4.12,0,0,1-.95.11,2.81,2.81,0,0,1-2-.66,2.5,2.5,0,0,1-.7-1.93v-3H60.15V20.63h1.12V18.87h2.09v1.76h1.8v1.61h-1.8v2.94a1,1,0,0,0,.24.71.83.83,0,0,0,.66.25,1.37,1.37,0,0,0,.85-.27Z"/><path class="cls-3" d="M74.13,20.47v7.22h-2v-.85a2.78,2.78,0,0,1-1,.71A3.43,3.43,0,0,1,67.64,27a3.27,3.27,0,0,1-.83-2.43V20.47h2.1v3.77c0,1.17.48,1.75,1.46,1.75a1.58,1.58,0,0,0,1.21-.49A2.09,2.09,0,0,0,72,24V20.47Z"/><path class="cls-3" d="M81.29,27.33a3.54,3.54,0,0,1-2-3.25,3.51,3.51,0,0,1,2-3.24,4.39,4.39,0,0,1,2.07-.48,4,4,0,0,1,2,.48A2.82,2.82,0,0,1,86.6,22.2L85,23.08a1.75,1.75,0,0,0-1.62-1,1.84,1.84,0,0,0-1.36.54,2.29,2.29,0,0,0,0,2.93,1.87,1.87,0,0,0,1.36.53,1.74,1.74,0,0,0,1.62-1L86.6,26a2.87,2.87,0,0,1-1.24,1.34,4,4,0,0,1-2,.48A4.51,4.51,0,0,1,81.29,27.33Z"/><path class="cls-3" d="M90.82,20.63a3.78,3.78,0,0,1,1.47-.27V22.3l-.47,0a1.94,1.94,0,0,0-1.41.5,2,2,0,0,0-.51,1.51v3.41H87.81V20.47h2v1A2.36,2.36,0,0,1,90.82,20.63Z"/><path class="cls-3" d="M100.51,24.67H95a1.67,1.67,0,0,0,.7,1.06,2.31,2.31,0,0,0,1.37.39,2.8,2.8,0,0,0,1-.16,2.57,2.57,0,0,0,.81-.53l1.12,1.2a3.75,3.75,0,0,1-3,1.17,4.77,4.77,0,0,1-2.16-.47A3.46,3.46,0,0,1,93.45,26a3.88,3.88,0,0,1,0-3.83,3.53,3.53,0,0,1,1.38-1.33,4.26,4.26,0,0,1,3.89,0,3.4,3.4,0,0,1,1.35,1.31,4,4,0,0,1,.49,2S100.53,24.32,100.51,24.67Zm-4.9-2.32a1.73,1.73,0,0,0-.59,1.1h3.55A1.69,1.69,0,0,0,98,22.36,1.76,1.76,0,0,0,96.8,22,1.78,1.78,0,0,0,95.61,22.35Zm1.73-4.74h2.25l-2.42,1.94H95.53Z"/><path class="cls-3" d="M109.3,17.73v10h-2v-.83a2.75,2.75,0,0,1-2.25.94,3.81,3.81,0,0,1-1.85-.45A3.34,3.34,0,0,1,101.9,26a4,4,0,0,1-.47-2,4,4,0,0,1,.47-2,3.38,3.38,0,0,1,1.3-1.3,3.81,3.81,0,0,1,1.85-.46,2.76,2.76,0,0,1,2.16.88V17.73Zm-2.58,7.81a2.26,2.26,0,0,0,0-2.91,1.71,1.71,0,0,0-1.31-.55,1.74,1.74,0,0,0-1.33.55,2.3,2.3,0,0,0,0,2.91,1.77,1.77,0,0,0,1.33.54A1.74,1.74,0,0,0,106.72,25.54Z"/><path class="cls-3" d="M111.34,19.13a1.14,1.14,0,0,1,0-1.66,1.31,1.31,0,0,1,.94-.34,1.37,1.37,0,0,1,.94.32,1.06,1.06,0,0,1,.36.81,1.12,1.12,0,0,1-.36.86,1.3,1.3,0,0,1-.94.35A1.35,1.35,0,0,1,111.34,19.13Zm-.11,1.34h2.1v7.22h-2.1Z"/><path class="cls-3" d="M119.93,27.35a2.22,2.22,0,0,1-.76.34,4.1,4.1,0,0,1-.94.11,2.82,2.82,0,0,1-2-.66,2.5,2.5,0,0,1-.7-1.93v-3h-1.11V20.63h1.11V18.87h2.09v1.76h1.8v1.61h-1.8v2.94a1,1,0,0,0,.24.71.86.86,0,0,0,.66.25,1.35,1.35,0,0,0,.85-.27Z"/><path class="cls-3" d="M122.28,27.33A3.51,3.51,0,0,1,120.86,26a3.63,3.63,0,0,1-.51-1.92,3.68,3.68,0,0,1,.51-1.92,3.55,3.55,0,0,1,1.42-1.32,4.58,4.58,0,0,1,4.08,0,3.59,3.59,0,0,1,1.41,1.32,3.68,3.68,0,0,1,.51,1.92,3.63,3.63,0,0,1-.51,1.92,3.54,3.54,0,0,1-1.41,1.33,4.66,4.66,0,0,1-4.08,0Zm3.37-1.79a2.33,2.33,0,0,0,0-2.91,1.88,1.88,0,0,0-2.66,0,2.3,2.3,0,0,0,0,2.91,1.91,1.91,0,0,0,2.66,0Z"/></g></g><path class="cls-4" d="M162.58,29V24.77a3.87,3.87,0,0,1,3.86-3.86H167V17.45a3.55,3.55,0,0,0-3.55-3.55h-24.2a3.55,3.55,0,0,0-3.55,3.55V34.38a3.55,3.55,0,0,0,3.55,3.55h24.2A3.55,3.55,0,0,0,167,34.38v-1.5h-.56A3.86,3.86,0,0,1,162.58,29Zm-.74-4.83a12.91,12.91,0,0,1-3.6,4.4,12.09,12.09,0,0,1-7.62,2.46h-.39a13.42,13.42,0,0,1-11.5-6.73.36.36,0,0,1,.06-.46.38.38,0,0,1,.53,0,15.29,15.29,0,0,0,10.91,4.78c5.85.11,9.74-3.66,11-4.89a.35.35,0,0,1,.47,0h0A.38.38,0,0,1,161.84,24.2Z"/><path class="cls-4" d="M155.93,2.44a1.29,1.29,0,0,0-1.76-.25l-11.66,9L157.56,5Z"/><path class="cls-4" d="M163.45,12.18l.41,0-2-5.66a1.29,1.29,0,0,0-1.64-.78l-15.5,6.42Z"/><path class="cls-4" d="M168.68,22.62h-2.24a2.14,2.14,0,0,0-2.14,2.15V29a2.14,2.14,0,0,0,2.14,2.14h2.24A2.14,2.14,0,0,0,170.82,29V24.77A2.14,2.14,0,0,0,168.68,22.62ZM166,28.18a1.14,1.14,0,1,1,1.13-1.13A1.14,1.14,0,0,1,166,28.18Z"/><path class="cls-3" d="M168.71,20.92V17.44a5.24,5.24,0,0,0-2.82-4.65L163.42,6a3,3,0,0,0-3.83-1.8l-.45.18-1.81-2.83,0-.05a3,3,0,0,0-4.16-.6L138.46,12.25A5.25,5.25,0,0,0,134,17.44V34.38a5.27,5.27,0,0,0,5.26,5.26h24.2a5.27,5.27,0,0,0,5.26-5.26v-1.5A3.86,3.86,0,0,0,172.53,29V24.77A3.85,3.85,0,0,0,168.71,20.92ZM161.82,6.54l2,5.66-.41,0H144.68l15.5-6.42A1.29,1.29,0,0,1,161.82,6.54Zm-7.65-4.35a1.29,1.29,0,0,1,1.76.25L157.56,5l-15.05,6.24ZM167,34.38a3.55,3.55,0,0,1-3.55,3.55h-24.2a3.55,3.55,0,0,1-3.55-3.55V17.45a3.55,3.55,0,0,1,3.55-3.55h24.2A3.55,3.55,0,0,1,167,17.45v3.46h-.56a3.87,3.87,0,0,0-3.86,3.86V29a3.86,3.86,0,0,0,3.86,3.85H167ZM170.82,29a2.14,2.14,0,0,1-2.14,2.14h-2.24A2.14,2.14,0,0,1,164.3,29V24.77a2.14,2.14,0,0,1,2.14-2.15h2.24a2.14,2.14,0,0,1,2.14,2.15Z"/><path class="cls-3" d="M161.72,23.73a.35.35,0,0,0-.47,0c-1.28,1.23-5.17,5-11,4.89a15.29,15.29,0,0,1-10.91-4.78.38.38,0,0,0-.53,0,.36.36,0,0,0-.06.46,13.42,13.42,0,0,0,11.5,6.73h.39a12.09,12.09,0,0,0,7.62-2.46,12.91,12.91,0,0,0,3.6-4.4.38.38,0,0,0-.12-.47Z"/><path class="cls-3" d="M166,25.91a1.14,1.14,0,1,0,1.13,1.14A1.14,1.14,0,0,0,166,25.91Z"/></g></g></g></svg>