<svg xmlns="http://www.w3.org/2000/svg" viewBox="0 0 361.15 82.97"><defs><style>.cls-1{fill:#84bd56;}.cls-2{fill:#bdd57b;}.cls-3{fill:#298949;}.cls-4{fill:#a4c961;}.cls-5{fill:#7aba5b;}.cls-6,.cls-7{fill:#fff;}.cls-7{font-size:30px;font-family:Montserrat-Bold, Montserrat;font-weight:700;}.cls-8{letter-spacing:-0.01em;}.cls-9{letter-spacing:-0.02em;}.cls-10{letter-spacing:0em;}</style></defs><g id="Capa_2" data-name="Capa 2"><g id="Elementos_interactivos" data-name="Elementos  interactivos"><rect class="cls-1" width="330.15" height="82.54" rx="9.47"/><path class="cls-2" d="M346.73,31.76,301.65,63.48,286.16,31.37,322.73,2.71a4.43,4.43,0,0,1,6.19.93Z"/><path class="cls-3" d="M301,66.12,284,30.86,321.64,1.32a6.22,6.22,0,0,1,8.7,1.27l.07.11,18.71,29.53ZM288.37,31.88l14,29,42-29.55L327.46,4.65a2.67,2.67,0,0,0-3.68-.52Z"/><path class="cls-4" d="M351,44.07,296.89,63.56,286.16,31.37l48.31-20A4.42,4.42,0,0,1,340.13,14Z"/><path class="cls-3" d="M295.79,65.84,284,30.37,333.87,9.69a6.19,6.19,0,0,1,7.92,3.72l11.46,31.73Zm-7.43-33.47L298,61.29,348.72,43l-10.25-28.4A2.65,2.65,0,0,0,335.11,13Z"/><path class="cls-1" d="M342.4,81.2h-50a9.09,9.09,0,0,1-9.09-9.09v-35a9.09,9.09,0,0,1,9.09-9.09h50a9.09,9.09,0,0,1,9.09,9.09v35a9.09,9.09,0,0,1-9.09,9.09"/><path class="cls-3" d="M342.4,83h-50a10.87,10.87,0,0,1-10.86-10.86v-35a10.87,10.87,0,0,1,10.86-10.86h50a10.87,10.87,0,0,1,10.86,10.86v35A10.87,10.87,0,0,1,342.4,83Zm-50-53.15a7.32,7.32,0,0,0-7.32,7.32v35a7.33,7.33,0,0,0,7.32,7.33h50a7.34,7.34,0,0,0,7.33-7.33v-35a7.33,7.33,0,0,0-7.33-7.32Z"/><path class="cls-5" d="M353.19,67.25h-4.62a6.19,6.19,0,0,1-6.2-6.19v-8.8a6.2,6.2,0,0,1,6.2-6.2h4.62a6.2,6.2,0,0,1,6.19,6.2v8.8a6.19,6.19,0,0,1-6.19,6.19"/><path class="cls-3" d="M353.19,69h-4.62a8,8,0,0,1-8-8v-8.8a8,8,0,0,1,8-8h4.62a8,8,0,0,1,8,8v8.8A8,8,0,0,1,353.19,69Zm-4.62-21.19a4.43,4.43,0,0,0-4.43,4.43v8.8a4.43,4.43,0,0,0,4.43,4.43h4.62a4.44,4.44,0,0,0,4.43-4.43v-8.8a4.44,4.44,0,0,0-4.43-4.43Z"/><path class="cls-6" d="M338.83,50.12a.76.76,0,0,0-1,.07c-2.63,2.56-10.66,10.34-22.74,10.12a31.64,31.64,0,0,1-22.53-9.88.77.77,0,0,0-1.22.92,27.66,27.66,0,0,0,23.74,13.89l.83,0a25.1,25.1,0,0,0,15.72-5.08,26.9,26.9,0,0,0,7.43-9.09.77.77,0,0,0-.24-1"/><path class="cls-3" d="M349.94,57a2.35,2.35,0,1,1-2.34-2.34A2.34,2.34,0,0,1,349.94,57"/><text class="cls-7" transform="translate(15.78 52.67) scale(0.94 1)">Solicita tu c<tspan class="cls-8" x="183.54" y="0">r</tspan><tspan x="196.2" y="0">édi</tspan><tspan class="cls-9" x="244.92" y="0">t</tspan><tspan class="cls-10" x="257.46" y="0">o</tspan></text></g></g></svg>